<?xml version="1.0" standalone="no"?>
<!DOCTYPE svg PUBLIC "-//W3C//DTD SVG 1.1//EN" "http://www.w3.org/Graphics/SVG/1.1/DTD/svg11.dtd" >
<svg>
<metadata>
Created by FontForge 20110222 at Thu Jul 17 13:36:43 2014
 By deploy user
Copyright (C) 1993; Type Market Ltd. Moscow, 119136, Box 20; phone:(095)1427712; Created by A.Kustov
</metadata>
<defs>
<font id="Mistral" horiz-adv-x="393" >
  <font-face 
    font-family="Mistral"
    font-weight="400"
    font-stretch="normal"
    units-per-em="1000"
    panose-1="0 0 0 0 0 0 0 0 0 0"
    ascent="800"
    descent="-200"
    x-height="230"
    cap-height="528"
    bbox="-24 -264 918 744"
    underline-thickness="50"
    underline-position="-75"
    unicode-range="U+0020-2122"
  />
<missing-glyph horiz-adv-x="744" 
d="M46 0v744h652v-744h-652zM652 46v652h-560v-652h560z" />
    <glyph glyph-name=".notdef" horiz-adv-x="744" 
d="M46 0v744h652v-744h-652zM652 46v652h-560v-652h560z" />
    <glyph glyph-name=".null" horiz-adv-x="0" 
 />
    <glyph glyph-name="nonmarkingreturn" 
 />
    <glyph glyph-name="space" unicode=" " 
 />
    <glyph glyph-name="exclam" unicode="!" horiz-adv-x="244" 
d="M135 131q0 16 4 39t10 33q0 11 3 31t6 26q7 16 11 51.5t7 63.5q3 7 8 38.5t6.5 44t7 39t5.5 35.5q0 17 -11 17q-14 0 -28.5 -10t-26.5 -23q-19 -5 -26 -17.5t-7 -49.5q0 -17 -3 -30.5t-6 -29.5q0 -10 13 -10q3 -8 3 -19q0 -17 -4 -34.5t-7 -20.5q1 -9 -1 -28
q-7 -61 -7 -76q-5 -9 -7 -20.5t-2 -22.5q0 -15 3 -21q0 -19 -2 -33t0 -18q10 -4 28 14t23 31zM67 -21q7 -2 23 0.5t29 4.5q11 0 12.5 14t3.5 27q4 18 -5 25t-24 7q-10 0 -14 -2q-12 -8 -21 -17.5t-14 -19.5q-4 -4 1 -21t9 -18z" />
    <glyph glyph-name="quotedbl" unicode="&#x22;" horiz-adv-x="219" 
d="M37 475q-3 0 -4.5 -11t-1.5 -23q0 -10 -13 -55q-5 -16 -10 -31q-4 -17 12 -17q15 0 31 30.5t16 47.5q5 1 21 44q10 26 14 38t4 14q0 5 -7.5 8.5t-10.5 4.5q-11 5 -12 4q-27 -10 -39 -29q-3 -5 -3 -11t0.5 -8.5t2.5 -5.5zM147 475q-3 0 -4.5 -11t-1.5 -23q0 -9 -8.5 -36.5
t-15.5 -49.5q-1 -3 -1 -6v-4q0 -7 11 -7q15 0 32 30.5t17 47.5q4 1 16 31q9 24 19 49q4 14 4 16q0 5 -8 8q-6 4 -9 5q-10 5 -12 4q-29 -10 -39 -29q-3 -5 -3 -11t0.5 -8.5t2.5 -5.5z" />
    <glyph glyph-name="numbersign" unicode="#" 
 />
    <glyph glyph-name="dollar" unicode="$" horiz-adv-x="332" 
d="M137 -12q0 -9 -1 -15l-2 -12q0 -10 20 -10q3 6 4 24.5t4 24.5q17 9 29 17t28 22.5t31 29t18.5 16.5t11 4.5t11.5 10.5q0 11 -1.5 15.5t-12.5 7.5q0 53 -45 96q-19 17 -38 35q-2 9 2.5 55t10.5 97q22 3 54.5 19.5t45.5 33.5q9 15 9 32q0 19 -13 32q-5 3 -12 3
q-11 0 -32 -9q-31 -13 -40 -15q1 13 2 23.5t3 25.5q0 5 -3 8l-14 2q-13 0 -13 -4q-2 -8 -5 -45q-3 -20 -3 -28q-46 -30 -55 -36q-23 -16 -41 -40q-17 -20 -25 -40t-8 -38q0 -21 10 -43q4 -10 19 -33q8 -10 38 -37q25 -22 30 -31q0 -24 -2 -48q-5 -59 -5 -68q-36 -16 -72 -31
q-46 -23 -42 -41q4 -14 16 -20.5t29 -6.5q16 0 32 5t27 12zM211 109q-1 -15 -13 -21q-17 -5 -26 -8q0 9 3 30q7 48 7 50l12 -12q6 -11 10 -18q8 -15 7 -21zM178 400q17 0 25 -11t8 -28q0 -25 -12 -49t-25 -24q-5 0 -8 3q-11 11 -20 31t-9 39t9 29t32 10z" />
    <glyph glyph-name="percent" unicode="%" horiz-adv-x="488" 
d="M33 248q5 -3 12 -17t23 -16q-1 -2 11.5 -7.5t23.5 -5.5q13 0 20 7q14 0 30 22l42 62q11 44 18.5 82.5t7.5 58.5q2 12 2 17q0 29 -16.5 54t-40.5 25q-17 0 -33 -16q1 11 -11 11t-25.5 -8t-12.5 -17q-13 -26 -30.5 -78.5t-22.5 -79.5q-2 -4 -1 -18t1 -16q0 -11 -2 -15
q4 -8 4 -26v-19zM141 -20q19 58 71 153q63 115 71 133q51 82 75 128q41 80 48 141q8 8 8 17v6q-2 4 -2 5q-9 -2 -14.5 -3.5t-20.5 -12.5q-13 5 -31 -23t-18 -42l-15 -39l-73 -142q-27 -49 -41 -76q-47 -88 -47 -114q-25 -34 -41 -65q-21 -42 -21 -70q0 -20 10 -31q2 -4 8 -4
q8 0 17 9t16 30zM414 21q18 30 27 49.5t12 40.5q6 12 11.5 42t5.5 56q0 33 -6.5 55t-22 31.5t-26.5 9.5q-14 0 -24 -9q-4 -4 -8 -11q0 13 -16 13q-27 0 -33 -27q-20 -29 -30 -75q-14 -67 -27 -133q5 -6 6 -23.5t4 -23.5q13 -24 26.5 -31t42.5 -10q19 4 32.5 13t25.5 33z
M166 340q0 -14 -10 -30.5t-21 -32.5l-14 -7q-6 -7 -12 -7q-11 0 -19 13t-8 28q0 10 6 16q-2 12 -2 20q0 14 4.5 42.5t5.5 35.5q5 22 13 29l32 16q12 0 15.5 -2t9.5 -16q4 -3 7 -19t3 -30q0 -17 -3.5 -33.5t-6.5 -22.5zM424 141q-4 -39 -27.5 -72.5t-42.5 -35.5
q-8 3 -14 15.5t-6 27.5q0 6 4 18q-3 14 -3 31q0 28 5.5 51.5t15.5 38.5q-3 5 15 12.5t31 6.5q18 -3 20 -32.5t2 -60.5z" />
    <glyph glyph-name="ampersand" unicode="&#x26;" horiz-adv-x="436" 
d="M158 -23q15 0 31.5 8.5t17.5 18.5q7 -1 28 36q10 18 19 17q53 0 82 7q47 11 67 43q10 7 20 15.5t7 23.5l-22 -4q-32 -16 -41 -19q-4 1 -12 1t-28.5 -2t-22.5 -2q-14 0 -22 4.5t-8 17.5l2 12q-1 5 -1 17q0 14 1.5 38t1.5 25q10 16 13 23q15 36 22 54q33 60 52 95t19 46
q0 9 -10 9q-7 0 -16 -4q-17 4 -29 -12q-8 -12 -16 -23q-32 -40 -45.5 -57t-19.5 -11q-10 10 -23 44.5t-25 40.5q-17 16 -34 33q-15 12 -45 20q-10 5 -21 5q-28 0 -49.5 -24.5t-21.5 -72.5q0 -15 1 -23q-5 -5 -5 -19q0 -16 6 -40.5t8 -32.5q0 -54 61 -121q41 -42 58 -59
q0 -15 -4.5 -33t-8.5 -33q0 -5 -4 -20t-4 -23q0 -19 21 -19zM219 254q1 -4 -7.5 -17.5t-6.5 -19.5l-23 -39q-19 -3 -61 55t-42 98q0 8 1 11q2 6 -3.5 22t-5.5 28q0 13 1.5 20t7.5 22q2 11 10.5 18.5t21.5 7.5t27.5 -10.5t28.5 -33.5q3 -2 26 -38q10 -15 19 -24
q0 -10 1.5 -22t6.5 -23q-5 -12 -15 -27q-17 -24 -14 -46q2 0 11 10t16 8z" />
    <glyph glyph-name="quotesingle" unicode="'" horiz-adv-x="174" 
d="M129 361q6 23 18 50q32 71 35 81q2 3 3.5 6.5t1.5 7.5q0 8 -7.5 13t-22.5 8q-16 -5 -25.5 -8.5t-12.5 -8.5q0 -5 -1 -17.5t-1 -17.5l-6 -46q-7 -37 -23 -79q-3 -7 -1 -10.5t7 -3.5q9 0 21.5 8.5t13.5 16.5z" />
    <glyph glyph-name="parenleft" unicode="(" horiz-adv-x="244" 
d="M168 -45q14 -5 26 -5q17 0 17 17t-18 54q-23 49 -25 53q-9 22 -13 45t-4 50q0 61 23 137q12 40 46 124q4 8 16.5 41.5t16 43t3.5 12.5q0 9 -7 9q-14 0 -36.5 -23.5t-39.5 -61.5q-38 -71 -59.5 -144t-21.5 -142q0 -42 8 -78.5t22 -69.5q22 -53 46 -62z" />
    <glyph glyph-name="parenright" unicode=")" horiz-adv-x="244" 
d="M124 527q-17 6 -27 6q-18 0 -18 -18q0 -17 18 -54q13 -27 27 -53q8 -19 12 -43.5t4 -47.5q0 -63 -24 -140q-12 -38 -47 -124q-2 -5 -18 -53q-4 -11 -9.5 -24.5t-5.5 -21.5q0 -9 8 -9q13 0 35.5 23.5t38.5 60.5q38 73 59 145t21 141q0 44 -10.5 88t-28 80t-35.5 44z" />
    <glyph glyph-name="asterisk" unicode="*" horiz-adv-x="314" 
d="M220 279q-1 4 -1 9q-6 18 -7.5 28t-1.5 29q0 17 -2 24q30 -17 47.5 -26t28.5 -9q18 0 26 18q0 6 -11 10q-19 7 -24 9q-17 8 -31.5 14t-19.5 8q3 5 33 26t41 32q10 6 10 16q0 11 -10 20q-6 5 -12 5q-8 0 -11 -12l-63 -60q-1 3 -1 10q0 8 6 41q3 16 3 26q0 28 -23 28
q-11 -4 -15.5 -5.5t-4.5 -5.5q3 -23 3 -56v-24q-1 -8 -1 -12q-6 3 -29 22t-27 21q-4 12 -18 23q-8 8 -15 -0.5t-7 -23.5q0 -16 10 -23q19 -10 43.5 -26t30.5 -22q-17 -11 -42 -25t-33 -16t-8 -10q0 -17 23 -17q5 0 13 2t25 15q22 17 34 23q1 -5 -0.5 -25t-1.5 -23
q0 -21 4.5 -32.5t18.5 -11.5q8 0 20 6z" />
    <glyph glyph-name="plus" unicode="+" 
 />
    <glyph glyph-name="comma" unicode="," horiz-adv-x="156" 
d="M51 51l-6 -35q-3 -12 -4 -20q-5 -21 -12 -44t-7 -28q0 -6 8 -6q9 0 23 12q9 8 10 13q0 10 8.5 30t8.5 23q4 0 8.5 11.5t10 25t14 35.5t6.5 26l-13 10q-12 2 -15 2q-13 0 -21.5 -7t-18.5 -23q-1 -3 -1 -10t1 -15z" />
    <glyph glyph-name="hyphen" unicode="-" horiz-adv-x="227" 
d="M151 141q11 -4 21 -4q16 0 23.5 10t7.5 25q0 10 -4 17t-11 6q-28 0 -55.5 -0.5t-54.5 -0.5q-19 0 -25 1q-4 0 -14 -14.5t-13 -14.5q-8 -8 -8 -19q0 -10 14 -10q10 0 31.5 -1t32.5 -1q16 0 29 1t26 5z" />
    <glyph glyph-name="period" unicode="." horiz-adv-x="156" 
d="M82 0q19 3 35 14q7 0 20 12t13 17q0 12 -9 22q-12 13 -34 13q-4 4 -9 4q-6 0 -12.5 -7t-13.5 -14q-21 -20 -21 -32q0 -7 4 -11t27 -18z" />
    <glyph glyph-name="slash" unicode="/" horiz-adv-x="314" 
d="M112 -6q-4 29 16 72q16 34 44 71l122 192q74 123 74 171q11 17 11 23t-9 6q-7 0 -20 -3q-34 -8 -41 -8q-17 -30 -36 -80q-23 -62 -30 -77q-11 -20 -55 -93q-28 -48 -56 -95q-38 -64 -55 -95q-3 -3 -12 -33t-9 -49q0 -25 15 -25t41 23z" />
    <glyph glyph-name="zero" unicode="0" horiz-adv-x="332" 
d="M80 -21q16 -8 30 -12t23 -4q7 0 19 4q52 12 106 141q49 118 49 187q0 16 2.5 47.5t2.5 40.5q0 41 -11 68q-14 35 -49 57q-26 17 -47 17q-34 0 -88 -58q5 15 5 22q0 19 -30 19q-29 -48 -54 -143q-15 -59 -28 -135q0 -23 3 -77t3 -79q0 -34 22.5 -64.5t41.5 -30.5zM217 129
q-29 -51 -49.5 -71.5t-37.5 -20.5q-28 0 -42 67q-4 20 -8 57t-4 76q0 52 7.5 84.5t14.5 61.5q27 48 82 48q36 0 60.5 -22.5t24.5 -65.5q-1 -8 -1 -13q0 -23 -18 -108t-29 -93z" />
    <glyph glyph-name="one" unicode="1" horiz-adv-x="277" 
d="M97 -33q38 4 71 95q12 36 25 73q34 134 50.5 206.5t25.5 142.5q0 12 -11 27.5t-26 15.5q-17 0 -33 -19q-29 -17 -52 -44t-44 -52q-28 -28 -47 -49q-52 -58 -52 -77q0 -10 17 -9q14 7 23 15.5t18 20.5q22 29 85 73l34 14q0 -87 -36 -220q-18 -65 -36 -129
q-15 -36 -22.5 -54.5t-7.5 -24.5q0 -8 7 -8q3 0 11 3z" />
    <glyph glyph-name="two" unicode="2" horiz-adv-x="319" 
d="M53 -23q35 -3 67 -3q35 0 65 4t69 16q19 -3 41.5 15.5t22.5 33.5q0 10 -15 10q-13 0 -85 -7q-41 -4 -58 -4q-42 0 -64 11q7 23 36 63l46 62q47 61 71 101q43 72 43 121q0 11 -1 16q-12 48 -54 70q-27 15 -89 26q-6 1 -19 1q-43 0 -76.5 -18t-40.5 -50q-3 -11 -3 -24
q0 -26 9 -49t20 -23q9 0 15 20q0 17 4 25.5t25 21.5q18 9 52 9q38 0 66 -12t31 -38q0 -29 -22 -70q-12 -22 -37 -57q-69 -85 -137 -170q-8 -9 -16 -24q-12 -22 -12 -38q0 -15 10 -25t36 -14z" />
    <glyph glyph-name="three" unicode="3" horiz-adv-x="308" 
d="M31 -39q42 0 84 18q4 2 123 72q62 33 62 89q0 8 -1 12q-10 41 -63 65q-64 30 -72 39q17 28 28 45q21 33 29 37q3 10 47 75q24 36 33 52q4 30 -19 47t-65 17q-50 0 -94.5 -6t-56 -17.5t-23.5 -35.5t-12 -40q0 -20 16 -20q20 7 42 14.5t42 11t41 3.5q27 0 36 -3.5t7 -7.5
q-8 -21 -45.5 -75t-65.5 -87q-17 -20 -17 -37q0 -25 49 -45q42 -16 85 -32q7 -3 7 -8q0 -22 -111 -85q-52 -30 -80 -43q-12 -9 -21 -17q-19 -16 -19 -25q0 -13 34 -13z" />
    <glyph glyph-name="four" unicode="4" horiz-adv-x="298" 
d="M167 25q0 -4 -3 -22t-3 -29q0 -22 12 -31q15 7 23.5 16t11.5 19q9 3 15 68.5t15 79.5q3 10 34 22q20 8 38 19q21 9 21 31q0 16 -9 16l-33 -11t-34 -6l43 191q8 3 8 9q0 15 -33 26q-17 0 -24 -1.5t-11 -9.5t-21 -98q-11 -58 -20 -111q-4 -4 -16 -6t-28 -2q-10 0 -30 1
t-28 1q-27 -3 -27 38q0 48 38 147q14 37 31 74t26 59q16 40 16 51q7 13 7 20q0 9 -12 9q-17 0 -46 -16t-39 -31q-19 -53 -21 -63q2 -8 4 -15l-36 -148q-7 -26 -12.5 -55.5t-5.5 -52.5q0 -43 20.5 -68t70.5 -25l52 5q10 1 14 -7t4 -24q0 -20 -4.5 -39.5t-7.5 -30.5z" />
    <glyph glyph-name="five" unicode="5" horiz-adv-x="306" 
d="M13 4q14 -16 33 -21.5t45 -5.5q9 0 27 1t26 1q55 7 100 34q57 33 57 77q0 16 -7 32.5t-25 35.5q-13 15 -103 74q-75 49 -83 81q-1 8 -1 12q0 26 15 51q11 18 35 42q13 4 96 10q36 2 50.5 9t27.5 26.5t18 44.5q-24 6 -56 6q-11 0 -34 -1t-34 -1h-21q-9 2 -12 2
q-7 -4 -21.5 -5t-36.5 -1q-17 4 -42 -43q-20 -38 -36 -88q-8 -27 -8 -47q0 -54 48 -101q16 -15 102 -77q48 -40 48 -53q0 -10 -13.5 -19t-46.5 -23q-24 -11 -73 -19q-81 -13 -81 -23q0 -5 6 -11z" />
    <glyph glyph-name="six" unicode="6" horiz-adv-x="292" 
d="M97 0q20 -10 42.5 -16.5t45.5 -6.5t42.5 8t35.5 27q11 15 15 29t4 32q0 64 -69 138q-54 58 -116 92q39 57 94 124q47 57 95 114q21 4 21 11q0 12 -32 12q-12 0 -25.5 -4t-24.5 -13q-99 -72 -158 -160q-69 -103 -69 -210q0 -23 3 -46q15 -48 35 -76.5t61 -54.5zM208 102
q7 -18 7 -32q0 -26 -38 -26q-14 0 -34 3q-48 10 -70 41.5t-22 75.5q0 30 11 62.5t29 58.5q6 0 11.5 -16t11.5 -19q15 -10 47 -55q39 -55 47 -93z" />
    <glyph glyph-name="seven" unicode="7" horiz-adv-x="314" 
d="M141 -43q10 0 19 13q5 8 10 10q6 -3 13 15q13 45 16 56q9 38 48 141.5t48 137.5q4 17 5.5 28t1.5 23q0 23 -8.5 43.5t-29.5 42.5q-33 30 -110.5 60.5t-129.5 30.5q-8 0 -20 -2q0 -22 12 -51q8 -19 17 -38q33 0 82 -9.5t90 -26.5q20 -10 27.5 -17.5t7.5 -15.5
q0 -4 -2.5 -8.5t-3.5 -6.5q-22 -68 -47 -154.5t-41 -158.5q-8 -29 -13.5 -53.5t-5.5 -36.5q0 -23 14 -23z" />
    <glyph glyph-name="eight" unicode="8" horiz-adv-x="281" 
d="M5 4q13 -47 65 -47h22q11 3 15 4q46 10 76 34q37 29 41 73q0 17 -5.5 41.5t-17.5 36.5q-24 12 -24 27q0 8 6 20q37 37 62 72q34 48 46 94q1 6 1 13v11q0 57 -29.5 98.5t-85.5 55.5q-7 -7 -24 -7q-12 1 -17 1q-32 -9 -71 -39q-44 -34 -44 -62q0 -8 2 -12q23 0 65 16
q49 19 67 21t25.5 3t12.5 1q47 0 47 -38q0 -6 -4 -26q-18 -42 -49 -92q-38 -63 -63 -80q-18 5 -45 43q-30 43 -30 76q0 9 3 17q9 24 9 32q-10 -1 -19 -2q-43 -39 -43 -76q0 -64 35 -88q51 -35 55 -43q-2 -7 -19 -26q-41 -47 -59 -88q-4 -9 -8.5 -24.5t-4.5 -26.5
q0 -13 7 -13zM160 39q-7 -20 -29.5 -32t-43.5 -12q-8 0 -11 1q-15 5 -15 21q0 21 30 58q13 16 51 54q8 -11 17 -22q14 -27 14 -46q0 -18 -13 -22z" />
    <glyph glyph-name="nine" unicode="9" horiz-adv-x="314" 
d="M158 -57q30 15 61 90q11 26 76 238q0 3 12 50t12 68q5 12 5 17q0 13 -17 13q-7 0 -25 -5q-8 -13 -29 -33q-25 -25 -59 -51q-34 -29 -73.5 -54.5t-51.5 -21.5q-7 10 14 42q11 17 23 34q40 46 79 83q47 46 79 66q21 0 33 6t12 19q0 2 -3 11t-19 15.5t-25 11t-14 4.5
q-12 0 -32 -13q-1 0 -34 -25l-76 -76q-6 -3 -16.5 -15.5t-32.5 -45.5q-26 -48 -37 -53q-2 -1 -12 -52q-1 -3 -1 -6.5v-4.5q0 -45 53 -45q30 0 67 19t78 60q10 14 15 16q12 6 15 8q-41 -165 -82 -329q-5 -4 -10 -16t-5 -21q0 -10 7 -10q4 0 13 6z" />
    <glyph glyph-name="colon" unicode=":" horiz-adv-x="156" 
d="M115 213q10 0 20.5 5t14.5 7q8 0 21 12t13 17q0 12 -9 23q-12 14 -34 14q-11 7 -22 -5q-7 -8 -14 -15q-21 -18 -21 -31q0 -9 10 -16q4 -3 21 -11zM78 0q20 3 35 14q9 0 21 12t12 17q2 11 -9 23t-34 12q-4 4 -9 4q-6 0 -12.5 -7t-13.5 -14q-20 -19 -20 -31q0 -8 5 -13
q2 -2 25 -17z" />
    <glyph glyph-name="semicolon" unicode=";" horiz-adv-x="156" 
d="M90 213q10 0 20.5 5t14.5 7q7 0 20 12t13 17q0 12 -9 23q-12 14 -33 14q-11 7 -22 -5q-7 -8 -14 -15q-21 -18 -21 -31q0 -9 10 -16q4 -3 21 -11zM51 51l-6 -35q-3 -12 -4 -20q-5 -21 -12 -44t-7 -28q0 -6 8 -6q9 0 23 12q9 8 10 13q0 10 8.5 30t8.5 23q4 0 8.5 11.5
t10 25t14 35.5t6.5 26l-13 10q-12 2 -15 2q-13 0 -21.5 -7t-18.5 -23q-1 -3 -1 -10t1 -15z" />
    <glyph glyph-name="less" unicode="&#x3c;" horiz-adv-x="184" 
d="M141 268q-16 -16 -27 -26q-26 -24 -41 -33q-3 -7 -31 -33q-15 -14 -18 -24q-7 -11 -7 -26t9 -37t13 -32q8 -9 16.5 -22.5t13 -18.5t14.5 -5q21 0 36 11q9 6 4 11q-4 12 -24 43t-20 49q0 12 9 27q3 9 12 19q29 32 31 36q11 5 21.5 13.5t21.5 19.5q12 6 18 15t2 15
q-9 8 -21 8q-7 0 -15.5 -3.5t-16.5 -6.5z" />
    <glyph glyph-name="equal" unicode="=" 
 />
    <glyph glyph-name="greater" unicode="&#x3e;" horiz-adv-x="174" 
d="M65 21l23 24q11 6 27 20.5t20 16.5q5 8 22.5 23.5t20.5 29.5q7 13 7 31q0 27 -17.5 59.5t-36.5 49.5q-3 3 -10 3q-14 0 -29 -6.5t-14 -11.5q3 -10 26 -47q20 -33 20 -52q0 -12 -6 -24q-17 -19 -29 -32.5t-18 -24.5q-7 -1 -22 -15q-3 -3 -15.5 -13t-16.5 -13q-8 -7 -8 -12
q0 -4 6 -10t17 -6q7 0 17.5 4t15.5 6z" />
    <glyph glyph-name="question" unicode="?" horiz-adv-x="314" 
d="M45 -4q4 -22 29 -22q26 0 53.5 22.5t24.5 46.5q0 18 -17 18q-14 0 -37 -11q-14 -8 -28 -15q-7 -8 -9 -14q-5 -4 -9 -8.5t-7 -16.5zM107 381q3 -1 5 1t2 6q0 5 -3 10q-3 17 7 17q8 0 23 -12t23 -22q29 -33 29 -74q0 -30 -16 -68l-50 -116q-8 -21 15 -21t38 13
q5 5 9.5 24.5t9.5 28.5q33 51 38 61q19 34 29 68q9 26 9 49q0 46 -37 85q-31 32 -84 57q-24 12 -29 14q-25 10 -41 10q-18 0 -21 -14q-9 -23 -9 -45q0 -25 13 -44t40 -28z" />
    <glyph glyph-name="at" unicode="@" 
 />
    <glyph glyph-name="A" unicode="A" horiz-adv-x="358" 
d="M51 -45q10 20 14 35t4 30q4 2 9 20t10 38q9 13 15.5 30t12.5 35q19 -2 43 8q36 15 72 31q12 -1 32.5 5t21.5 4q1 -9 1.5 -32t0.5 -44q4 -8 4 -22q0 -13 -4 -21q1 -9 1 -25q0 -17 -1 -32t-2 -29q0 -10 8 -10q9 0 20.5 11.5t11.5 22.5q3 10 8 40t5 42q2 16 3 33q7 77 7 82
q17 9 17 22q0 11 -13 19q0 8 1 29t1 31q0 19 -1.5 27.5t-6.5 12.5q2 8 2 18v16q0 39 -8 63q-3 19 -27 29t-31 22q0 7 4 17q11 28 11 34q0 10 -8 14q-12 4 -27 -4q-20 -13 -39 -26q-3 -19 -24.5 -26.5t-26.5 -18.5q-4 -11 5 -21q4 -5 -1 -10q-15 -10 -39 -82
q-20 -60 -31 -105q-8 -11 -16 -33t-10 -24q-23 -3 -32.5 -14.5t-14.5 -36.5v-28q0 -10 11 -10q5 0 9 1q0 -7 -9 -33t-9 -41q-2 -2 -5 -13.5t-2 -19.5q-4 -10 -8 -23t-4 -24q0 -21 14 -21q8 0 21 7zM285 232q-9 0 -20 -0.5t-21 -6.5q-8 1 -12 1q-11 0 -51 -5q-16 -2 -26 -2
q-8 0 -10 2q0 8 14 36q8 16 9 22q7 12 10.5 22.5t3.5 18.5q10 17 20.5 34.5t10.5 32.5q8 11 13.5 17t10.5 6q18 -2 33.5 -25.5t16.5 -23.5q-3 -11 -3 -26q0 -12 2 -22t5 -10q-4 -3 -4 -15q0 -15 4 -24q0 -23 -1 -27z" />
    <glyph glyph-name="B" unicode="B" horiz-adv-x="385" 
d="M61 -45q2 -4 4.5 -8t7.5 -4q4 4 14 4q11 0 15 -4q0 6 4 18t4 18q22 -5 82 10.5t80 30.5q41 16 52 22q37 21 37 50q0 13 -7 27t-26 33q-18 15 -110 49q-71 26 -61 47q16 13 93 53q62 32 82 64q29 19 42 48.5t13 66.5q-6 9 -16 20q-14 14 -21 14q-11 7 -28.5 12t-36.5 5
q-8 3 -16 4t-19 1q-15 0 -23 -1l-118 -14q-85 -17 -85 -56q0 -9 2 -14l70 8q1 0 15 1.5t14 -1.5q2 -3 -8 -14t-11 -15q-20 -7 -26.5 -77t-10.5 -89q-21 -12 -41 -24q-3 -18 4 -29q24 -8 29.5 -16.5t3.5 -26.5q0 -16 -0.5 -35t-0.5 -42v-37t3 -33q-9 -1 -18 -3t-35 -34
q10 -29 47 -29zM194 154q32 -8 59.5 -23t26.5 -24q-2 -10 -11.5 -17t-37.5 -16q-9 -4 -19 -9q-24 -12 -34.5 -15.5t-35 -8.5t-30.5 -8q0 21 7 75.5t14 69.5q3 2 18 -7.5t43 -16.5zM274 373q-23 -18 -66.5 -44t-54.5 -26q-3 11 -3 21q0 16 6 33.5t12 23.5q-7 11 -7 27
q0 15 6 31.5t15 25.5q69 0 96 -11t27 -30q0 -13 -13 -30q-9 -11 -18 -21z" />
    <glyph glyph-name="C" unicode="C" horiz-adv-x="369" 
d="M90 -18q23 -8 45.5 -14t40.5 -6q8 0 18.5 1t22 4t38.5 16t32 15q2 3 15.5 14.5t19.5 19t6 15.5q0 14 -8 14q-4 0 -4 -10q-35 -18 -53 -25q-34 -14 -58 -14q-14 0 -25 4q-13 0 -31.5 14.5t-37.5 30.5q-6 21 -16 46q-19 47 -19 77q0 9 9 54q5 25 5 39q25 68 53 107
q23 33 54 54q10 7 24.5 11t32.5 4q26 0 42.5 -9t16.5 -29q0 -17 -16 -42q-14 -18 -25.5 -69t-11.5 -101q2 -1 11.5 -2.5t15.5 -1.5q22 0 34 17q8 12 17 46q9 26 21 77q8 34 8 42q2 5 2 12v11q0 34 -10 61q0 24 -20 38t-52 14q-9 -1 -14 -1q-40 0 -92.5 -33t-59.5 -55
q-16 -8 -34 -32q-11 -15 -22 -37q-35 -62 -49 -116q-10 -39 -10 -83q0 -60 23.5 -111.5t60.5 -66.5z" />
    <glyph glyph-name="D" unicode="D" horiz-adv-x="350" 
d="M92 438l2 -6q-11 -1 -20.5 -12.5t-18.5 -21.5q-10 -5 -15.5 -42.5t-10.5 -80.5q2 -15 0 -21q-7 -33 -11.5 -90.5t-9.5 -124.5q-1 -16 -2 -31q3 -8 9 -8q10 0 24 24t16 40q30 145 60 291q4 20 8.5 40.5t11.5 24.5q1 1 15 -8q39 -23 53 -29l6 -6q31 -31 46 -51
q22 -29 32 -60q0 -23 -5.5 -42.5t-9.5 -35.5l-14 -16q-23 -46 -57 -81q-25 -25 -76 -64q-35 -14 -57 -23q-43 -18 -39 -43q3 -20 30 -20q13 0 33 6q23 5 48 20q29 20 44 29q24 16 49 32q26 19 23 33q-1 6 -10 3t-14 -5q4 13 18 27q22 21 23 23q33 41 53 88.5t20 93.5
q0 41 -15 73t-50 60l-49 33q-18 14 -28.5 20.5t-47.5 24.5q-29 8 -45 10.5t-21 1.5q-9 5 -23.5 10t-25.5 5q-14 -2 -26.5 -3.5t-12.5 -7.5q-2 -7 2 -20q0 -21 2.5 -23.5t40.5 -23.5z" />
    <glyph glyph-name="E" unicode="E" horiz-adv-x="319" 
d="M187 0q15 0 46.5 19.5t44 32.5t12.5 31q0 8 -7 8q-5 0 -13 -5q-39 -23 -94.5 -32t-113.5 -9q-1 5 -1 17q0 19 7 61t7 57q4 21 16.5 29t24.5 8q23 0 66 7t65 7q19 0 29 -2q14 3 14 35q0 15 -4.5 24t-15.5 9q-10 0 -32 1.5t-25 1.5q-26 0 -38 -3.5t-24 -11.5
q-10 -3 -35 -22q-12 -9 -19 -9q0 30 13 80q5 20 22 72q7 40 32 48.5t106 8.5q9 -14 33 -14q18 0 18 17q0 3 -2 11q7 11 7 24q0 16 -9 24q-6 7 -19.5 10t-27.5 3q-15 0 -28 -1t-24 -2q-27 -5 -46 -11.5t-27 -17.5q-27 -23 -54 -45q-32 -32 -35 -61q-3 0 -12 -49
q-18 -99 -18 -117q0 -2 -7 -46.5t-10 -76.5q0 -9 -4.5 -36t-4.5 -37q0 -16 5.5 -25t20.5 -9q3 0 1.5 -8t-1.5 -12q18 -5 41 -5q60 0 120 21z" />
    <glyph glyph-name="F" unicode="F" horiz-adv-x="307" 
d="M76 422q-3 -5 -5.5 -18t-3.5 -16.5t-8 -73t-21.5 -79.5t-22 -22t-3.5 -18q2 -6 14.5 -1t14.5 3q3 -2 3 -15q-1 -21 -1 -32t-3.5 -46.5t-3.5 -53.5q0 -13 1 -19q0 -44 1.5 -66.5t10.5 -28t16 -5.5q11 0 15.5 14.5t4.5 35.5q0 3 -1 19.5t0 20.5q6 18 7 54t4 55.5t8.5 48
t19.5 32.5q25 7 50 10.5t40 3.5q6 0 17 2t14 2q9 -2 27 -7t25 -5q6 0 9 4q9 9 9 26q0 30 -19 44q-20 6 -42 6q-32 0 -66 -9t-68 -22q-2 18 8.5 54.5t12 47t3 20.5t4.5 16q12 24 34.5 41t47.5 17q16 0 33 -9q11 -4 20 -4q32 0 32 43q0 12 -3 24t-17.5 16.5t-34.5 4.5
q-28 0 -46 -4q-45 -4 -82.5 -35.5t-54.5 -75.5z" />
    <glyph glyph-name="G" unicode="G" horiz-adv-x="375" 
d="M206 21q17 15 35.5 30t29.5 19q1 -6 1 -18q0 -18 -4 -43q-9 -57 -9 -70v-11q-3 -17 -5 -31t-2 -22q0 -10 3 -16q10 0 17 6t7 18q20 6 28 20q4 19 9 38q15 58 25 95t14 44q3 14 7 37t4 36q0 10 -1 15q-7 21 -36 21q-13 0 -19.5 -7.5t-51.5 -62.5q-16 -20 -34 -39
q-19 -16 -41 -26t-43 -10q-24 0 -36 15q-15 18 -15 58q-1 14 -1.5 25t-0.5 19q0 44 8 87q6 10 13 31q19 59 22 65q10 19 27 43q13 19 30 37q22 16 32 23q18 12 34 12q15 2 28.5 -5t16.5 -20q6 -7 9 -11q8 -10 11 -19q4 -5 7.5 -39.5t19.5 -34.5q6 0 18 6q12 10 21.5 20.5
t13.5 16.5v20q-4 14 -7 24t-9 11q0 15 -8 28q-16 20 -31 40q-8 4 -24 9.5t-17 6.5q-12 4 -28 4q-48 0 -99.5 -36.5t-69.5 -79.5q-11 -9 -28.5 -41.5t-31.5 -64t-25.5 -80t-11.5 -89.5q0 -64 24 -100q29 -43 90 -43l42 14q25 10 42 25z" />
    <glyph glyph-name="H" unicode="H" horiz-adv-x="400" 
d="M86 150q0 12 10.5 25t20.5 18q9 0 19.5 2.5t21.5 7.5q22 13 60 16.5t61 5.5q0 -19 -9.5 -73.5t-17.5 -71.5q0 -28 -8 -79t-8 -77q8 -3 15 -3q6 0 15 3q7 17 12 20.5t25 86.5q3 8 23 121q7 42 24 69q1 14 3 27t2 18q14 37 20 72t6 68q12 62 12 90q0 31 -14 31
q-13 0 -41 -31q-5 -10 -14 -20.5t-15 -20.5q2 -7 2 -16v-18q0 -39 -7.5 -86.5t-12.5 -57.5q-9 -4 -24.5 -6t-31.5 -2h-15q-9 2 -13 2q-15 -5 -46.5 -6t-45.5 -5q-17 -5 -17 14q0 9 4 28q9 43 9 53q0 1 10 51q4 21 10 59q6 15 6 25q0 24 -26 24q-30 0 -50 -22
q-1 -4 -3.5 -24.5t-4.5 -45.5l-20 -168q-3 -14 -15 -35.5t-14 -27.5q4 -16 12 -32.5t11 -23.5q-4 -12 -4 -31q0 -16 3 -39q7 -54 7 -57q-1 -12 5 -20t17 -8q21 0 39 28q2 6 18 32q9 14 11 21q0 7 -4 7q-5 0 -13.5 -8t-11.5 -11q-5 3 -7 18t-2 34v26t1 23z" />
    <glyph glyph-name="I" unicode="I" horiz-adv-x="139" 
d="M26 2q3 -25 21 -25q6 0 14 3q6 10 15 15.5t10 14.5q-7 36 -7 79q0 58 15 145q12 58 16 86q-4 7 4 39t17 69q0 3 7.5 33t7.5 44q0 23 -15 23q-12 0 -29 -12q-41 0 -61 -75q-11 -47 -15 -62q2 -3 2.5 -6t1.5 -4q-1 -2 -3.5 -12t-2.5 -22q0 -9 2 -15q4 2 7.5 -7t3.5 -22
q0 -15 -5 -25q0 -36 -3 -73q-9 -110 -9 -121q0 -34 6 -70z" />
    <glyph glyph-name="J" unicode="J" horiz-adv-x="271" 
d="M120 55q-13 5 -20 18q-3 5 -10 27q1 6 9 10t8 15q0 7 -1 12q-8 14 -11 21q-7 15 -7 18q-1 2 -8.5 20t-20.5 21q-5 4 -18 4q-17 0 -19 -6q-5 -5 -5 -22q0 -43 21.5 -117.5t40.5 -91.5q7 -4 16 -4q21 3 32 4q6 4 15.5 7t18.5 5q11 9 23 50t25 85q6 24 13 50.5t17 50.5
q0 35 13 82q30 109 30 137q3 14 3 27q0 25 -7 41t-16 14q-6 -4 -16 -9.5t-21 -17.5q-14 -4 -31 -19q-13 -11 -26 -28q1 -10 18 -11t18 -9q3 -16 -4.5 -57.5t-13.5 -78.5q0 -37 -10.5 -84t-26.5 -96q0 -19 -11.5 -44.5t-17.5 -23.5z" />
    <glyph glyph-name="K" unicode="K" horiz-adv-x="367" 
d="M186 41q27 -46 61 -46q23 0 52 21q15 19 31 39q14 3 22 14t8 21q0 12 -10 12q-7 0 -20 -11t-23 -18q-20 -14 -34 -14q-20 0 -33 25q-17 22 -32 55q-41 87 -46 95q0 12 11 22q2 2 21 17q3 7 39.5 45.5t38.5 42.5q12 17 31 40q24 30 39 58q9 5 17 28t8 52q-4 10 -10 10
q-1 0 -13 -4q-22 0 -49 -18q-14 -7 -20.5 -13.5t-6.5 -11.5t8 -13q5 -5 5 -7q-4 -17 -31 -60.5t-49 -67.5q-30 -37 -47 -57q-32 -38 -60 -57q0 35 15.5 94.5t17.5 81.5q4 12 8.5 27.5t4.5 27.5q0 13 -4.5 21.5t-16.5 13.5q-29 -7 -45.5 -30.5t-16.5 -53.5q0 -4 -17 -138
q-7 -57 -5 -59q2 -6 -1.5 -14.5t-3.5 -21.5q-7 -50 -10 -78q-7 -55 -7 -81q0 -17 3 -28q4 -1 12 -2t13 -1q16 0 22 11q-3 17 -3 35q0 34 8 74q5 27 18 70q6 -5 33 -53q12 -22 18 -25q4 -7 21 -31q14 -20 28 -39z" />
    <glyph glyph-name="L" unicode="L" horiz-adv-x="236" 
d="M4 37q-2 -14 -2 -20q0 -33 25 -33q3 -4 11.5 -8t19.5 -4t33 3.5t28 3.5q14 6 34 12t37 11q14 10 25.5 17t19.5 12q-1 17 -1.5 33.5t-2.5 23.5q-7 2 -22 -9t-35 -11q-10 -6 -29 -11t-22 -6q-5 0 -19 -2t-15 -2q-10 0 -15 4.5t-5 24.5q0 30 12.5 91.5t26.5 127.5q4 6 6 22
t4.5 18.5t8 39t10.5 53.5l12 82q0 12 -5 18t-15 9q-49 -10 -70 -86l-18 -70q-5 -18 -10.5 -38t-5.5 -33q0 -23 14 -37q-9 -59 -18 -117q-12 -75 -17 -119z" />
    <glyph glyph-name="M" unicode="M" horiz-adv-x="453" 
d="M53 2q7 11 8.5 23.5t1.5 31.5q2 5 5 35t5 36t17 108q7 44 14 43q6 -3 9 -9l16 -36q13 -17 27 -27t31 -10q14 0 26 6.5t27 23.5q33 8 77 64q17 23 35 47q5 5 7.5 3t2.5 -8t-2.5 -20t-5.5 -33t-6 -45.5t-6 -29.5q-4 -19 -11 -71q-14 -101 -20 -136q12 -3 24 14.5t26 20.5
q13 62 24 112t24 96.5t26.5 93.5t13.5 63q1 7 3 22.5t2 26.5q0 22 -3.5 34t-13.5 12q-8 0 -21 -14q-12 -2 -25 -16.5t-18 -32.5l-58 -80q-11 -8 -35 -35q-40 -45 -65 -45q-18 0 -35 17q-26 30 -33.5 80.5t-7.5 116.5v26q0 37 -9 37q-2 0 -13 -6t-21 -6q-5 -7 -15.5 -13
t-21.5 -12q-7 -7 -11.5 -61t-4.5 -80q-3 -13 -7.5 -55t-4.5 -58t-4 -43q-10 -68 -10 -75q0 -12 3 -15q-7 -14 -9.5 -48t-2.5 -81q1 -4 7 -4q5 0 19 6t19 6z" />
    <glyph glyph-name="N" unicode="N" horiz-adv-x="418" 
d="M18 -16q-3 -11 -3 -19q0 -12 9 -16q3 6 12 6t12 10.5t28 93.5q20 65 26 101q10 36 22 76t17 43q6 -7 19.5 -38t21.5 -50l54 -126q40 -86 59 -83q11 1 24 8q21 11 25 12q7 10 13.5 23.5t6.5 25.5q23 91 35 230q17 205 21 233q0 28 -7 28q-4 0 -14 -9q-6 -5 -14 -12
q-32 -60 -35.5 -161.5t-5.5 -123.5q-15 -97 -17 -109q-9 -51 -14 -59q-15 6 -43 81q-18 48 -33 81q-6 24 -35 102q-17 45 -22 66q0 18 4 33q1 5 21 57q0 17 -9 17q-8 0 -27.5 -17t-21.5 -15q-2 9 -23 9q-9 0 -20 -3q-8 2 -14.5 -17t-6.5 -41q0 -8 1 -11q-5 -10 -18 -132
q-6 -57 -17 -114q-3 -6 -17 -94q-4 -29 -14 -86z" />
    <glyph glyph-name="O" unicode="O" horiz-adv-x="410" 
d="M244 33q61 56 99 114q63 96 63 195q-7 59 -43 109q-41 56 -97 65q-29 -8 -44.5 -17.5t-22.5 -19.5l-21 -12q-13 -8 -18 -16q-3 -9 -10 -9q-2 0 -3 5q1 8 1 12q14 22 14 36q0 13 -14 15l-21 -16q-26 -43 -55 -113q-25 -59 -49 -117q-10 -10 -12 -26.5t-3 -30.5q0 -9 5 -9
t15 10q3 3 9 11q2 -8 2 -12q0 -5 -3 -15t-3 -16q-4 -30 -5 -36v-22q0 -60 22 -98t69 -38q20 0 45 9t49 17q6 6 14.5 13.5t16.5 11.5zM248 94q-24 -22 -46 -34.5t-41 -12.5q-21 0 -35.5 15.5t-22.5 47t-8 62.5q0 37 10 86t20 94q26 36 37 45q22 19 70 31q51 0 81 -46
q27 -41 27 -102q0 -36 -9.5 -63.5t-25.5 -55.5q-20 -34 -57 -67z" />
    <glyph glyph-name="P" unicode="P" horiz-adv-x="358" 
d="M61 -63q14 0 29 17q10 12 22 34q-8 4 -14 14t-6 33q0 12 3 29.5t5 27.5q114 23 178 73q69 54 69 131q0 12 -3 27.5t-4 20.5q-19 82 -102 151q-72 60 -107 56q-9 7 -13 7q-7 0 -24 -17q-18 -9 -27.5 -20.5t-9.5 -32.5q5 -9 18 -27.5t17 -26.5q-25 -160 -49 -319
q-10 -6 -19 -12t-9 -12q0 -9 26 -23q1 -2 1 -11q0 -19 -1 -34.5t-2 -28.5q0 -24 4.5 -39t17.5 -18zM274 246q-11 -38 -63 -69q-43 -26 -90 -36q-1 -1 -6 1.5t-7 2.5q2 3 7 46t12 57q6 3 7 7.5t1 14.5v11q2 6 18 61q10 36 15 45q-1 8 -1 16t-2 11q-23 32 -32 45q-10 9 -10 11
q7 -1 15 -1q14 -5 28 -16q53 -39 80.5 -90.5t27.5 -116.5z" />
    <glyph glyph-name="Q" unicode="Q" horiz-adv-x="428" 
d="M260 45q4 21 28 47q55 59 60 78q27 60 41 99q22 63 22 111q0 24 -5 45.5t-17 41.5q-18 31 -46 48t-61 17q-35 0 -72 -18.5t-73 -56.5q-41 -35 -58.5 -83t-17.5 -103q0 -47 12 -89t25 -53q3 -10 23 -41q25 -39 27 -43q-2 -2 -10 -2q-30 0 -56 35q-35 46 -35 129q4 5 4 10
q0 9 -9 9t-15 -13q-12 -25 -15.5 -50.5t-3.5 -58.5q0 -58 29.5 -90.5t74.5 -32.5q40 0 76 23q5 3 38 -33q19 -20 30 -26q23 -18 52 -32l38 -18q11 -7 22 -12t22 -5q12 0 23.5 6t11.5 14q0 7 -16 19q-25 19 -30 24q-18 14 -35 28q-22 17 -39 23q-17 18 -24 26q-14 15 -21 27z
M328 221q-8 -13 -31 -59q-34 -69 -70 -88q-12 4 -26 25t-29 44q-23 48 -33 79q-13 41 -13 79q0 50 28 105q35 50 93 50q35 0 62.5 -23.5t34.5 -67.5q1 -10 2 -18.5t1 -24.5q0 -29 -3.5 -51t-15.5 -50z" />
    <glyph glyph-name="R" unicode="R" horiz-adv-x="375" 
d="M63 -27q9 0 21 80q6 42 12 58q28 -15 53 -34q21 -16 23 -18q79 -55 182 -104q10 -9 19 -9q13 0 13 21q0 18 -10 33.5t-26 15.5q-14 19 -29 19q-16 15 -48.5 40t-49.5 36q-29 23 -48 41q-32 31 -36 49q-5 15 53 36q39 14 51 23q36 20 70 42q45 30 48 40.5t6.5 26t3.5 25.5
q0 14 -2.5 23.5t-10.5 20.5q-19 15 -51 36t-49 30q-31 14 -64 20.5t-59 6.5q-13 0 -21 -2q-36 -9 -48.5 -34t-12.5 -63q0 -9 1 -28.5t1 -28.5v-44.5t1 -49.5v-19q0 -30 -3 -41q-3 -4 -10.5 -9.5t-16.5 -10.5q-6 -11 -6 -19q0 -12 9.5 -22t13.5 -14q1 -3 1 -13q0 -17 -3 -47
q-7 -71 -7 -74q-2 -15 5.5 -26.5t23.5 -12.5zM274 332l-72 -50q-46 -29 -81 -34q0 25 3 50t17 63q2 12 2 17q0 28 -20 28q-13 0 -27 -15q-10 3 -10 19q2 18 2 24q6 13 21.5 15t23.5 2q24 -4 53 -9t37 -8q29 -12 48 -25q27 -19 27 -39q0 -18 -24 -38z" />
    <glyph glyph-name="S" unicode="S" horiz-adv-x="262" 
d="M55 -45q16 0 37 9q15 8 27.5 14t18.5 10q12 7 20 16q18 9 30.5 18t24.5 23q1 1 8 10.5t14 12.5q9 9 19.5 15t11.5 7q5 9 0 18t-14 9q0 32 -15 59q-10 17 -41 54q-13 8 -20 20q-11 20 -19 35q-17 15 -26.5 29t-13 26t-3.5 24q0 28 19 52.5t49 40.5q4 3 6.5 0.5t-2.5 -10.5
q-10 -7 -19.5 -13.5t-9.5 -17.5q3 -12 12 -12t34 16q14 9 20.5 11.5t20.5 14.5q34 30 40.5 33t6.5 34q0 13 -5.5 23t-19.5 10q-7 0 -20 -5q-35 -12 -51 -19q-26 -11 -42 -24q-47 -30 -81 -70q-42 -49 -42 -93q0 -39 33 -71q0 -6 53 -61q31 -32 52 -57q11 -13 15 -22.5
t4 -18.5q0 -16 -15 -21q-9 -7 -6 -20q-9 -12 -18.5 -21.5t-22.5 -11.5q-3 3 3 7q10 7 21 15q6 7 -0.5 13t-15.5 2q-37 -18 -74 -35q-45 -24 -49 -43q2 -15 18 -24q5 -3 27 -11z" />
    <glyph glyph-name="T" unicode="T" horiz-adv-x="279" 
d="M145 -23q3 5 11.5 9t11.5 10q2 21 3 41.5t1 71.5q6 23 10.5 53.5t9.5 66.5q8 25 19 85.5t16 101.5q-1 14 -5 20.5t-24 26.5q3 9 27 9q11 -1 16 -1q15 -3 32.5 -5.5t19.5 -2.5q3 -2 5 3t2 11q0 8 -1 11q1 18 1 26q0 12 -7 19q-7 0 -23 4t-24 4h-6q-4 -2 -5 -2q-16 2 -24 2
q-13 0 -39 -3t-38 -3q-6 0 -20 2q-26 -3 -46.5 -6t-27.5 -19q-4 -4 -9 -19.5t-5 -27.5q-4 -9 -4 -17q0 -12 15 -12q9 0 26.5 6t38.5 13q3 0 10 2q18 5 26 5q13 0 13 -9q0 -13 -4 -44t-4 -54q-6 -12 -13 -98q-3 -37 -5.5 -64t-2.5 -33q0 -7 1 -22t1 -25q-2 -6 -3 -13t-1 -13
q0 -13 4 -21v-23t2 -27q0 -23 3 -32.5t16 -6.5z" />
    <glyph glyph-name="U" unicode="U" horiz-adv-x="367" 
d="M22 145q-2 -12 2 -40t11 -48q16 -35 26 -49q17 -22 35 -18q43 0 77 36q19 20 52 74q3 3 5.5 2.5t2.5 -10.5t-4 -40t-4 -40q3 -4 3 -14v-5.5t-1 -4.5q0 -22 14 -22q8 0 22 8.5t26 15.5q0 3 10 16q5 7 5 11q0 7 -13 12q0 68 20 153t41 172.5t21 151.5q-2 13 -3 26
q-3 14 -11 14q-7 0 -19 -9q-19 -11 -19 -17q-5 -5 -8 -19t-2 -24q-10 -9 -19 -43q-3 -11 -7 -34q-7 -30 -13 -58.5t-6 -36.5q-10 -19 -27.5 -90t-44.5 -96q-18 -37 -27.5 -46.5t-31.5 -9.5q-20 6 -32 27.5t-17 50.5q-3 0 -8 35t-5 57q0 11 1.5 13.5t1.5 7v7.5
q0 11 -0.5 20.5t-0.5 17.5q0 10 3.5 23t5.5 20q0 8 5 38t5 47q0 19 -5.5 33t-15 18.5t-16 19.5t-12.5 12q-14 -4 -20.5 -37t-6.5 -84q-4 -7 -6 -27t-2 -44q0 -28 2 -54t4 -34q-2 -15 -3 -29q0 -8 3 -17q-1 -11 -1 -17q0 -15 7 -22z" />
    <glyph glyph-name="V" unicode="V" horiz-adv-x="314" 
d="M157 4q1 5 17 18.5t16 25.5q0 7 -4 15q29 43 57 115q23 60 46 121q20 45 20 64q6 4 15 43q6 27 6 38q0 25 -13 25q-5 0 -16 -6q-31 -9 -41 -42q-6 -20 -6 -64q-13 -45 -41 -107q-43 -94 -47 -105q-17 -43 -28 -43q-6 0 -12.5 29t-13.5 37q1 14 1 20q0 13 -7 19
q0 12 -1.5 26.5t-2.5 32.5q-4 16 -5 33t-1 40v35v35q-3 15 -4 21q3 13 7 40t4 44q0 27 -7 35q-3 9 -13 9q-8 0 -21.5 -6t-27.5 -13q-8 -11 -16 -34.5t-8 -48.5q0 -19 6 -40q0 -9 -0.5 -18t-0.5 -18q0 -21 1.5 -30t7.5 -10q0 -41 3 -66t9 -32q0 -19 4 -44.5t9 -31.5
q0 -16 5.5 -36.5t12.5 -24.5q5 -28 6.5 -35.5t16.5 -42.5q-15 -15 -15 -30q0 -12 8 -18t22 -6q11 0 19 3q19 7 33 28z" />
    <glyph glyph-name="W" unicode="W" horiz-adv-x="453" 
d="M137 18q12 9 25.5 38t13.5 44q16 41 25.5 60.5t15.5 19.5q8 0 8 -37q4 -40 6 -66t9 -38q3 -18 10.5 -22t15.5 -4q6 0 18.5 3t22.5 5q27 23 58 105q26 66 32 104q8 13 18 49t21 82q15 75 15 127q1 3 1 6.5v4.5q0 13 -5 15q-20 -10 -29.5 -29.5t-9.5 -43.5q-3 -15 -22 -89
q-11 -41 -21 -81q-13 -24 -22 -46q-5 -12 -9 -24q0 -5 -10 -34t-19 -48q-2 -8 -6 -14.5t-7 -6.5q-7 0 -7 31v27v18.5t2 20.5q-4 20 -4 46q0 43 18 128q11 54 13 65.5t2 15v4.5q0 21 -20 21q-15 0 -32 -11t-22 -25q-6 -12 -12.5 -51t-8.5 -46q-5 -11 -12 -39q-19 -73 -23 -84
q-6 -8 -17 -36q-24 -62 -30 -72q-8 -18 -15 -18q-10 0 -14.5 56t-8 66t-4.5 32.5t-1 38.5v19q0 32 -4 39q0 5 4.5 34t3.5 32q-3 8 -3 20q0 13 2.5 38.5t2.5 29.5q0 23 -10 31l-6 12q-9 17 -29 20q-17 4 -28 -21.5t-11 -66.5q-7 -20 -10.5 -50.5t-3.5 -69.5q0 -20 1 -33.5
t3 -28.5q12 -5 16.5 -20t4.5 -27q0 -16 11 -86.5t21 -75.5q-4 -8 -4 -17q0 -10 5 -25q16 -47 16 -48q6 -10 23 -10q14 0 25 9t11 27z" />
    <glyph glyph-name="X" unicode="X" horiz-adv-x="375" 
d="M32 10q-6 -4 -10 -17.5t-4 -25.5q0 -22 8 -22q7 -3 35 46q16 29 27 36q3 8 21.5 39t25.5 49q2 2 13 18.5t16 18.5q5 0 9 -7q8 -16 17 -32q17 -30 23 -38.5t16 -17.5q5 -12 19 -27q20 -21 39 -24q10 0 19 2t9 13q0 5 -4.5 12t-13.5 16q-13 22 -28 48q-18 33 -28 55
q-9 10 -18 30.5t-9 34.5q0 8 3 13q8 12 78 99q90 112 90 191q-11 27 -23 27q-8 0 -20 -12q-28 -20 -40 -29q-28 -22 -36 -33q-11 -8 -11 -21q0 -19 21 -13q6 6 11 6q0 -5 -12 -25q-25 -41 -33 -55q-2 -7 -22.5 -34t-29.5 -46q-6 -1 -10 21t-6 26q-7 5 -17 55t-10 68
q7 8 7 25q0 15 -5.5 28t-15.5 21q-3 14 -15 14q-6 0 -15 -4.5t-19 -15.5q-12 -23 -18.5 -40t-6.5 -32q0 -12 2.5 -20t9.5 -19q0 -13 5 -28t10 -29q0 -28 18 -71q6 -15 33 -67q3 -12 -9 -31q-15 -23 -30 -45q-12 -26 -46 -81q-22 -36 -20 -50z" />
    <glyph glyph-name="Y" unicode="Y" horiz-adv-x="332" 
d="M53 -14q1 -9 10 -12l21 -7q23 4 31 12q28 6 28 25q1 3 -2.5 7t-3.5 9q-1 11 4 34t11 51q15 21 27 53.5t18 48.5q13 19 26 39q7 13 27 45t20 35q3 2 9 17t6 20q14 23 24 57.5t17 97.5q-7 14 -16 14q-13 0 -33.5 -34.5t-40.5 -69.5q-8 -19 -24.5 -52.5t-18.5 -45.5
q-22 -48 -37 -78.5t-23 -32.5q-10 12 -16.5 43t-13 64t-9.5 52t-3 37v12t5 34q2 25 -9 37t-29 12q-14 0 -28.5 -8.5t-21.5 -21.5q0 -25 2.5 -43.5t7.5 -20.5q-1 -5 -1 -17q0 -36 13 -89q0 -1 19 -68q7 -12 18 -37q20 -45 37 -53q0 -18 -14 -49.5t-16 -45.5q-9 -13 -15 -33.5
t-6 -37.5z" />
    <glyph glyph-name="Z" unicode="Z" horiz-adv-x="335" 
d="M74 -25q59 10 89 16q56 11 81 36q13 3 24 6t19 12q34 9 49 23q9 9 9 25q0 9 -3.5 14.5t-9.5 1.5q-25 -10 -49 -19q-17 -10 -51.5 -18t-69.5 -15q-9 2 -17 4q-5 0 -12 -4q-15 1 -29 2q0 18 21.5 41.5t21.5 30.5q11 11 22 23q16 19 23 37q13 12 19 18q11 11 12 16
q27 31 38 44q19 22 30 45q29 20 48.5 53.5t19.5 66.5q0 22 -8.5 40t-28.5 34q-22 6 -49 16q-53 19 -84 19q-9 0 -25 -2q-5 1 -8 2q-15 4 -25 4q-19 0 -33.5 -9t-17.5 -32q-6 -3 -10 -13.5t-4 -21.5q0 -12 8 -12q5 1 17 1q7 0 25.5 -1t27.5 -1q21 0 28 3q1 -1 50.5 -9
t56.5 -26q4 -16 -40 -84q-17 -26 -34 -51q-5 -7 -32.5 -42t-31.5 -42q-4 -3 -24.5 -28.5t-40.5 -49.5q-21 -21 -35.5 -41t-24.5 -39q-3 -4 -5.5 -14t-2.5 -20q0 -18 10.5 -29.5t37.5 -11.5q12 0 18 1z" />
    <glyph glyph-name="bracketleft" unicode="[" horiz-adv-x="254" 
d="M170 -51q1 5 7.5 21t0.5 20q-3 1 -10 1q-9 0 -30.5 -5.5t-30.5 -6.5q-11 2 -23.5 3t-18.5 4q-4 4 -4 16q0 13 5 32.5t10 35.5q-5 5 8 86l14 82q11 44 24 140q6 41 11 63q4 36 36 47q18 6 63 6q11 5 16.5 14.5t5.5 19.5q0 9 -4 13q-13 5 -27 5q-17 0 -42.5 -7.5
t-32.5 -9.5q-16 0 -36 -11t-28 -32q-20 -56 -33 -163.5t-22 -146.5q0 -19 -10.5 -114.5t-10.5 -106.5q6 -12 24 -17.5t45 -5.5q59 0 93 17z" />
    <glyph glyph-name="backslash" unicode="\" 
 />
    <glyph glyph-name="bracketright" unicode="]" horiz-adv-x="254" 
d="M121 -51q55 8 71 67q10 52 33 224q11 85 21 135q6 22 9 62t7 86q-8 11 -20 16q-18 8 -46 8q-29 0 -88 -12q-8 -1 -14.5 -14.5t-9.5 -26.5q7 -7 11 -7q8 0 18 1.5t47 11.5q11 -2 27.5 -4t17.5 -8q0 -34 -7 -77.5t-18 -90.5q0 -44 -12 -102q-29 -139 -29 -173
q-4 -9 -7.5 -20t-6.5 -21q-10 -10 -27.5 -16.5t-36.5 -6.5q-12 0 -24 3q-24 -8 -24 -29q0 -8 5 -18q9 -4 26 -4q22 0 42 4.5t35 11.5z" />
    <glyph glyph-name="asciicircum" unicode="^" 
 />
    <glyph glyph-name="underscore" unicode="_" horiz-adv-x="383" 
d="M4 -57v-37h377v37h-377z" />
    <glyph glyph-name="grave" unicode="`" horiz-adv-x="184" 
d="M102 385q-38 22 -61 60q-16 6 -35 -11q-1 -4 -2 -11.5t2 -8.5q4 -4 6.5 -9.5t5.5 -11.5q4 -1 41 -23q17 -10 23 -11q11 -7 32.5 -15t45.5 -16q6 3 9 5q9 6 9 11q-27 12 -44.5 20t-31.5 21z" />
    <glyph glyph-name="a" unicode="a" horiz-adv-x="318" 
d="M2 76q11 -6 11 -13q0 -4 -5 -16v-23q2 -8 12 -12q4 -11 20 -11q15 0 26 11q9 0 18 7q4 3 25 26q12 6 45 38q18 18 32 26q0 -24 11 -45q15 -29 41 -29q4 0 14 2q12 -4 31 9q14 9 18 11q1 3 8.5 9.5t8.5 9.5q-2 8 -2 11q0 1 2 11q-1 16 -1.5 20t-2.5 3q-12 -14 -19 -16
q-9 -8 -20 -8q-26 0 -26 33q0 9 5 24q-4 17 -6 25q-5 15 -19 10q-11 1 -32.5 -15t-26.5 -26q-33 -20 -41 -37q-3 -1 -19 -13t-24 -12q6 14 9.5 20.5t21.5 26.5q11 13 19 19t16 15t12 17q13 3 35.5 25.5t30.5 38.5q16 8 24 17t12 20q-10 17 -27 17q-12 0 -22.5 -5t-50.5 -33
q-6 -7 -60 -47q-38 -29 -51 -55q-25 -21 -33 -27q-13 -11 -14 -18z" />
    <glyph glyph-name="b" unicode="b" horiz-adv-x="287" 
d="M180 33q5 12 12 24q14 22 15 25q6 14 12 29q11 20 15 31.5t4 20.5t-5.5 12.5t-14.5 3.5q-12 -1 -19 -1t-10 2q-8 -4 -26.5 -24t-22.5 -29q-8 -9 -12.5 -23.5t-4.5 -31.5q1 -2 10.5 -6.5t9.5 -10.5q0 -7 -8 -16q-31 -15 -39 -12q-11 17 -15 34t-4 37q0 26 7.5 49t18.5 35
q40 63 75 143q29 67 58 152q1 11 1 19q0 21 -5 34.5t-19 8.5q-10 5 -34 -8.5t-27 -14.5q-2 -6 -12.5 -17.5t-10.5 -16.5q-17 -26 -31.5 -62t-27.5 -70q-13 -50 -21.5 -83t-7.5 -44q-5 -20 -8.5 -34.5t-7.5 -47.5q0 -5 -7.5 -12.5l-15.5 -15.5q-3 -24 -3.5 -36t1.5 -13
t9.5 7.5t9.5 8.5q1 -29 4 -49q11 -73 53 -73q6 0 10 1q19 4 51 31.5t43 42.5zM201 49q-4 -7 -7 -12t-3 -8q0 -5 4 -8q10 0 16 4q15 11 21 14q4 4 33 24q20 13 20 33q-5 12 -7 19t-7 6q-10 -18 -32 -39q-2 -2 -38 -33zM119 281q-3 -12 -12 -25t-11 -18q8 47 28 97q9 23 44 91
q3 3 6 -0.5t-6 -17.5q-14 -19 -25.5 -64.5t-23.5 -62.5z" />
    <glyph glyph-name="c" unicode="c" horiz-adv-x="273" 
d="M16 125q-13 -7 -13 -19t1 -22q-1 -6 -1 -13q4 0 9 1.5t11 3.5q3 -17 5.5 -30t8.5 -25l22 -17q20 -15 48 -15t61 16q22 11 55 34q13 7 26 18q18 16 22 27q0 3 -1.5 13t1.5 14q-9 11 -11 11.5t-4 -5.5q0 -13 -52 -45q-18 -11 -38 -21q-9 -4 -26 -4q-18 0 -30 6t-12 19
q-2 6 -2 18q0 31 39 58q47 33 49 36q28 14 40 26q16 16 16 35q0 11 -6 25q-19 3 -43 -10q-16 -9 -27 -20q-25 -12 -68 -45.5t-43 -42.5q-13 -4 -30 -20z" />
    <glyph glyph-name="d" unicode="d" horiz-adv-x="368" 
d="M74 2q26 13 63 58q16 20 33 40q6 13 14 25q13 19 21 16q2 -1 3 -14t7 -22q5 -28 25.5 -43.5t48.5 -15.5q46 0 74 34q6 20 6 33q0 8 -1.5 10.5t-6.5 -0.5q-12 -8 -25.5 -12t-22.5 -4q-19 0 -28 12q-23 32 -23 76q0 32 11 65q13 18 16 39q4 5 8 15t6 16q11 16 15 27t4 30
q8 14 13 26q11 24 11 38q10 20 10 42q1 9 1 13q0 27 -16 27q-12 0 -26 -15t-22 -36q-8 -12 -18 -31q-5 -9 -25 -53q-12 -37 -17 -55q-11 -35 -18 -42q-9 0 -16 -4l-21 -14q-37 -35 -42 -40q-14 -15 -21 -24q-15 -5 -45 -41q-11 -13 -21 -26q-11 -7 -21 -15q-15 -13 -20 -16
q-4 -7 -4 -12q3 -11 4 -15q-8 -8 -8 -20q4 -7 9 -2q15 12 20 10q-6 -18 -11.5 -36t-5.5 -27q0 -18 9 -22.5t23 -4.5q20 0 30 10zM166 158q-29 -38 -40 -50q-29 -34 -38 -34q-7 11 27.5 62.5t48.5 60.5q6 13 17.5 24t23.5 19v-12q-2 -7 -2 -15q-17 -27 -23.5 -36t-13.5 -19z
" />
    <glyph glyph-name="e" unicode="e" horiz-adv-x="231" 
d="M24 29q16 -13 29.5 -18t29.5 -5q29 0 71 24q60 34 70 38q5 8 5 37q2 4 2 9q-8 -2 -15 -3q-19 -13 -20 -13q-13 -8 -21 -14q-26 -16 -66 -16q-19 0 -30 6.5t-11 22.5q0 7 3 16q9 6 13 9q8 6 13 13q25 12 51.5 43.5t24.5 40.5q10 4 10 25q0 24 -10 29q-7 9 -15.5 12
t-19.5 3q-10 0 -20 -4t-12 -9q-11 -6 -25 -18t-23 -23q-7 -3 -16 -17.5t-17 -29.5t-17 -37.5t-9 -30.5q0 -45 12 -67q6 -12 13 -23zM116 217q9 -5 -2 -20.5t-17 -18.5q-5 -14 -22 -14q-6 -1 -5.5 3t7.5 17q9 12 20.5 22.5t18.5 10.5z" />
    <glyph glyph-name="f" unicode="f" horiz-adv-x="219" 
d="M121 -217q20 18 40 64q15 35 27 79q0 5 9.5 37t9.5 41q0 2 2.5 12t2.5 13q0 8 -5 12q0 1 1 12t1 18q0 12 -4 15q-17 0 -17 -16q-4 -2 -7 -12q-6 -26 -9 -40q-5 -13 -11.5 -35t-8.5 -36q-14 -38 -25 -58l-8 -8q-5 12 -7 26.5t-2 26.5q0 14 1 22.5t2 14.5q-1 12 -1 24
q0 69 7.5 139.5t25.5 88.5q17 24 32 65q9 26 22 73q8 35 11 55q7 37 7 61q0 30 -10 50q1 7 0 13q-4 15 -21 15q-31 0 -51 -55q-11 -25 -30 -85t-25 -75q-4 -33 -5.5 -58.5t-1.5 -31.5v-20.5t1 -18.5q-14 -29 -41 -64q-21 -25 -31 -38q1 -7 1 -20q0 -12 -3 -21l24 10
q24 22 27 22q2 -4 2 -14q0 -6 -1 -20.5t-1 -20.5q0 -63 2 -120.5t13 -88.5q10 -54 42 -54q8 0 13 1zM170 387q0 -23 -13 -58t-22 -40q-4 -17 -7 -17t-3 24v13q5 7 5 24q0 7 -1 11q8 11 17.5 53t25.5 54q3 1 4 -1t1 -8q0 -11 -2.5 -27t-4.5 -28z" />
    <glyph glyph-name="g" unicode="g" horiz-adv-x="277" 
d="M197 -156q0 8 9 25t9 32q0 3 -3 20.5t-7 28.5q-7 20 -20 40q-4 5 15 21q6 5 22 16q7 6 34 25q20 14 27 24v27q0 8 -0.5 15.5t-3.5 6.5q-4 -1 -12.5 -10.5t-16.5 -14.5q-33 -23 -47 -33q-25 -18 -45 -36q-14 15 -21 30.5t-14 32.5q-1 7 -1 18q0 14 3.5 24.5t5.5 17.5
q9 5 20.5 14t31.5 31q43 28 67 63q9 5 12 9.5t5 25.5q0 29 -24 29q-15 0 -38 -17q-8 -2 -18.5 -10.5t-10.5 -13.5q-19 -11 -47 -37q-33 -30 -35 -43l-12 -18q-14 -19 -22 -23q-5 -9 -29.5 -27.5t-28.5 -25.5l4 -25q-3 -17 -2 -18q24 16 49 32q0 -43 25 -81t25 -44l-45 -42
q-29 -28 -39.5 -44t-19 -41t-8.5 -44q0 -27 17 -31q5 -17 32 -17q19 0 43 8t36 15q16 5 32 18q21 16 46 47zM138 -145q-23 -23 -39 -34q-23 -16 -48 -20q-20 -2 -20 17q0 8 6 14q0 10 21.5 37t29.5 37q7 1 22 19t21 18q7 -6 13.5 -19.5t6.5 -30.5q0 -21 -13 -38z" />
    <glyph glyph-name="h" unicode="h" horiz-adv-x="297" 
d="M148 82q8 0 17 -12q13 -17 15 -19q12 -12 34 -12q28 0 52.5 16t24.5 39q3 12 3 20q0 9 -4 9t-13 -10q-20 -9 -30 -9q-13 0 -26 13q-4 8 -12.5 39t-17.5 33q-13 0 -27 -4.5t-18 -14.5q-7 -8 -16 -27q-13 -28 -25 -55q-10 -19 -20 -33q-7 -5 -13 -10q-3 2 -3 12
q0 18 4.5 44t8.5 49q27 23 55 61q41 57 82 115q21 40 34.5 67.5t16.5 40.5q7 8 11 18.5t4 20.5q5 12 7.5 21.5t2.5 15.5q0 9 -2 13q-6 12 -25 12q-3 7 -11 7q-15 0 -44 -25q-24 -21 -47 -50q-25 -25 -47.5 -62t-34.5 -73q-27 -37 -42 -95l-22 -100q-16 -16 -20 -22l-2 -49
q5 0 10 6l4 4v-27q0 -34 7 -53t32 -19q5 0 15 2q10 8 24 24t27 34q-1 4 7 15zM156 297q-26 -31 -51 -61q-3 9 8 34q26 61 26 64q6 3 12.5 13.5t6.5 19.5q42 57 60 81q12 8 24 17q0 -15 -7 -32q-3 -8 -32 -60q-10 -21 -15 -30q-9 -17 -14 -17q-3 -8 -7 -15t-11 -14z" />
    <glyph glyph-name="i" unicode="i" horiz-adv-x="234" 
d="M98 330q-1 -7 8.5 -8.5t24.5 -1.5q17 8 29.5 19.5t15.5 29.5q4 6 8 20.5t4 21.5q0 17 -12 17q-10 3 -27.5 -6t-17.5 -18q-15 -4 -27.5 -20.5t-12.5 -32.5q0 -13 7 -21zM4 66q3 0 9 7t12 9q11 15 23 25q16 13 22 8q7 -6 10 -17.5t10 -17.5q0 -11 11 -25.5t34 -27.5
q10 -2 15 -2q21 0 46 17q19 13 35 32l2 49q-6 -2 -15 -9.5t-13 -15.5q-1 0 -12 -5t-17 -5q-9 0 -15.5 7.5t-11.5 27.5q-4 25 -5.5 40t-4.5 26q-9 12 -18.5 17.5t-26.5 4.5q-5 -4 -8 -7t-8 -11q-9 -4 -22 -20t-15 -23q-8 -3 -18 -14q-16 -18 -17 -19l-4 -40v-6q2 -4 2 -5z
" />
    <glyph glyph-name="j" unicode="j" horiz-adv-x="236" 
d="M225 412q5 17 7.5 27.5t1.5 21.5q-3 9 -16 9q-10 0 -21 -6t-17 -17q-18 -11 -30 -24.5t-12 -30.5q0 -11 8 -25q10 -6 32 -6q22 12 32.5 22t14.5 29zM0 64q12 6 29 25q4 4 34 38q25 29 36 29q8 0 9.5 -16t2.5 -31q-6 -48 -10 -83t-11 -46q-19 -22 -49 -78q-34 -63 -31 -86
q-12 -12 -12 -37q0 -35 27 -35q16 0 25 9t20 38q17 25 36 95.5t42 97.5q27 22 51 50q21 23 43 54l-6 23q5 14 0 18q-7 0 -15.5 -15t-10.5 -18t-28 -27q-10 -10 -18 -14q-2 0 -3.5 1.5l-2.5 2.5q10 57 15 86q9 54 9 91v17q-2 12 -2 17q-4 4 -11.5 7t-10.5 3q-14 0 -29 -19
q-23 -29 -25 -31q-16 -21 -39.5 -46.5t-44.5 -48.5q-13 -9 -17 -18.5t-4 -23.5q1 -18 1 -29z" />
    <glyph glyph-name="k" unicode="k" horiz-adv-x="314" 
d="M74 -31q13 0 25 16q19 24 20 25q14 16 22 28t17 25q5 9 11 9q9 0 32.5 -21t36.5 -24q21 0 44 20q27 23 27 53q0 5 -2 15q-3 6 -8 4q-21 -24 -37 -24q-17 0 -30 24q-6 4 -11.5 11t-5.5 15q0 11 10 25q2 4 29 49q22 36 22 57q0 14 -7 21.5t-13 7.5q-10 0 -16.5 -16
t-10.5 -29q-4 -8 -30 -52q-11 -19 -17 -32q-34 -4 -37 -28.5t-4 -36.5l-34 -62q-4 -4 -7 -2.5t-3 9.5q0 15 10 42q0 7 14 60t14 65l64 173q6 11 11 29t5 32q0 20 -7.5 33.5t-23.5 17.5q-10 3 -21.5 -22.5t-16.5 -48.5t-16 -45.5t-18 -49.5t-23 -64q-48 -108 -50 -114
q-19 -26 -26 -36q-11 -17 -11 -40q1 -2 -4 -20q15 0 31.5 27.5t27.5 27.5q0 -12 -4.5 -33.5t-1.5 -26.5q-4 -9 -7 -22.5t-3 -28.5q0 -21 7.5 -34t25.5 -9z" />
    <glyph glyph-name="l" unicode="l" horiz-adv-x="251" 
d="M257 68v53q-13 -7 -22 -11.5t-21 -13.5q-25 -16 -48 -16q-27 0 -44.5 22.5t-17.5 57.5q58 78 94 155q42 88 53 173v18q0 21 -4 30q-7 15 -25 13q-16 4 -43 -27q-21 -24 -34 -49q-41 -84 -63 -151q-25 -78 -34 -158q-22 -25 -25 -28q-12 -13 -20 -19q-1 -13 -1 -21
q0 -10 1 -14l-2 -10q9 4 19 9q24 22 30 24q7 -41 30 -64q20 -20 46 -20q6 -3 15 -3q20 0 46.5 12t43.5 25q5 2 13.5 5.5t12.5 7.5zM140 279q-6 -16 -16 -29.5t-16 -13.5q-1 7 3 19q15 43 15 44q10 9 19.5 37t21.5 62q8 9 13 14q10 10 16 10q-2 -4 -4 -15.5t-4 -23.5
q-6 -6 -12 -30t-9 -27z" />
    <glyph glyph-name="m" unicode="m" horiz-adv-x="513" 
d="M72 2q3 0 9 8q16 20 22 23q12 19 39 47q35 35 36 37q39 34 49 34q6 0 6 -10q0 -13 -7 -37q-7 -33 -17 -63t-10 -37q6 -15 17 -15t24 13q9 9 45 49q20 23 23 25q7 5 21 19q10 10 18 12q18 0 38 -24q26 -30 33 -34q18 -11 35 -11q19 0 35 13q8 7 22 23q0 7 -0.5 14.5
t-0.5 14.5q0 11 1 20q-5 0 -18 -13t-22 -13q-8 0 -15 8.5t-13 18.5t-11 17q-11 41 -38 41q-22 0 -54 -26q-15 -12 -46 -43q0 19 5 42q12 56 12 70q0 32 -21 32q-24 0 -61 -42q-16 -14 -32 -32.5t-34 -30.5q-11 -11 -16 -11q0 11 1 22q8 31 9 44q2 11 -1 23t-18 12
q-10 0 -30 -12q-7 -3 -21 -18q-17 -19 -24 -26q-33 -37 -66 -73l2 -45q9 3 35.5 36t36.5 29q7 -3 -3 -35l-26 -84q0 -8 6 -12t13 -4q8 0 12 4z" />
    <glyph glyph-name="n" unicode="n" horiz-adv-x="373" 
d="M99 -16l72 84q17 12 36 30q15 14 20 14q8 0 18 -18q10 -7 22 -28q17 -29 19 -31q10 -7 21 -7q18 0 38 17l31 31q-2 5 -3 18t-1 27q-5 -1 -14.5 -12.5t-16.5 -11.5q-5 0 -10 3q-13 8 -24.5 34.5t-20.5 49.5q-12 6 -25 6q-31 0 -71 -43q-18 -20 -35 -40q-7 -7 -13 -16.5
t-8 -8.5q-4 6 4 30.5t15 45.5q5 8 9.5 23t4.5 29q0 12 -4 20q-8 21 -24 21q-8 0 -19 -5.5l-19 -9.5q-12 -14 -36 -38q-42 -42 -56 -69q-9 -6 -9 -24q1 -16 1 -23q-2 -8 -2 -10q0 -6 4.5 -4.5t11.5 12.5q5 5 17 19q18 20 24.5 28.5t16.5 8.5q8 0 8 -9q0 -6 -6 -18
q-2 -11 -8.5 -33.5t-4.5 -26.5q-1 -2 -7.5 -18t-6.5 -25q0 -2 2 -10q-3 -16 0 -19q6 -3 22 -3q23 0 27 10z" />
    <glyph glyph-name="o" unicode="o" horiz-adv-x="321" 
d="M72 10q4 -8 16 -11q12 -1 25 -3q38 0 66 21q29 28 42 40q4 7 12 15.5t11 11.5q1 5 6 13q18 28 20 32q9 19 9 45q0 23 -7 45q-17 24 -45 24q-20 0 -43 -13q-4 3 1.5 12t5.5 12q0 5 -5 6q-13 2 -21 2h-6q-4 -2 -5 -2q-32 -33 -64 -65q-7 -3 -42 -37q-22 -21 -46 -45v-13
q4 -2 2 -15t0 -17q3 0 28 24q12 12 21 12q0 -4 -3.5 -25.5t-3.5 -32.5q0 -14 5.5 -23.5t20.5 -12.5zM211 102q-8 -11 -12 -15q-11 -13 -27 -23q-22 -19 -40 -19q-23 0 -19 31q0 26 24 57q10 0 19 11l18 22q12 8 23 8t18.5 -11.5t7.5 -26.5q0 -22 -12 -34zM242 21q3 0 13 6
q29 20 30 20q17 11 26 18q17 13 17 29q-8 23 -12 23q-3 0 -10 -7t-13 -12q-7 -14 -19 -23.5t-16 -15.5q-7 -5 -14 -15.5t-7 -16.5q0 -5 5 -6z" />
    <glyph glyph-name="p" unicode="p" horiz-adv-x="307" 
d="M51 -201q7 10 8 13q6 13 6 28q14 27 23 70q8 20 16.5 41.5t12.5 42.5q5 9 13 27t18 44.5t20 26.5q5 0 13 -8l16 -16q24 -25 46 -25q16 0 36 12q5 3 26 17q2 10 2 33q0 12 -2 12q-4 2 -10 -3q-18 -15 -27 -15q-8 0 -14.5 3.5t-15.5 14.5q-7 20 -23 39q-20 23 -37 23
q-19 0 -30 -25q-20 -32 -40 -87q-13 -35 -30 -90q-5 -10 -10 -31q-9 -38 -15 -40q6 36 19 86q35 129 36.5 136t15.5 55q10 35 23 47q2 15 4 23t10 25.5t8 32.5q0 30 -13 33q-5 0 -11 -7.5t-12 -14.5q-28 -64 -55 -110q-34 -57 -74 -97q0 -19 -4 -23q2 -3 2 -10q0 -12 2 -14
q7 -1 15 12.5t18 15.5q0 -39 -21 -177q-10 -66 -10 -108q-1 -4 -1 -10q0 -27 21 -27q19 0 25 25z" />
    <glyph glyph-name="q" unicode="q" horiz-adv-x="262" 
d="M-2 61q16 13 22 13q-5 -14 -8.5 -25.5t-3.5 -21.5q0 -5 2 -9q11 -24 38 -24q16 0 31.5 9t25.5 24q6 3 12 6.5t26 22.5t27.5 24.5t9.5 -2.5q1 -4 1 -16q0 -18 -3.5 -40t-5.5 -38q-5 -30 -11.5 -78.5t-6.5 -57.5l-17 -80q-1 -4 -1 -10q0 -15 13 -15q14 0 25 11q5 10 9 24.5
t6 26.5q5 9 10 35t10 41q22 83 30 122q15 72 15 124q0 17 -8.5 27.5t-21.5 10.5q-10 0 -17 -7q-24 -18 -48 -37q-33 -27 -38 -35q-8 -3 -18 -8.5t-19 -9.5q-5 11 10 26q0 8 18 27q23 23 46 47q3 3 22 15.5t29 23.5q15 8 24 14t9 13q-1 1 -13 15q-6 7 -16 7q-9 0 -32 -11.5
t-27.5 -14t-30.5 -19.5q-11 -7 -14 -14q-16 -8 -35 -22.5t-33 -28.5q-15 -11 -29 -21t-14 -18q3 -12 3 -24q0 -13 -3 -22z" />
    <glyph glyph-name="r" unicode="r" horiz-adv-x="259" 
d="M0 74v-6q11 6 25 30q14 13 23 23t9 14q37 40 48 40q8 0 14 -13q8 -13 8 -31q0 -17 -5.5 -41.5t-10.5 -44.5q-5 -8 -9.5 -19t-4.5 -20q0 -24 32 -24q8 -1 27 11q25 16 31 17q8 6 37 30q20 17 24 17q-1 5 5.5 17.5t6.5 19.5t-2 10q2 13 -4 13q-3 0 -6 -6q-8 -10 -36 -32
t-32 -22q-6 -3 -8.5 -2.5t-2.5 4.5q0 5 11 37t11 49q3 32 -18 68q-24 40 -56 43q-12 4 -27 -6q-6 -4 -22 -20q-12 -4 -12 -13q3 -11 4 -18q-6 -3 -13 -14.5t-8 -12.5q-5 -10 -17.5 -28t-23.5 -33q-1 -3 -1 -6.5v-4.5q0 -9 1 -15t2 -11z" />
    <glyph glyph-name="s" unicode="s" horiz-adv-x="236" 
d="M0 68q5 2 23 20q47 48 61 58q8 4 17.5 13.5t13.5 9.5q6 0 10 -9q1 -8 1 -13q0 -16 -1 -24.5t-6 -50.5q-2 -5 -3 -6t-2 -1q-2 0 -6 7t-8 6q-6 0 -18.5 -8t-12.5 -21q0 -6 3 -12q0 -23 2.5 -38.5t11.5 -27.5q0 -15 11 -15q5 0 14.5 4.5t17.5 8.5q6 10 23 19q39 29 58 45
q36 29 36 58q0 4 -2 14q0 16 -5 16q-3 0 -11 -11q-4 -6 -13 -20q-18 -16 -30.5 -27t-18.5 -10q-3 8 7 36q5 14 11 28l14 76q0 7 -1 10q7 10 7 22q0 17 -11.5 31.5t-27.5 14.5q-10 0 -21 -9q-22 -25 -33 -38q-22 -25 -37 -33q-14 -20 -38 -44t-28 -24q-11 -4 -11 -17
q2 -19 3 -38z" />
    <glyph glyph-name="t" unicode="t" horiz-adv-x="244" 
d="M78 20q-1 -5 -1 -13q0 -25 13 -25q7 -2 12 -6t11 -9q10 0 37 25q21 20 30 29q30 16 45 42t15 58q-3 6 -9 0q-12 -11 -24 -19q-16 -17 -23 -23q-17 -16 -34 -22q-3 -1 -4 2t-1 10q0 17 2.5 31.5t8.5 45.5q0 29 14 69t27 76q2 2 18 5t16 9v20.5t3 28.5q0 4 -6.5 6.5
t-4.5 10.5q3 9 6.5 21t3.5 23t-5 17t-17 6q-13 -4 -36 -53q-11 -22 -25 -22q-3 0 -11 2q-3 -2 -13 -2q-26 2 -39 2q-7 0 -17 -2q-16 2 -23 2q-37 0 -37 -37q0 -5 1.5 -13.5t10.5 -12t21 -5.5q3 3 17 1.5t18 -1.5h14.5t15.5 1q15 0 20 -1.5t1 -7.5q-28 -49 -33 -58
q-13 -21 -22 -30q-9 -20 -35 -50q-22 -25 -37 -38q-1 -5 -1 -15q0 -12 1 -20.5t2 -14.5q31 27 58 57q14 16 36 44q0 -13 -5 -38.5t-9 -49.5q-3 -7 -4.5 -23.5t-1.5 -32.5z" />
    <glyph glyph-name="u" unicode="u" horiz-adv-x="347" 
d="M74 4q14 -6 27 -6q32 0 66 35q18 19 46 61q5 -5 11 -10q16 -45 53 -45q19 0 33.5 8t29.5 17q13 3 13 34q0 12 -1.5 18.5t-3.5 6.5q-2 -1 -17.5 -13t-24.5 -12t-14.5 8.5t-8.5 30.5q1 9 1 15q0 15 -6 26t-22 11q-17 0 -33.5 -24t-31.5 -46q-21 -25 -41 -49
q-4 -1 -13.5 -8.5t-11.5 -4.5q-6 9 -6 32q0 39 12 75q0 9 10.5 38.5t10.5 39.5q0 8 -3.5 11.5t-9.5 3.5q-7 0 -17 -5t-19 -12q-21 -34 -42 -62q-29 -38 -51 -57q-7 -5 -10 -15.5t-3 -21.5q0 -20 5 -20t21 16l20 22q4 -9 9 -18q4 -67 22 -80z" />
    <glyph glyph-name="v" unicode="v" horiz-adv-x="281" 
d="M63 47q-3 -9 -3 -17q0 -21 12 -39t28 -18q23 0 30 10q5 11 11 21q10 6 24 28q17 30 35 60q-1 3 12 23t13 35q8 10 13 26q2 9 5 29q8 11 10 20t8 39q0 11 -12 11q-17 0 -25 -21q-23 -63 -45 -125q-17 -28 -32.5 -53t-22.5 -25q-6 0 -9 17t-3 34v12.5t1 16.5q0 21 -3 45
q2 11 2 23v18q0 18 -1.5 26t-6.5 9q-9 1 -22 -10t-15 -17q-9 -25 -33 -63q-27 -40 -35 -53q0 -14 0.5 -26.5t5.5 -14.5q3 2 22.5 25.5t26.5 23.5q0 -18 1 -42.5t8 -27.5zM233 43q30 19 35 23q19 15 18 28q-3 3 -6 16t-6 13q-4 0 -14 -13q-6 -8 -11 -10q-3 -6 -28 -31.5
t-27 -33.5q-2 -6 -1 -10t6 -4q3 0 9 2z" />
    <glyph glyph-name="w" unicode="w" horiz-adv-x="397" 
d="M58 94q0 -7 5.5 -39t5.5 -35l8 -34q0 -31 22 -31q13 0 23 11t12 30q6 8 12 17t7 22q10 10 22 40q6 15 10 19q3 1 4 -2t1 -8q-2 -8 -3 -15.5t-1 -18.5q0 -28 10 -60q12 -13 25 -13q9 0 16.5 4.5t17.5 14.5q38 42 70 103t45 116q4 10 7.5 23.5t3.5 24.5q0 24 -15 34
q-11 -3 -16.5 -15t-10.5 -52q-4 -7 -14 -38q-3 -9 -11 -36q-3 -4 -35 -61q-21 -38 -30 -34q-5 5 -5 29q0 20 1.5 39.5t3.5 44.5q3 6 4.5 17t1.5 22q8 2 8 18q0 12 -6 20t-18 5q-13 -4 -24 -20q-6 -8 -23 -43q-1 -7 -6.5 -17t-14.5 -22q-10 -32 -18 -37q-9 -18 -12 -25
q-6 -13 -11 -12q-7 0 -7.5 23t-0.5 32q0 15 -1 27.5t-2 25.5q1 7 1 11q1 9 2.5 17t1.5 15q0 17 -18 17q-11 -1 -22 -11q-10 -12 -19 -24q-5 -18 -17 -37q-17 -23 -33 -45q-10 -10 -11.5 -19.5t-1.5 -15.5q0 -7 -1 -10q1 -2 0 -10t4 -8q2 0 12 13q5 6 17 15q16 19 22 19
q3 0 3.5 -5.5t-1.5 -15.5zM356 51q26 16 29 18q15 12 12 25q-1 10 -3 19.5t-6 9.5q-2 0 -9 -9.5t-23 -19.5q-26 -28 -41 -45t-9 -26q5 -7 23.5 5.5t26.5 22.5z" />
    <glyph glyph-name="x" unicode="x" horiz-adv-x="305" 
d="M194 191q-14 -20 -26 -34q-17 -20 -27 -24q-5 0 -11.5 14.5t-3.5 26.5q3 7 14 15q16 12 27 24q11 4 19.5 12t11.5 11q13 0 13 -11q0 -8 -4 -15.5t-13 -18.5zM59 4q30 16 51 45q4 -1 18 -15q3 -3 20 -18t36 -15q18 0 41 13q20 13 30 19q9 2 18.5 9.5t33.5 31.5v31v16
q-2 3 -5 0q-9 -11 -12 -12q-14 -23 -37 -35q-12 0 -18 -6q-21 -7 -32 -7q-23 0 -40 27q-3 7 33 40q20 18 24 26q11 12 21 23.5t22 29.5q14 17 14 39q0 20 -11 35.5t-26 15.5q-7 0 -17 -7t-17 -14q-32 -29 -43 -38q-30 -24 -40 -31h-13q-1 3 -9 30q-4 13 -7.5 18t-9.5 5
q-10 0 -21.5 -10.5t-14.5 -26.5q-2 -5 -2 -13q0 -9 4 -20q9 -26 9 -28q0 -5 -3 -10q-11 -11 -34 -23q-18 -9 -21 -18q-3 -24 -3 -35t4 -11q5 0 16 15q6 3 26 23t29 26q4 -1 14 -23t11 -28q-6 -10 -37 -38t-35 -34q-4 -7 3 -9.5t13 -2.5q3 0 10 5q2 1 7 5z" />
    <glyph glyph-name="y" unicode="y" horiz-adv-x="354" 
d="M177 86q1 8 15 18q12 7 24 15q6 -1 0.5 -29.5t-4.5 -36.5q-8 -11 -19.5 -40.5t-13.5 -35.5q-10 -7 -27 -26.5t-32 -40.5q-9 -6 -24 -27t-19 -29q-4 0 -10.5 -13t-12.5 -15q-11 -16 -17 -25q-13 -18 -9 -30q4 -7 19 -7q14 0 30.5 7.5t27 20.5t19.5 24q5 2 12.5 13.5
t12.5 14.5q14 29 37 61q18 24 26 34q18 39 67 80q66 55 71 61q2 3 0 17t0 24q-5 7 -26.5 -13.5t-25.5 -21.5q-5 -5 -15.5 -17t-12.5 -12l4 28q15 42 30 85q5 14 9.5 28t4.5 22q0 7 -5 10q-35 0 -65 -29t-58 -56q-11 -6 -29 -28q-31 -20 -37 -29q-12 -4 -12 12q14 45 28 91
q2 16 -7.5 22t-20.5 4q-10 -2 -27 -20t-33 -35q-5 -6 -36 -35q-15 -14 -17 -18q1 -13 1 -20q0 -10 -3 -21l2 -5q6 3 24 20t21 17q4 0 5 -19t3 -22q-2 -16 -2 -22q0 -13 9 -17.5t19 -4.5q28 0 52 36q13 1 26 13q15 16 21 22z" />
    <glyph glyph-name="z" unicode="z" horiz-adv-x="271" 
d="M4 111q-2 -3 -3 -19.5t-1 -19.5q-1 -1 0 -2.5t2 -1.5q6 -1 14 6.5t13 19.5q9 6 10 7q5 5 18 20l41 41q6 6 12 6q10 0 20 -15.5t13 -29.5q0 -10 -12 -30t-12 -27q-17 -14 -17 -49q0 -28 11 -52q-8 -8 -25.5 -32.5t-22.5 -26.5q-1 -2 -31 -46q-13 -19 -14 -22
q-7 -11 -10 -23.5t-3 -22.5q1 -18 1 -28q2 -5 14.5 -11t28.5 -6q11 0 25 3q56 30 87 65q38 43 38 94q0 19 -6 40q-3 3 -5 7q-6 12 -12 23q0 10 20 27q14 12 21 21q17 15 35 31q10 9 14 18v41l-4 6q-7 -4 -32 -37l-37 -35q-5 -12 -19.5 -24.5t-21.5 -5.5q-2 6 -2 17
q0 14 12 32t14 24q22 32 22 64q0 15 -6 30.5t-14 26.5q-7 15 -20.5 24.5t-28.5 9.5q-24 0 -35 -28q-9 -8 -43 -48.5t-49 -61.5zM141 -137q-17 -27 -33 -44q-27 -28 -47 -28q-4 0 -10 2q-6 5 -0.5 19.5t10.5 27.5q6 8 12 17t11 14q10 19 24 37t23 18q7 -4 8.5 -22t1.5 -41z
" />
    <glyph glyph-name="braceleft" unicode="{" horiz-adv-x="244" 
d="M230 500l6 47h-56q-46 0 -70 -38q-18 -29 -24 -81q0 -62 -14 -103q-20 -60 -68 -65l-6 -41q19 0 32 -13q19 -19 19 -60q-2 -18 -10 -63t-8 -75q0 -37 21 -58q18 -18 42 -18h58l6 47q-17 -1 -27 -1q-18 0 -25.5 3.5t-10.5 10.5t-3 17q0 6 2 20t2 24q5 29 8.5 54t3.5 48
q0 32 -10 53t-35 30q32 16 51 39q27 33 27 84v21q0 50 7 76q11 42 43 42h39z" />
    <glyph glyph-name="bar" unicode="|" 
 />
    <glyph glyph-name="braceright" unicode="}" horiz-adv-x="244" 
d="M4 -21l-6 -47h53q23 0 44 11t34 30q7 13 25 144q13 96 76 102l6 41q-22 0 -35 20.5t-13 51.5q0 21 5 49q12 66 12 92q0 35 -20.5 54.5t-43.5 19.5h-57l-8 -45h12q25 0 35.5 -2t17.5 -16q3 -11 3 -21q0 -7 -1.5 -18t-2 -19.5t-7.5 -48t-7 -58.5q0 -31 10 -51t38 -28
q-55 -22 -75 -96q-6 -23 -17 -128q-4 -12 -7 -18q-12 -19 -34 -19h-37z" />
    <glyph glyph-name="asciitilde" unicode="~" 
 />
    <glyph glyph-name="quotesinglbase" unicode="&#x201a;" horiz-adv-x="418" 
d="M62 142q-2 -12 2 -40t11 -48q16 -35 26 -49q17 -22 35 -18q43 0 77 36q19 20 52 74q3 3 5.5 2.5t2.5 -10.5t-4 -40t-4 -40q3 -4 3 -14v-5.5t-1 -4.5q0 -22 14 -22q8 0 22 8.5t26 15.5q0 3 10 16q5 7 5 11q0 7 -13 12q0 68 20 153t41 172.5t21 151.5q-2 13 -3 26
q-3 14 -11 14q-7 0 -19 -9q-19 -11 -19 -17q-5 -5 -8 -19t-2 -24q-10 -9 -19 -43q-3 -11 -7 -34q-7 -30 -13 -58.5t-6 -36.5q-10 -19 -27.5 -90t-44.5 -96q-18 -37 -27.5 -46.5t-31.5 -9.5q-20 6 -32 27.5t-17 50.5q-3 0 -8 35t-5 57q0 11 1.5 13.5t1.5 7v7.5
q0 11 -0.5 20.5t-0.5 17.5q0 10 3.5 23t5.5 20q0 8 5 38t5 47q0 19 -5.5 33t-15 18.5t-16 19.5t-12.5 12q-14 -4 -20.5 -37t-6.5 -84q-4 -7 -6 -27t-2 -44q0 -28 2 -54t4 -34q-2 -15 -3 -29q0 -8 3 -17q-1 -11 -1 -17q0 -15 7 -22zM240 604q-15 -11 -43 -21.5t-34 -17.5
q0 -5 7 -10t11 -5q28 9 47.5 15.5t30.5 15.5q8 1 32.5 15t31.5 16q7 12 10.5 19t3.5 14q0 6 -2 10q-19 19 -35 12q-12 -21 -26 -35q-8 -9 -34 -28z" />
    <glyph glyph-name="florin" unicode="&#x192;" horiz-adv-x="428" 
d="M125 -213q11 14 26 36t27 38q-3 12 10 38.5t13 33.5q0 6 -4 10q17 58 35 151q6 22 16.5 59t13.5 52l45 8q9 0 17.5 1.5t20 3.5t22.5 25q7 15 16 23q-45 0 -61 -8q-5 3 -18 3q-17 -1 -27 -1q0 5 5.5 19.5t6.5 23.5q4 9 15 49t18 70q5 12 15.5 22.5t23.5 10.5t26 -17
q1 -12 10 -12t18 12t9 27q0 28 -7.5 44.5t-26.5 16.5q-10 0 -25 -6q-6 2 -12 2q-26 0 -52 -18t-22 -39q-12 -17 -21 -42.5t-14 -57.5q-7 -20 -15.5 -64t-11.5 -47q-9 -5 -16.5 -6.5t-12.5 -1.5q-21 2 -34 2q-6 3 -12 -11q-12 -25 -9 -48q4 0 27.5 3.5t30.5 2.5q5 2 8 0t2 -6
q-12 -40 -29 -108.5t-22 -98t-23 -74.5q-21 -53 -37 -62q-19 -3 -31 -8q-10 3 -15.5 16t-8.5 15q-5 1 -13 -4t-16 -11v-12q0 -16 -4 -31q1 -2 2 -19.5t13.5 -19.5t14.5 -2q7 0 13 3q5 -3 15 -3q7 0 14 1l14 2q12 7 21.5 10.5t15.5 3.5z" />
    <glyph glyph-name="quotedblbase" unicode="&#x201e;" horiz-adv-x="219" 
d="M39 129l-27 -117l-2 -14q0 -6 8 -6q4 -1 18.5 9.5t14.5 16.5q2 15 10 33q24 54 26.5 57.5t9.5 21.5q14 38 12 40q-7 3 -16 7t-19 4q-15 0 -31 -13q-2 -20 -4 -39zM149 127q-3 -4 -4.5 -23.5t-5.5 -33.5l-18 -58q-3 -11 -3 -15q0 -5 7 -5q7 -2 19.5 7t15.5 19
q-1 9 9.5 29.5t10.5 22.5q5 5 9 16t9.5 25.5t8.5 23.5q7 18 7 28q0 21 -26 21q-16 0 -36 -16q-3 -5 -3 -15v-26z" />
    <glyph glyph-name="ellipsis" unicode="&#x2026;" horiz-adv-x="613" 
d="M75 0q10 2 15 4t20 10q31 6 31 29q0 14 -11.5 24.5t-30.5 10.5q-4 4 -8 4q-8 0 -15.5 -8.5t-12.5 -14.5q-10 -3 -14.5 -7.5t-4.5 -11.5q0 -10 11 -23q8 -9 20 -17zM327 0q20 3 35 14q10 3 21 13q6 6 13 16q0 16 -14 25.5t-31 9.5q-7 9 -20 -2q-8 -8 -16 -15
q-19 -15 -19 -27q0 -9 8 -17t23 -17zM577 0q10 1 17.5 4t19.5 10q19 4 32 29q0 12 -9 22q-12 13 -34 13q-4 4 -9 4q-8 0 -15.5 -7.5t-12.5 -12t-11.5 -16t-6.5 -19.5q-3 -10 29 -27z" />
    <glyph glyph-name="circumflex" unicode="&#x2c6;" horiz-adv-x="209" 
d="M61 332q16 0 40 20q31 26 38 29q4 0 21 -11q12 -7 16 -11q15 -2 36.5 -14t26.5 -12q7 0 7 13q0 19 -15 33q-6 6 -55 31q-12 12 -24 12q-7 0 -19.5 -6t-21.5 -8q-28 -21 -45.5 -35t-17.5 -25q0 -9 13 -16z" />
    <glyph glyph-name="guilsinglleft" unicode="&#x2039;" horiz-adv-x="184" 
d="M141 268q-16 -16 -27 -26q-26 -24 -41 -33q-3 -7 -31 -33q-15 -14 -18 -24q-7 -11 -7 -26t9 -37t13 -32q8 -9 16.5 -22.5t13 -18.5t14.5 -5q21 0 36 11q9 6 4 11q-4 12 -24 43t-20 49q0 12 9 27q3 9 12 19q29 32 31 36q11 5 21.5 13.5t21.5 19.5q12 6 18 15t2 15
q-9 8 -21 8q-7 0 -15.5 -3.5t-16.5 -6.5z" />
    <glyph glyph-name="OE" unicode="&#x152;" horiz-adv-x="631" 
d="M492 -8q17 4 53.5 24.5t46.5 30.5t10 22q0 17 -15 17q-9 0 -18 -12q-12 0 -25 -5q-41 -16 -61.5 -18.5t-49 -4t-64.5 -1.5q0 92 18.5 133t56.5 41q18 0 56.5 5.5t51.5 5.5q16 0 38 -5q13 7 13 34t-15 32q-11 6 -35 6q-5 0 -11 -0.5t-16 -3.5q-12 2 -18 2
q-11 0 -18.5 -2.5t-18.5 -9.5q-15 0 -35.5 -14.5t-27.5 -14.5q0 31 10 70.5t24 79.5q0 11 7 18q3 15 13.5 23.5t27.5 7.5q21 10 58 10q27 0 46 -8q8 -8 21 -8q18 0 17 9t0 18.5t1 17.5q0 21 -10 32t-39 11q-12 3 -28 3q-31 0 -58.5 -8.5t-38.5 -25.5q-16 -8 -33 -25
q-43 -42 -47 -45q-10 7 -40 42q-23 27 -50 32q-14 8 -21 8t-18 -10q-16 0 -23.5 -4t-32.5 -23q-7 -2 -13 -7q-16 -17 -32 -33v20q5 8 7 12q6 13 6 23q0 13 -13 16q-1 -1 -15 -12t-17 -23q-9 -5 -22.5 -42.5t-23.5 -75.5q-13 -17 -14 -19t-4 -12q-5 -7 -7 -16t-11 -25
q-1 -4 -17 -33q-12 -22 -12 -36q0 -3 2 -11q4 -6 14 -6q6 3 9 18q2 -1 5 -2q3 -11 3 -24q-3 -1 -4 -4.5t-2 -6.5q0 -25 -1 -43t-2 -33q0 -36 8 -62.5t31 -41.5q18 -9 31.5 -13.5t27.5 -4.5q25 0 68 22q16 2 56 34t67 67q0 -14 -1 -22q-5 -42 -5 -44q0 -19 6.5 -29t24.5 -10
q-7 -7 -7 -13q0 -3 3 -8q21 -6 47 -6q24 0 49.5 4.5t55.5 14.5zM279 129q-22 -33 -55 -57.5t-63 -24.5q-19 0 -32 10.5t-21 36.5q-11 34 -11 84t10 105q5 30 18 76q30 36 59 53t54 17q34 0 62 -29q25 -26 38 -66q5 -17 5 -37q0 -46 -19.5 -98t-44.5 -70z" />
    <glyph glyph-name="c141" horiz-adv-x="604" 
d="M36 -53q25 0 36 29q6 23 13 45l21 67q9 12 12.5 26t7.5 29q11 -2 62 19q34 14 55 18q20 0 33.5 6t20.5 3q2 -8 2 -25q0 -10 -1 -41.5t-1 -50.5q1 -5 1 -11v-12q0 -10 -1 -28t-1 -25q0 -21 7 -21q8 -2 21 11q8 8 9 14l2 -2q0 -24 10 -24q7 0 19 3q42 0 79 8.5t71 28.5
q18 5 29 12t21.5 14.5t16.5 17.5t6 19q0 13 -10 13t-22 -12q-98 -33 -199 -33q-1 4 -1 13q0 14 3.5 30.5t5.5 28.5q0 26 7 55.5t16 34.5q32 11 64 15.5t85 9.5q6 0 19 -2t17 -2q10 0 11 6q3 7 4.5 19.5t1.5 23.5q-5 17 -15 19.5t-27 2.5q-11 -4 -43 -4.5t-50 -9.5
q-15 2 -33.5 -14.5t-27.5 -14.5q-1 6 -1 13v11q0 11 1 23.5t4 26.5q4 4 15 45t20 47q6 25 24.5 29.5t34.5 8t42 3.5q34 0 48 -10q10 -2 21 -4q16 0 14 28q3 6 5.5 15t2.5 15q0 13 -9 21t-29 8q-8 0 -13 -1q-11 4 -21 4q-4 0 -22 -4q-25 0 -53.5 -9t-32.5 -20
q-51 -41 -61 -52q-31 -34 -31 -73q-4 14 -6.5 36.5t-4.5 34.5t-21 23q-25 14 -28 19q8 21 12 34t4 18q0 11 -7.5 14t-10.5 3q-11 0 -30 -16t-27 -18q-4 -10 -6 -14.5t-13 -12.5q-11 1 -22 -6.5t-11 -16.5q0 -5 3 -10q10 -10 2 -18q-10 -8 -24.5 -46t-18.5 -61
q-8 -22 -13.5 -39t-11.5 -39q-9 -13 -16.5 -32.5t-9.5 -24.5q-23 0 -34.5 -16t-11.5 -35q0 -7 1 -10q-5 -12 -5 -18q0 -11 12 -11q3 0 9 2q0 -7 -8 -35t-8 -41q-6 -10 -13.5 -39.5t-7.5 -40.5q0 -18 10 -18zM297 232q-23 -2 -41 -7q-16 0 -50 -3t-51 -3q0 8 3 17.5t11 17.5
q4 14 11.5 29t15.5 26q1 5 20 46q9 19 9 30q9 14 12 19q9 14 18 14q27 0 39 -44q7 -26 7 -65q-3 -12 -3 -25q1 -22 1 -33q0 -13 -2 -19z" />
    <glyph glyph-name="quoteleft" unicode="&#x2018;" horiz-adv-x="111" 
d="M33 336q15 5 20 7q11 5 15 9q2 8 3.5 16.5t1.5 13.5q0 7 -1 11q6 9 6 35q2 9 16 55q10 34 10 40q-2 5 -9 5t-15 -5t-17 -17q0 -13 -5 -22q-15 -27 -17 -35q-14 -13 -24 -44q-5 -14 -13 -50q1 -5 12 -10.5z" />
    <glyph glyph-name="quoteright" unicode="&#x2019;" horiz-adv-x="174" 
d="M129 361q6 23 18 50q32 71 35 81q2 3 3.5 6.5t1.5 7.5q0 8 -7.5 13t-22.5 8q-16 -5 -25.5 -8.5t-12.5 -8.5q0 -5 -1 -17.5t-1 -17.5l-6 -46q-7 -37 -23 -79q-3 -7 -1 -10.5t7 -3.5q9 0 21.5 8.5t13.5 16.5z" />
    <glyph glyph-name="quotedblleft" unicode="&#x201c;" horiz-adv-x="219" 
d="M192 393q2 0 4 12t2 19t6 28q17 59 17 60q4 15 -10 15q-17 0 -33 -30t-16 -48q-5 -1 -16 -28.5t-17 -51.5q-6 -14 -6 -16q0 -4 8 -7q6 -4 9 -5q11 -6 13 -5q15 3 23 10q3 3 16 19q3 5 3 12q0 6 -0.5 9.5t-2.5 6.5zM82 393q2 0 4 12t2 19q0 4 7 28q16 56 17 60
q4 15 -10 15q-17 0 -33 -30.5t-16 -47.5q-5 -1 -16 -31q-7 -18 -17 -49q-2 -8 -2 -11q0 -21 23 -21q13 0 25 7.5t16 20.5q3 5 3 12q0 6 -0.5 9.5t-2.5 6.5z" />
    <glyph glyph-name="quotedblright" unicode="&#x201d;" horiz-adv-x="219" 
d="M37 475q-3 0 -4.5 -11t-1.5 -23q0 -10 -13 -55q-5 -16 -10 -31q-4 -17 12 -17q15 0 31 30.5t16 47.5q5 1 21 44q10 26 14 38t4 14q0 5 -7.5 8.5t-10.5 4.5q-11 5 -12 4q-27 -10 -39 -29q-3 -5 -3 -11t0.5 -8.5t2.5 -5.5zM147 475q-3 0 -4.5 -11t-1.5 -23q0 -9 -8.5 -36.5
t-15.5 -49.5q-1 -3 -1 -6v-4q0 -7 11 -7q15 0 32 30.5t17 47.5q4 1 16 31q9 24 19 49q4 14 4 16q0 5 -8 8q-6 4 -9 5q-10 5 -12 4q-29 -10 -39 -29q-3 -5 -3 -11t0.5 -8.5t2.5 -5.5z" />
    <glyph glyph-name="bullet" unicode="&#x2022;" horiz-adv-x="279" 
d="M141 121q58 0 98 41t40 98q0 53 -41 93t-97 40q-57 0 -97 -38t-40 -95q0 -58 39.5 -98.5t97.5 -40.5z" />
    <glyph glyph-name="endash" unicode="&#x2013;" horiz-adv-x="385" 
d="M12 143q1 -7 41 -7q27 0 78.5 2.5t56.5 2.5q12 2 28 2q15 0 52.5 -1t40.5 -1q13 -2 24.5 -3.5t23.5 -1.5q23 0 32 9v46q-3 6 -12 6l-361 2q-7 -6 -7 -22q0 -10 1 -18.5t2 -15.5z" />
    <glyph glyph-name="emdash" unicode="&#x2014;" horiz-adv-x="762" 
d="M756 197q-33 0 -127.5 -1t-138.5 -1q-82 0 -271.5 2t-202.5 2q-7 0 -7 -16q0 -5 2 -11.5t-0.5 -18.5t3.5 -12q23 -4 48 -4q16 0 48 3t52 3q99 0 198.5 -0.5t199.5 -1t200 -0.5q2 9 3 16t1 18q0 21 -8 22z" />
    <glyph glyph-name="tilde" unicode="&#x2dc;" horiz-adv-x="254" 
d="M67 363q23 14 34 14t12 -12l6 -22q4 -8 15 -8q10 0 36 9q13 0 41 8.5t39 20.5q6 12 6 21q0 7 -7 7q-8 0 -21 -6.5l-19 -9.5q-15 -7 -24 -10.5t-14 -3.5q-11 0 -11 14l2 13q-4 10 -11.5 14.5t-17.5 4.5q-11 0 -21 -5q-20 -4 -38.5 -11t-38.5 -20q-16 -5 -21 -16
q-2 -10 -2 -15q0 -10 14 -6q11 8 18.5 12t22.5 7z" />
    <glyph glyph-name="trademark" unicode="&#x2122;" horiz-adv-x="656" 
d="M4 529v-47h96v-265h54v265h96v47h-246zM303 527v-308h54v256l102 -256h35l102 256v-256h54v308h-84l-89 -230l-90 230h-84z" />
    <glyph glyph-name="guilsinglright" unicode="&#x203a;" horiz-adv-x="174" 
d="M65 21l23 24q11 6 27 20.5t20 16.5q5 8 22.5 23.5t20.5 29.5q7 13 7 31q0 27 -17.5 59.5t-36.5 49.5q-3 3 -10 3q-14 0 -29 -6.5t-14 -11.5q3 -10 26 -47q20 -33 20 -52q0 -12 -6 -24q-17 -19 -29 -32.5t-18 -24.5q-7 -1 -22 -15q-3 -3 -15.5 -13t-16.5 -13q-8 -7 -8 -12
q0 -4 6 -10t17 -6q7 0 17.5 4t15.5 6z" />
    <glyph glyph-name="nonbreakingspace" unicode="&#xa0;" horiz-adv-x="500" 
 />
    <glyph glyph-name="exclamdown" unicode="&#xa1;" 
 />
    <glyph glyph-name="cent" unicode="&#xa2;" horiz-adv-x="244" 
d="M10 105q0 -29 29 -46q24 -14 55 -14q0 -5 -0.5 -11.5t-0.5 -13.5q0 -19 6 -19q4 0 12 9q3 3 4 18t2 19q26 0 64.5 27t54.5 51q6 7 6 14t-8 7q-16 -8 -27.5 -13t-20.5 -4q-19 -14 -31.5 -19.5t-31.5 -5.5l2 48q3 13 8 37t6 26q13 7 23 21q16 7 32 18q21 14 27 25q3 8 3 24
q0 22 -9 21q-2 2 -11 1t-13 -5q-6 0 -15 -6q-10 -3 -15.5 -5.5t-14.5 -11.5q-5 3 6 39l-2 12l-33 -6q-4 -12 -4 -26q-3 -3 -4.5 -19t-1.5 -27q-21 -15 -37.5 -29t-20.5 -22l-28 -28q-19 -24 -19 -48q8 -14 8 -38zM105 189q0 -7 -1 -18t-1 -12q0 -9 2 -11q-3 -6 -4 -22
t-1 -22q-26 12 -26 37q0 33 31 48z" />
    <glyph glyph-name="sterling" unicode="&#xa3;" horiz-adv-x="402" 
d="M96 -4q2 1 11.5 10.5t17.5 9.5q26 -16 41 -24q27 -14 39.5 -15t21 -2.5t18.5 -1.5q35 0 63 21q32 25 73 90q1 14 6 29q1 5 11 30l-20 -8q-18 -19 -26 -39l-45 -45q-27 -24 -49 -24q-55 0 -92 39q-2 14 6 33t8 28q4 6 13 49q4 20 10 31q13 5 40.5 9.5t74.5 8.5
q14 10 28 21q18 17 8 27q-20 0 -55.5 -3t-79.5 -6q9 49 25 117q12 51 13 56.5t5 5.5t6 -7q1 -19 1.5 -41.5t0.5 -44.5v-20q0 -15 2.5 -20t14.5 -1q12 8 25 19t13 18q0 4 -4 9.5t-8 11.5q-1 9 -2 19t-1 23q0 17 3 40q-4 42 -13 60.5t-23 18.5q-15 0 -33 -18q-17 -6 -23 -13.5
t-6 -21.5l-18 -56q-7 -27 -7 -46q-6 -9 -14.5 -43.5t-15.5 -73.5q-21 -8 -38 -8q-16 0 -16 8q-15 0 -28 -2.5t-27 -11.5q-9 -14 -13 -25.5t-4 -20.5t5 -12q8 0 14 1q25 4 35 4q12 4 24.5 6t32.5 2l-8 -58q-9 -6 -12.5 -21.5t-9.5 -15.5q-12 0 -41 21.5t-45 21.5
q-7 3 -15 -11.5t-14 -26.5q0 -13 14 -33q19 -28 39 -56q2 0 22 -14q10 -7 21 -8z" />
    <glyph glyph-name="currency" unicode="&#xa4;" 
 />
    <glyph glyph-name="yen" unicode="&#xa5;" horiz-adv-x="385" 
d="M124 -12q2 -8 9.5 -11.5t29.5 -3.5q28 13 29 13q16 9 16 20q0 7 -8 15q0 16 8 43t13 32q9 5 54 8.5t54 8.5q21 16 27 22q16 16 10 25q-4 1 -23.5 -1.5t-33.5 -2.5q-19 -7 -37 -10t-37 -3q8 39 23 62q12 4 56 9t67 28q9 9 9 18q0 6 -9 8q-7 -3 -27.5 -5t-22.5 -3
q-12 -6 -22.5 -8.5t-20.5 -2.5q-8 0 -10 1q26 34 52 69q52 72 63 130q7 12 7 32q-1 18 -1 31q-4 5 -8.5 11t-9.5 6q-18 -18 -40 -64q-28 -59 -38 -74q-5 -12 -31 -57q-14 -24 -21 -41q-11 -1 -22 -21q-15 -26 -21 -30q-20 0 -29 37q-5 26 -10 53q-7 23 -9 38.5t-2 32.5
q0 21 1 40t2 37q0 4 -9 14t-19 14q-5 0 -21 -8q-1 -1 -11 -1q-8 0 -15 -5.5t-11 -22.5q0 -23 1.5 -35.5t6.5 -23.5q0 -24 8 -50.5t17 -52.5q6 -9 24 -40t21 -39q-6 -2 -17 -2q-9 0 -23 1.5t-15 1.5q-5 0 -17 -2q-27 -21 -27 -42q0 -12 15 -9q9 0 43 6t50 6q9 0 12 -1
q3 0 3 -10t-1.5 -19t-5.5 -25q-16 -6 -31 -8t-25 -2q-18 1 -26 1q-11 0 -17 -1q-12 0 -26.5 -17.5t-14.5 -29.5q0 -8 8 -8q13 0 46 6q60 11 69 8q-11 -19 -20 -46.5t-9 -49.5z" />
    <glyph glyph-name="brokenbar" unicode="&#xa6;" 
 />
    <glyph glyph-name="section" unicode="&#xa7;" 
 />
    <glyph glyph-name="dieresis" unicode="&#xa8;" horiz-adv-x="332" 
d="M208 -6q17 1 51.5 22t44.5 31.5t10 26.5q0 13 -10 13q-4 0 -10 -3q-47 -25 -97.5 -34t-115.5 -9q-1 4 -1 14q0 20 5 47q13 71 13 78q6 29 70 40q24 3 49 7q7 0 15.5 1t13.5 1h22q19 -3 31 -4q6 1 10.5 12t4.5 25q0 33 -19 33q-35 0 -66 -3t-57 -13q-8 -2 -35 -21
q-12 -8 -19 -8q8 43 19 88t18 66q5 34 41 47q23 8 71 8h28q6 -13 30 -13q21 0 21 19q0 2 -2 10q7 10 7 24q0 19 -11 24q-9 6 -19 8.5t-24 2.5q-13 0 -25 -1t-23 -2q-24 0 -47 -7.5t-32 -19.5q-8 -7 -30.5 -24.5t-27.5 -20.5q-12 -16 -21.5 -30t-9.5 -29q-5 0 -20.5 -76.5
t-15.5 -89.5l-13 -125l-5 -40t-2 -31q0 -21 4.5 -31.5t19.5 -10.5q-2 -11 0 -17q7 -7 19 -7q14 1 24 1q31 0 60.5 4.5t55.5 16.5zM276 568q7 2 16 2q7 0 11 -2q5 8 13.5 12t11.5 9t3 18q0 10 -3 16.5t-9 3.5q-11 8 -23 8q-17 0 -30.5 -14.5t-13.5 -29.5q0 -20 24 -23z
M163 568q14 2 17 2q4 0 12 -2q2 6 13.5 13.5t12.5 13t1 16.5q0 8 -2 13.5t-9 4.5q-8 5 -20 5q-17 0 -30.5 -11.5t-13.5 -27.5q0 -17 19 -27z" />
    <glyph glyph-name="copyright" unicode="&#xa9;" horiz-adv-x="541" 
d="M289 -16q96 0 172 75q80 79 80 189q0 108 -75 189t-179 81q-117 0 -198 -74t-81 -184q0 -121 81 -198.5t200 -77.5zM367 305h47q-9 37 -21 55q-37 56 -112 56q-62 0 -105 -41q-51 -48 -51 -133q0 -73 48 -115q43 -38 105 -38q51 0 90 29t46 83h-47q-5 -34 -30 -52
q-21 -15 -51 -15q-8 0 -18 2t-18 5q-33 13 -50.5 45t-17.5 70q0 42 22 74.5t64 38.5q4 1 8 1h6q31 0 55 -19.5t30 -45.5zM273 35q-89 0 -148.5 64.5t-59.5 160.5q0 81 58 143q62 66 150 66q91 0 151 -66.5t60 -156.5q0 -85 -65 -148t-146 -63z" />
    <glyph glyph-name="ordfeminine" unicode="&#xaa;" horiz-adv-x="219" 
d="M20 367q10 -10 22 -10q20 0 53 28q13 11 26 23q5 5 11 10.5t8 5.5q3 0 5 -8q0 -19 9 -28t24 -9q9 0 18 3t19 9q6 6 8 13.5t6 11.5q0 10 -2 12q0 2 -2 2q-4 -4 -11.5 -9.5t-12.5 -5.5q-7 0 -11 7q-7 6 -7 16q0 7 3 13q-3 7 -4 16.5t-2 9.5h-19q-7 -4 -17 -12.5t-13 -13.5
q-18 -7 -27 -21q-2 -1 -11.5 -8t-19.5 -8q4 8 6 14q6 7 14 14.5t15 14.5q6 1 11 6.5t8 11.5q14 3 31 22q10 13 14 17q11 6 13 7q7 6 7 14q-10 10 -23 10q-14 0 -32.5 -13t-33 -23t-23.5 -17t-9 -10q-18 -11 -36.5 -42t-18.5 -56q0 -10 4 -17z" />
    <glyph glyph-name="guillemotleft" unicode="&#xab;" horiz-adv-x="307" 
d="M143 268q-16 -16 -27 -26q-26 -24 -41 -33q-3 -7 -31 -33q-15 -14 -18 -24q-7 -11 -7 -26t9 -37t13 -32q9 -9 17.5 -23t12.5 -18.5t14 -4.5q15 0 31 7.5t11 14.5q-3 9 -17 30q-9 13 -14 23q-13 19 -13 36q0 19 17.5 41.5t34.5 43.5q7 4 18 13.5t23 19.5q21 11 21 23
q0 4 -3 7q-9 8 -20 8q-7 0 -15 -3.5t-16 -6.5zM266 266q-16 -16 -28 -27q-27 -25 -42 -34q-4 -9 -24.5 -26.5t-24.5 -30.5q-6 -10 -6 -27q0 -27 16.5 -58.5t36.5 -48.5q3 -7 16 -7q20 0 34 10q8 6 4 10q-3 9 -25 45q-18 29 -18 49q0 14 8 25q3 10 19 27.5t22 29.5
q11 5 21.5 13.5t21.5 19.5q30 17 20 30q-5 5 -10 7t-10 2q-8 0 -16 -3t-15 -6z" />
    <glyph glyph-name="logicalnot" unicode="&#xac;" 
 />
    <glyph glyph-name="minus" unicode="&#xad;" horiz-adv-x="227" 
d="M151 141q11 -4 21 -4q16 0 23.5 10t7.5 25q0 10 -4 17t-11 6q-28 0 -55.5 -0.5t-54.5 -0.5q-19 0 -25 1q-4 0 -14 -14.5t-13 -14.5q-8 -8 -8 -19q0 -10 14 -10q10 0 31.5 -1t32.5 -1q16 0 29 1t26 5z" />
    <glyph glyph-name="registered" unicode="&#xae;" horiz-adv-x="541" 
d="M170 404v-306h51v132h45l86 -134h50l-88 134q40 12 57 27q24 20 24 57q0 42 -27 68q-23 22 -50 22h-148zM221 361h76q20 0 31.5 -13.5t11.5 -31.5q0 -19 -11 -32t-32 -13h-76v90zM273 -18q109 0 187.5 83.5t78.5 184.5q0 108 -78 187t-178 79q-122 0 -199.5 -79.5
t-77.5 -192.5q0 -102 72 -179q78 -83 195 -83zM285 33q-102 0 -167 67q-59 61 -59 144q0 84 58 150q63 71 154 71q87 0 150 -65t63 -152q0 -85 -55 -148q-58 -67 -144 -67z" />
    <glyph glyph-name="macron" unicode="&#xaf;" horiz-adv-x="139" 
d="M26 2q3 -25 21 -25q6 0 14 3q6 10 15 15.5t10 14.5q-7 36 -7 79q0 58 15 145q12 58 16 86q-4 7 4 39t17 69q0 3 7.5 33t7.5 44q0 23 -15 23q-12 0 -29 -12q-41 0 -61 -75q-11 -47 -15 -62q2 -3 2.5 -6t1.5 -4q-1 -2 -3.5 -12t-2.5 -22q0 -9 2 -15q4 2 7.5 -7t3.5 -22
q0 -15 -5 -25q0 -36 -3 -73q-9 -110 -9 -121q0 -34 6 -70zM155 567q7 2 16 2q7 0 11 -2q5 8 13.5 12t11.5 9t3 18q0 10 -3 16.5t-9 3.5q-11 8 -23 8q-17 0 -30.5 -14.5t-13.5 -29.5q0 -20 24 -23zM42 567q14 2 17 2q4 0 12 -2q2 6 13.5 13.5t12.5 13t1 16.5q0 8 -2 13.5
t-9 4.5q-8 5 -20 5q-17 0 -30.5 -11.5t-13.5 -27.5q0 -17 19 -27z" />
    <glyph glyph-name="degree" unicode="&#xb0;" horiz-adv-x="146" 
d="M35 391q0 -2 -2 -5.5t-3 -4.5q-6 -12 -6 -19q0 -5 4.5 -11.5t10.5 -12.5q14 -13 29 -13q7 0 26 5.5t27 5.5q11 9 15.5 20.5t8.5 22.5q6 3 6 16l-4 11l-2 8q-5 4 -17 10q-18 10 -32 10q-4 0 -12 -2.5t-12 -4.5q-13 -7 -21 -15q-3 -6 -8 -12t-8 -9zM57 363q0 14 11 27
t26 13q6 0 12 -3q11 0 11 -16q0 -21 -13 -23q-14 -7 -31 -7q-14 0 -16 9z" />
    <glyph glyph-name="plusminus" unicode="&#xb1;" 
 />
    <glyph glyph-name="twosuperior" unicode="&#xb2;" horiz-adv-x="139" 
d="M26 2q3 -25 21 -25q6 0 14 3q6 10 15 15.5t10 14.5q-7 36 -7 79q0 58 15 145q12 58 16 86q-4 7 4 39t17 69q0 3 7.5 33t7.5 44q0 23 -15 23q-12 0 -29 -12q-41 0 -61 -75q-11 -47 -15 -62q2 -3 2.5 -6t1.5 -4q-1 -2 -3.5 -12t-2.5 -22q0 -9 2 -15q4 2 7.5 -7t3.5 -22
q0 -15 -5 -25q0 -36 -3 -73q-9 -110 -9 -121q0 -34 6 -70z" />
    <glyph glyph-name="threesuperior" unicode="&#xb3;" horiz-adv-x="234" 
d="M98 330q-1 -7 8.5 -8.5t24.5 -1.5q17 8 29.5 19.5t15.5 29.5q4 6 8 20.5t4 21.5q0 17 -12 17q-10 3 -27.5 -6t-17.5 -18q-15 -4 -27.5 -20.5t-12.5 -32.5q0 -13 7 -21zM4 66q3 0 9 7t12 9q11 15 23 25q16 13 22 8q7 -6 10 -17.5t10 -17.5q0 -11 11 -25.5t34 -27.5
q10 -2 15 -2q21 0 46 17q19 13 35 32l2 49q-6 -2 -15 -9.5t-13 -15.5q-1 0 -12 -5t-17 -5q-9 0 -15.5 7.5t-11.5 27.5q-4 25 -5.5 40t-4.5 26q-9 12 -18.5 17.5t-26.5 4.5q-5 -4 -8 -7t-8 -11q-9 -4 -22 -20t-15 -23q-8 -3 -18 -14q-16 -18 -17 -19l-4 -40v-6q2 -4 2 -5z
" />
    <glyph glyph-name="acute" unicode="&#xb4;" horiz-adv-x="184" 
d="M80 383q-14 -12 -42.5 -22.5t-33.5 -16.5q1 -5 9 -11q2 -2 8 -5q29 8 47 14.5t34 18.5q7 0 29 13q31 18 33 19l14 21q2 1 1 8.5t-3 11.5q-19 17 -35 11q-15 -27 -31 -41q-3 -3 -30 -21z" />
    <glyph glyph-name="mu" unicode="&#xb5;" 
 />
    <glyph glyph-name="paragraph" unicode="&#xb6;" horiz-adv-x="394" 
d="M173 -17v357q-66 0 -110.5 41.5t-44.5 98.5q0 74 49 109.5t134 35.5h161v-642h-51v592h-87v-592h-51z" />
    <glyph glyph-name="periodcentered" unicode="&#xb7;" horiz-adv-x="94" 
d="M106 152q20 0 31.5 12.5t11.5 30.5q0 17 -11 30t-32 13q-20 0 -31.5 -12.5t-11.5 -30.5t11.5 -30.5t31.5 -12.5z" />
    <glyph glyph-name="periodcentered" unicode="&#x2219;" horiz-adv-x="94" 
d="M106 152q20 0 31.5 12.5t11.5 30.5q0 17 -11 30t-32 13q-20 0 -31.5 -12.5t-11.5 -30.5t11.5 -30.5t31.5 -12.5z" />
    <glyph glyph-name="cedilla" unicode="&#xb8;" horiz-adv-x="262" 
d="M29 29q16 -13 29.5 -18t29.5 -5q29 0 71 24q60 34 70 38q5 8 5 37q2 4 2 9q-8 -2 -15 -3q-19 -13 -20 -13q-13 -8 -21 -14q-26 -16 -66 -16q-19 0 -30 6.5t-11 22.5q0 7 3 16q9 6 13 9q8 6 13 13q25 12 51.5 43.5t24.5 40.5q10 4 10 25q0 24 -10 29q-7 9 -15.5 12
t-19.5 3q-10 0 -20 -4t-12 -9q-11 -6 -25 -18t-23 -23q-7 -3 -16 -17.5t-17 -29.5t-17 -37.5t-9 -30.5q0 -45 12 -67q6 -12 13 -23zM121 217q9 -5 -2 -20.5t-17 -18.5q-5 -14 -22 -14q-6 -1 -5.5 3t7.5 17q9 12 20.5 22.5t18.5 10.5zM207 340q14 2 15 2q8 0 12 -4
q4 9 10 11.5t12 5.5q5 8 5 23q0 10 -3 16.5t-10 3.5q-9 8 -22 8q-16 0 -29.5 -14.5t-13.5 -29.5q0 -19 24 -22zM94 338l20 4q3 0 9 -2q12 10 25 21q2 10 2 21q0 18 -11 16q-10 7 -23 7q-17 0 -29 -11t-12 -27q0 -17 19 -29z" />
    <glyph glyph-name="onesuperior" unicode="&#xb9;" horiz-adv-x="657" 
d="M18 -16q-3 -11 -3 -19q0 -12 9 -16q3 6 12 6t12 10.5t28 93.5q20 65 26 101q10 36 22 76t17 43q6 -7 19.5 -38t21.5 -50l54 -126q40 -86 59 -83q11 1 24 8q21 11 25 12q7 10 13.5 23.5t6.5 25.5q23 91 35 230q17 205 21 233q0 28 -7 28q-4 0 -14 -9q-6 -5 -14 -12
q-32 -60 -35.5 -161.5t-5.5 -123.5q-15 -97 -17 -109q-9 -51 -14 -59q-15 6 -43 81q-18 48 -33 81q-6 24 -35 102q-17 45 -22 66q0 18 4 33q1 5 21 57q0 17 -9 17q-8 0 -27.5 -17t-21.5 -15q-2 9 -23 9q-9 0 -20 -3q-8 2 -14.5 -17t-6.5 -41q0 -8 1 -11q-5 -10 -18 -132
q-6 -57 -17 -114q-3 -6 -17 -94q-4 -29 -14 -86zM577 213q-37 -39 -56 -30q-7 4 -7 15q0 10 4.5 19t11.5 15q12 0 16 12q11 13 27 13q17 0 14 -23zM485 154q6 -4 12 -6l26 -4l32 10q21 9 28 22q11 5 16 15q14 8 24 30t10 44q0 12 -5 22q-14 15 -35 15q-15 0 -35 -7q0 6 6 12
q0 9 -22 9q-12 -12 -23 -22.5t-16 -12.5q-13 -13 -25.5 -39t-12.5 -49q0 -28 20 -39zM552 82q11 -3 19 -3q29 0 29 24q0 18 -13 16q-26 0 -52 -0.5t-52 -0.5q-18 0 -23 1q-4 0 -14 -10t-12 -10q-8 -5 -8 -13q0 -7 13 -7q15 0 30.5 -0.5t31.5 -0.5h31q14 3 20 4z" />
    <glyph glyph-name="ordmasculine" unicode="&#xba;" horiz-adv-x="174" 
d="M155 426q-37 -39 -56 -30q-7 4 -7 15q0 10 4.5 19t11.5 15q12 0 16 12q11 13 27 13q17 0 14 -23zM63 367q6 -4 12 -6l26 -4l32 10q21 9 28 22q11 5 16 15q14 8 24 30t10 44q0 12 -5 22q-14 15 -35 15q-15 0 -35 -7q0 6 6 12q0 9 -22 9q-12 -12 -23 -22.5t-16 -12.5
q-13 -13 -25.5 -39t-12.5 -49q0 -28 20 -39z" />
    <glyph glyph-name="guillemotright" unicode="&#xbb;" horiz-adv-x="307" 
d="M143 268q-16 -16 -27 -26q-26 -24 -41 -33q-3 -7 -31 -33q-15 -14 -18 -24q-7 -11 -7 -26t9 -37t13 -32q9 -9 17.5 -23t12.5 -18.5t14 -4.5q15 0 31 7.5t11 14.5q-3 9 -17 30q-9 13 -14 23q-13 19 -13 36q0 19 17.5 41.5t34.5 43.5q7 4 18 13.5t23 19.5q21 11 21 23
q0 4 -3 7q-9 8 -20 8q-7 0 -15 -3.5t-16 -6.5zM266 266q-16 -16 -28 -27q-27 -25 -42 -34q-4 -9 -24.5 -26.5t-24.5 -30.5q-6 -10 -6 -27q0 -27 16.5 -58.5t36.5 -48.5q3 -7 16 -7q20 0 34 10q8 6 4 10q-3 9 -25 45q-18 29 -18 49q0 14 8 25q3 10 19 27.5t22 29.5
q11 5 21.5 13.5t21.5 19.5q30 17 20 30q-5 5 -10 7t-10 2q-8 0 -16 -3t-15 -6z" />
    <glyph glyph-name="onequarter" unicode="&#xbc;" 
 />
    <glyph glyph-name="onehalf" unicode="&#xbd;" 
 />
    <glyph glyph-name="threequarters" unicode="&#xbe;" 
 />
    <glyph glyph-name="questiondown" unicode="&#xbf;" horiz-adv-x="234" 
d="M180 341q14 2 15 2q8 0 12 -4q4 9 10 11.5t12 5.5q5 8 5 23q0 10 -3 16.5t-10 3.5q-9 8 -22 8q-16 0 -29.5 -14.5t-13.5 -29.5q0 -19 24 -22zM67 339l20 4q3 0 9 -2q12 10 25 21q2 10 2 21q0 18 -11 16q-10 7 -23 7q-17 0 -29 -11t-12 -27q0 -17 19 -29zM4 66q3 0 9 7
t12 9q11 15 23 25q16 13 22 8q7 -6 10 -17.5t10 -17.5q0 -11 11 -25.5t34 -27.5q10 -2 15 -2q21 0 46 17q19 13 35 32l2 49q-6 -2 -15 -9.5t-13 -15.5q-1 0 -12 -5t-17 -5q-9 0 -15.5 7.5t-11.5 27.5q-4 25 -5.5 40t-4.5 26q-9 12 -18.5 17.5t-26.5 4.5q-5 -4 -8 -7t-8 -11
q-9 -4 -22 -20t-15 -23q-8 -3 -18 -14q-16 -18 -17 -19l-4 -40v-6q2 -4 2 -5z" />
    <glyph glyph-name="Agrave" unicode="&#xc0;" horiz-adv-x="367" 
d="M41 -43q6 12 12 23q8 19 8 41q4 2 9 20.5t10 38.5q13 18 19 37.5t8 27.5q24 -2 58 14q48 23 56 25q14 -1 29.5 2.5t26.5 6.5q1 -9 1.5 -32t0.5 -44q3 -8 3 -19q0 -12 -3 -24q1 -9 1 -25q0 -17 -1 -32t-2 -29q0 -10 8 -10q10 0 21 11.5t10 22.5q4 10 8 38.5t4 43.5
q2 2 7 53t5 62q17 9 17 22q0 11 -13 19q0 8 1 28.5t1 30.5q0 34 -8 41q2 8 2 18v15q0 38 -8 62q-3 20 -27 30t-32 23q0 6 4 16q12 29 12 35q0 9 -7 11.5t-11 2.5q-9 0 -23 -9q-32 -21 -33 -21q-1 -8 -4 -13q-8 -14 -18 -14q-2 -1 -12.5 -3.5t-16.5 -14.5q-1 -3 -1.5 -6
t-0.5 -4q0 -5 5 -10t1 -11q-14 -11 -39 -83q-19 -54 -33 -104q-7 -11 -12.5 -25.5t-11.5 -31.5q-22 -3 -32 -14.5t-17 -36.5q2 -4 2 -13v-12q0 -16 20 -14q0 -7 -9 -32t-9 -40q-2 -2 -5.5 -13.5t-3.5 -19.5q-4 -9 -8 -23.5t-4 -24.5q0 -21 14 -21q7 0 21 8zM277 234
q-19 0 -26 -1t-15 -6q-14 1 -49 -2.5t-39 -3.5q-10 0 -11 2q0 17 17 49.5t20 47.5l20 36t11 31q10 14 12 16q6 7 12 7q14 0 27 -15q11 -17 23 -34q-3 -11 -3 -25q0 -10 1.5 -21t5.5 -12q-5 -2 -5 -17q0 -11 3 -20v-13q0 -9 -0.5 -15t-3.5 -4z" />
    <glyph glyph-name="Agrave" unicode="&#x410;" horiz-adv-x="367" 
d="M41 -43q6 12 12 23q8 19 8 41q4 2 9 20.5t10 38.5q13 18 19 37.5t8 27.5q24 -2 58 14q48 23 56 25q14 -1 29.5 2.5t26.5 6.5q1 -9 1.5 -32t0.5 -44q3 -8 3 -19q0 -12 -3 -24q1 -9 1 -25q0 -17 -1 -32t-2 -29q0 -10 8 -10q10 0 21 11.5t10 22.5q4 10 8 38.5t4 43.5
q2 2 7 53t5 62q17 9 17 22q0 11 -13 19q0 8 1 28.5t1 30.5q0 34 -8 41q2 8 2 18v15q0 38 -8 62q-3 20 -27 30t-32 23q0 6 4 16q12 29 12 35q0 9 -7 11.5t-11 2.5q-9 0 -23 -9q-32 -21 -33 -21q-1 -8 -4 -13q-8 -14 -18 -14q-2 -1 -12.5 -3.5t-16.5 -14.5q-1 -3 -1.5 -6
t-0.5 -4q0 -5 5 -10t1 -11q-14 -11 -39 -83q-19 -54 -33 -104q-7 -11 -12.5 -25.5t-11.5 -31.5q-22 -3 -32 -14.5t-17 -36.5q2 -4 2 -13v-12q0 -16 20 -14q0 -7 -9 -32t-9 -40q-2 -2 -5.5 -13.5t-3.5 -19.5q-4 -9 -8 -23.5t-4 -24.5q0 -21 14 -21q7 0 21 8zM277 234
q-19 0 -26 -1t-15 -6q-14 1 -49 -2.5t-39 -3.5q-10 0 -11 2q0 17 17 49.5t20 47.5l20 36t11 31q10 14 12 16q6 7 12 7q14 0 27 -15q11 -17 23 -34q-3 -11 -3 -25q0 -10 1.5 -21t5.5 -12q-5 -2 -5 -17q0 -11 3 -20v-13q0 -9 -0.5 -15t-3.5 -4z" />
    <glyph glyph-name="Aacute" unicode="&#xc1;" horiz-adv-x="334" 
d="M43 529q26 11 95 22t124 11q54 0 78 -10q0 -10 1 -21l2 -22q0 -25 -16 -26q-33 11 -83 11q-30 0 -54.5 -2.5t-41.5 -4.5q-11 -21 -17 -51.5t-9.5 -48.5t-6.5 -33t-6 -26q36 -13 62.5 -25.5t59.5 -35.5q29 -20 48 -44q30 -38 30 -79q0 -25 -17 -53q-11 -18 -28.5 -35.5
t-44.5 -31.5t-49 -19q-47 -12 -72 -12q-12 0 -29 3q-29 3 -40 18t-11 52q0 21 6.5 85t18.5 141.5t24 139.5q0 7 18 31q9 12 10 19q-13 -2 -26 -3q-25 -11 -27 -8q-3 6 -6 16t-3 19q0 17 10 23zM91 204q-9 -51 -9 -96q0 -47 6.5 -57.5t26.5 -10.5q17 0 35.5 5t34.5 15
q48 28 64 71q0 33 -41 71q-36 33 -71 45q-14 8 -16.5 13.5t-7.5 12t-12 9.5z" />
    <glyph glyph-name="Aacute" unicode="&#x411;" horiz-adv-x="334" 
d="M43 529q26 11 95 22t124 11q54 0 78 -10q0 -10 1 -21l2 -22q0 -25 -16 -26q-33 11 -83 11q-30 0 -54.5 -2.5t-41.5 -4.5q-11 -21 -17 -51.5t-9.5 -48.5t-6.5 -33t-6 -26q36 -13 62.5 -25.5t59.5 -35.5q29 -20 48 -44q30 -38 30 -79q0 -25 -17 -53q-11 -18 -28.5 -35.5
t-44.5 -31.5t-49 -19q-47 -12 -72 -12q-12 0 -29 3q-29 3 -40 18t-11 52q0 21 6.5 85t18.5 141.5t24 139.5q0 7 18 31q9 12 10 19q-13 -2 -26 -3q-25 -11 -27 -8q-3 6 -6 16t-3 19q0 17 10 23zM91 204q-9 -51 -9 -96q0 -47 6.5 -57.5t26.5 -10.5q17 0 35.5 5t34.5 15
q48 28 64 71q0 33 -41 71q-36 33 -71 45q-14 8 -16.5 13.5t-7.5 12t-12 9.5z" />
    <glyph glyph-name="Acircumflex" unicode="&#xc2;" horiz-adv-x="385" 
d="M61 -45q2 -4 4.5 -8t7.5 -4q4 4 14 4q11 0 15 -4q0 6 4 18t4 18q22 -5 82 10.5t80 30.5q41 16 52 22q37 21 37 50q0 13 -7 27t-26 33q-18 15 -110 49q-71 26 -61 47q16 13 93 53q62 32 82 64q29 19 42 48.5t13 66.5q-6 9 -16 20q-14 14 -21 14q-11 7 -28.5 12t-36.5 5
q-8 3 -16 4t-19 1q-15 0 -23 -1l-118 -14q-85 -17 -85 -56q0 -9 2 -14l70 8q1 0 15 1.5t14 -1.5q2 -3 -8 -14t-11 -15q-20 -7 -26.5 -77t-10.5 -89q-21 -12 -41 -24q-3 -18 4 -29q24 -8 29.5 -16.5t3.5 -26.5q0 -16 -0.5 -35t-0.5 -42v-37t3 -33q-9 -1 -18 -3t-35 -34
q10 -29 47 -29zM194 154q32 -8 59.5 -23t26.5 -24q-2 -10 -11.5 -17t-37.5 -16q-9 -4 -19 -9q-24 -12 -34.5 -15.5t-35 -8.5t-30.5 -8q0 21 7 75.5t14 69.5q3 2 18 -7.5t43 -16.5zM274 373q-23 -18 -66.5 -44t-54.5 -26q-3 11 -3 21q0 16 6 33.5t12 23.5q-7 11 -7 27
q0 15 6 31.5t15 25.5q69 0 96 -11t27 -30q0 -13 -13 -30q-9 -11 -18 -21z" />
    <glyph glyph-name="Acircumflex" unicode="&#x412;" horiz-adv-x="385" 
d="M61 -45q2 -4 4.5 -8t7.5 -4q4 4 14 4q11 0 15 -4q0 6 4 18t4 18q22 -5 82 10.5t80 30.5q41 16 52 22q37 21 37 50q0 13 -7 27t-26 33q-18 15 -110 49q-71 26 -61 47q16 13 93 53q62 32 82 64q29 19 42 48.5t13 66.5q-6 9 -16 20q-14 14 -21 14q-11 7 -28.5 12t-36.5 5
q-8 3 -16 4t-19 1q-15 0 -23 -1l-118 -14q-85 -17 -85 -56q0 -9 2 -14l70 8q1 0 15 1.5t14 -1.5q2 -3 -8 -14t-11 -15q-20 -7 -26.5 -77t-10.5 -89q-21 -12 -41 -24q-3 -18 4 -29q24 -8 29.5 -16.5t3.5 -26.5q0 -16 -0.5 -35t-0.5 -42v-37t3 -33q-9 -1 -18 -3t-35 -34
q10 -29 47 -29zM194 154q32 -8 59.5 -23t26.5 -24q-2 -10 -11.5 -17t-37.5 -16q-9 -4 -19 -9q-24 -12 -34.5 -15.5t-35 -8.5t-30.5 -8q0 21 7 75.5t14 69.5q3 2 18 -7.5t43 -16.5zM274 373q-23 -18 -66.5 -44t-54.5 -26q-3 11 -3 21q0 16 6 33.5t12 23.5q-7 11 -7 27
q0 15 6 31.5t15 25.5q69 0 96 -11t27 -30q0 -13 -13 -30q-9 -11 -18 -21z" />
    <glyph glyph-name="Atilde" unicode="&#xc3;" horiz-adv-x="339" 
d="M99 525q-24 -7 -24 -42q1 -7 1 -11v-16q1 -6 1 -10q0 -26 -6.5 -68t-12.5 -79q0 -33 1 -55t2 -41q0 -24 -2 -44.5t-8 -37.5q0 -19 -11.5 -44.5t-17.5 -23.5q-7 -13 -11.5 -29t-9.5 -26l15 -15q3 -2 13 -1q6 4 15.5 7t18.5 5q11 9 23 50t25 85q6 45 10 72t11 44
q0 32 11 88t11 89q1 4 -14 20.5t-16 20.5q6 4 20 5.5t44 1.5q29 0 83 -3t64 -3h10l2 2q0 2 2 19t2 27q0 19 -8 23q-18 8 -29 10t-19 0q-80 -4 -133.5 -6.5t-62.5 -13.5z" />
    <glyph glyph-name="Atilde" unicode="&#x413;" horiz-adv-x="339" 
d="M99 525q-24 -7 -24 -42q1 -7 1 -11v-16q1 -6 1 -10q0 -26 -6.5 -68t-12.5 -79q0 -33 1 -55t2 -41q0 -24 -2 -44.5t-8 -37.5q0 -19 -11.5 -44.5t-17.5 -23.5q-7 -13 -11.5 -29t-9.5 -26l15 -15q3 -2 13 -1q6 4 15.5 7t18.5 5q11 9 23 50t25 85q6 45 10 72t11 44
q0 32 11 88t11 89q1 4 -14 20.5t-16 20.5q6 4 20 5.5t44 1.5q29 0 83 -3t64 -3h10l2 2q0 2 2 19t2 27q0 19 -8 23q-18 8 -29 10t-19 0q-80 -4 -133.5 -6.5t-62.5 -13.5z" />
    <glyph glyph-name="Adieresis" unicode="&#xc4;" horiz-adv-x="366" 
d="M108 438l2 -6q-11 -1 -20.5 -12.5t-18.5 -21.5q-10 -5 -15.5 -42.5t-10.5 -80.5q2 -15 0 -21q-7 -33 -11.5 -90.5t-9.5 -124.5q-1 -16 -2 -31q3 -8 9 -8q10 0 24 24t16 40q30 145 60 291q4 20 8.5 40.5t11.5 24.5q1 1 15 -8q39 -23 53 -29l6 -6q31 -31 46 -51
q22 -29 32 -60q0 -23 -5.5 -42.5t-9.5 -35.5l-14 -16q-23 -46 -57 -81q-25 -25 -76 -64q-35 -14 -57 -23q-43 -18 -39 -43q3 -20 30 -20q13 0 33 6q23 5 48 20q29 20 44 29q24 16 49 32q26 19 23 33q-1 6 -10 3t-14 -5q4 13 18 27q22 21 23 23q33 41 53 88.5t20 93.5
q0 41 -15 73t-50 60l-49 33q-18 14 -28.5 20.5t-47.5 24.5q-29 8 -45 10.5t-21 1.5q-9 5 -23.5 10t-25.5 5q-14 -2 -26.5 -3.5t-12.5 -7.5q-2 -7 2 -20q0 -21 2.5 -23.5t40.5 -23.5z" />
    <glyph glyph-name="Adieresis" unicode="&#x414;" horiz-adv-x="366" 
d="M108 438l2 -6q-11 -1 -20.5 -12.5t-18.5 -21.5q-10 -5 -15.5 -42.5t-10.5 -80.5q2 -15 0 -21q-7 -33 -11.5 -90.5t-9.5 -124.5q-1 -16 -2 -31q3 -8 9 -8q10 0 24 24t16 40q30 145 60 291q4 20 8.5 40.5t11.5 24.5q1 1 15 -8q39 -23 53 -29l6 -6q31 -31 46 -51
q22 -29 32 -60q0 -23 -5.5 -42.5t-9.5 -35.5l-14 -16q-23 -46 -57 -81q-25 -25 -76 -64q-35 -14 -57 -23q-43 -18 -39 -43q3 -20 30 -20q13 0 33 6q23 5 48 20q29 20 44 29q24 16 49 32q26 19 23 33q-1 6 -10 3t-14 -5q4 13 18 27q22 21 23 23q33 41 53 88.5t20 93.5
q0 41 -15 73t-50 60l-49 33q-18 14 -28.5 20.5t-47.5 24.5q-29 8 -45 10.5t-21 1.5q-9 5 -23.5 10t-25.5 5q-14 -2 -26.5 -3.5t-12.5 -7.5q-2 -7 2 -20q0 -21 2.5 -23.5t40.5 -23.5z" />
    <glyph glyph-name="Aring" unicode="&#xc5;" horiz-adv-x="327" 
d="M195 0q15 0 46.5 19.5t44 32.5t12.5 31q0 8 -7 8q-5 0 -13 -5q-39 -23 -94.5 -32t-113.5 -9q-1 5 -1 17q0 19 7 61t7 57q4 21 16.5 29t24.5 8q23 0 66 7t65 7q19 0 29 -2q14 3 14 35q0 15 -4.5 24t-15.5 9q-10 0 -32 1.5t-25 1.5q-26 0 -38 -3.5t-24 -11.5
q-10 -3 -35 -22q-12 -9 -19 -9q0 30 13 80q5 20 22 72q7 40 32 48.5t106 8.5q9 -14 33 -14q18 0 18 17q0 3 -2 11q7 11 7 24q0 16 -9 24q-6 7 -19.5 10t-27.5 3q-15 0 -28 -1t-24 -2q-27 -5 -46 -11.5t-27 -17.5q-27 -23 -54 -45q-32 -32 -35 -61q-3 0 -12 -49
q-18 -99 -18 -117q0 -2 -7 -46.5t-10 -76.5q0 -9 -4.5 -36t-4.5 -37q0 -16 5.5 -25t20.5 -9q3 0 1.5 -8t-1.5 -12q18 -5 41 -5q60 0 120 21z" />
    <glyph glyph-name="Aring" unicode="&#x415;" horiz-adv-x="327" 
d="M195 0q15 0 46.5 19.5t44 32.5t12.5 31q0 8 -7 8q-5 0 -13 -5q-39 -23 -94.5 -32t-113.5 -9q-1 5 -1 17q0 19 7 61t7 57q4 21 16.5 29t24.5 8q23 0 66 7t65 7q19 0 29 -2q14 3 14 35q0 15 -4.5 24t-15.5 9q-10 0 -32 1.5t-25 1.5q-26 0 -38 -3.5t-24 -11.5
q-10 -3 -35 -22q-12 -9 -19 -9q0 30 13 80q5 20 22 72q7 40 32 48.5t106 8.5q9 -14 33 -14q18 0 18 17q0 3 -2 11q7 11 7 24q0 16 -9 24q-6 7 -19.5 10t-27.5 3q-15 0 -28 -1t-24 -2q-27 -5 -46 -11.5t-27 -17.5q-27 -23 -54 -45q-32 -32 -35 -61q-3 0 -12 -49
q-18 -99 -18 -117q0 -2 -7 -46.5t-10 -76.5q0 -9 -4.5 -36t-4.5 -37q0 -16 5.5 -25t20.5 -9q3 0 1.5 -8t-1.5 -12q18 -5 41 -5q60 0 120 21z" />
    <glyph glyph-name="AE" unicode="&#xc6;" horiz-adv-x="918" 
d="M430 2q-7 38 -7 74q0 33 5 78q-31 0 -62 4.5t-38 7.5q-23 -46 -39 -77.5t-21 -37.5q-27 -40 -54 -56t-69 -26q-15 -4 -33 -4q-44 0 -71 30.5t-27 89.5q0 11 -0.5 19t-0.5 14q0 11 2 20.5t10 27.5q4 10 11 10q6 0 10 -9t2 -17q0 -73 11 -95q8 -15 35 -20q16 -2 24 -2
q47 0 82 33q15 17 36.5 51.5t32.5 61.5q-12 0 -32 7t-39 14l7 23q11 34 25 30q10 0 40 -13q14 -6 22 -6q10 37 15 71t3 49q-7 45 -34 68t-63 23q-28 0 -51.5 -12t-41.5 -38l-4 64q30 29 65 45t67 16q71 0 107 -64q12 -21 18.5 -45t6.5 -44q0 -34 -11.5 -70.5t-20.5 -66.5
q3 -2 12.5 -3.5t15.5 -4.5q9 0 22 -3t31 -3q1 6 4 23.5t3 26.5q5 10 5 26q0 14 -3.5 22t-7.5 6q-2 8 -2 18q0 23 6 31q-2 6 -4 10q10 42 21 84q19 53 55 53q20 13 30 13q14 0 14 -23q0 -16 -5 -36t-10 -42q0 -3 -16 -72q-7 -31 -5 -36l-18 -115l64 -3q4 34 16.5 73t37.5 84
q9 17 22 36q18 25 34 33q7 21 57 53q55 35 95 35q5 1 16 1q70 0 70 -52q10 -27 10 -63q0 -15 -2 -21q0 -12 -11 -46.5t-14 -43.5q0 -36 -21 -36q-9 0 -17 2q-16 5 -25 7q0 58 2.5 75t15.5 34q8 11 12 23t4 20q0 18 -17.5 27.5t-41.5 9.5q-37 0 -57 -15q-29 -20 -53 -54
q-30 -42 -54 -107q0 -19 -4 -38.5t-8 -36.5l52 -2q7 0 7 -7q0 -6 -2.5 -12t-6.5 -11q-5 -15 -17 -15l-32 2q4 -21 14 -47q15 -38 18 -49q1 0 27.5 -22.5t41.5 -22.5q12 -4 26 -4q23 0 43 7q10 3 67 32q0 10 4 10q8 0 8 -14q0 -8 -5.5 -15t-20 -19.5t-15.5 -14.5
q-8 -2 -22 -9q-41 -20 -50 -22.5t-18.5 -3.5t-20.5 -1q-21 0 -42.5 6.5t-43.5 13.5q-36 14 -60 67t-24 103q-10 0 -20.5 -0.5t-21.5 -0.5h-12q-10 2 -14 2q-2 -13 -3 -32t-1 -34q0 -24 1 -37t6 -40q-1 -10 -10.5 -15.5t-14.5 -14.5q-9 -3 -15 -3q-19 0 -20 25z" />
    <glyph glyph-name="AE" unicode="&#x416;" horiz-adv-x="918" 
d="M430 2q-7 38 -7 74q0 33 5 78q-31 0 -62 4.5t-38 7.5q-23 -46 -39 -77.5t-21 -37.5q-27 -40 -54 -56t-69 -26q-15 -4 -33 -4q-44 0 -71 30.5t-27 89.5q0 11 -0.5 19t-0.5 14q0 11 2 20.5t10 27.5q4 10 11 10q6 0 10 -9t2 -17q0 -73 11 -95q8 -15 35 -20q16 -2 24 -2
q47 0 82 33q15 17 36.5 51.5t32.5 61.5q-12 0 -32 7t-39 14l7 23q11 34 25 30q10 0 40 -13q14 -6 22 -6q10 37 15 71t3 49q-7 45 -34 68t-63 23q-28 0 -51.5 -12t-41.5 -38l-4 64q30 29 65 45t67 16q71 0 107 -64q12 -21 18.5 -45t6.5 -44q0 -34 -11.5 -70.5t-20.5 -66.5
q3 -2 12.5 -3.5t15.5 -4.5q9 0 22 -3t31 -3q1 6 4 23.5t3 26.5q5 10 5 26q0 14 -3.5 22t-7.5 6q-2 8 -2 18q0 23 6 31q-2 6 -4 10q10 42 21 84q19 53 55 53q20 13 30 13q14 0 14 -23q0 -16 -5 -36t-10 -42q0 -3 -16 -72q-7 -31 -5 -36l-18 -115l64 -3q4 34 16.5 73t37.5 84
q9 17 22 36q18 25 34 33q7 21 57 53q55 35 95 35q5 1 16 1q70 0 70 -52q10 -27 10 -63q0 -15 -2 -21q0 -12 -11 -46.5t-14 -43.5q0 -36 -21 -36q-9 0 -17 2q-16 5 -25 7q0 58 2.5 75t15.5 34q8 11 12 23t4 20q0 18 -17.5 27.5t-41.5 9.5q-37 0 -57 -15q-29 -20 -53 -54
q-30 -42 -54 -107q0 -19 -4 -38.5t-8 -36.5l52 -2q7 0 7 -7q0 -6 -2.5 -12t-6.5 -11q-5 -15 -17 -15l-32 2q4 -21 14 -47q15 -38 18 -49q1 0 27.5 -22.5t41.5 -22.5q12 -4 26 -4q23 0 43 7q10 3 67 32q0 10 4 10q8 0 8 -14q0 -8 -5.5 -15t-20 -19.5t-15.5 -14.5
q-8 -2 -22 -9q-41 -20 -50 -22.5t-18.5 -3.5t-20.5 -1q-21 0 -42.5 6.5t-43.5 13.5q-36 14 -60 67t-24 103q-10 0 -20.5 -0.5t-21.5 -0.5h-12q-10 2 -14 2q-2 -13 -3 -32t-1 -34q0 -24 1 -37t6 -40q-1 -10 -10.5 -15.5t-14.5 -14.5q-9 -3 -15 -3q-19 0 -20 25z" />
    <glyph glyph-name="Ccedilla" unicode="&#xc7;" horiz-adv-x="319" 
d="M39 -39q42 0 84 18q4 2 123 72q62 33 62 89q0 8 -1 12q-10 41 -63 65q-64 30 -72 39q17 28 28 45q21 33 29 37q3 10 47 75q24 36 33 52q4 30 -19 47t-65 17q-50 0 -94.5 -6t-56 -17.5t-23.5 -35.5t-12 -40q0 -20 16 -20q20 7 42 14.5t42 11t41 3.5q27 0 36 -3.5t7 -7.5
q-8 -21 -45.5 -75t-65.5 -87q-17 -20 -17 -37q0 -25 49 -45q42 -16 85 -32q7 -3 7 -8q0 -22 -111 -85q-52 -30 -80 -43q-12 -9 -21 -17q-19 -16 -19 -25q0 -13 34 -13z" />
    <glyph glyph-name="Ccedilla" unicode="&#x417;" horiz-adv-x="319" 
d="M39 -39q42 0 84 18q4 2 123 72q62 33 62 89q0 8 -1 12q-10 41 -63 65q-64 30 -72 39q17 28 28 45q21 33 29 37q3 10 47 75q24 36 33 52q4 30 -19 47t-65 17q-50 0 -94.5 -6t-56 -17.5t-23.5 -35.5t-12 -40q0 -20 16 -20q20 7 42 14.5t42 11t41 3.5q27 0 36 -3.5t7 -7.5
q-8 -21 -45.5 -75t-65.5 -87q-17 -20 -17 -37q0 -25 49 -45q42 -16 85 -32q7 -3 7 -8q0 -22 -111 -85q-52 -30 -80 -43q-12 -9 -21 -17q-19 -16 -19 -25q0 -13 34 -13z" />
    <glyph glyph-name="Egrave" unicode="&#xc8;" horiz-adv-x="414" 
d="M219 200q0 14 28 61.5t37 52.5q6 0 15.5 29t18.5 33q5 -8 5 -23q0 -25 -12 -61q-7 -21 -23 -58q0 -19 -9.5 -73.5t-17.5 -71.5q0 -28 -8 -79t-8 -77q8 -3 15 -3q6 0 15 3q7 17 12 20.5t25 86.5q3 8 23 121q7 42 24 69q1 14 3 27t2 18q14 37 20 72t6 68q12 62 12 90
q0 31 -14 31q-13 0 -41 -31q-5 -10 -14 -20.5t-15 -20.5q-14 -16 -43.5 -61t-32.5 -51q-11 -5 -74.5 -133t-70.5 -132q-2 8 -2 22q0 3 4 39t4 57q-2 13 3 50q14 101 14 109q0 1 10 51q4 21 10 59q6 15 6 25q0 24 -26 24q-30 0 -50 -22q-1 -4 -3.5 -24.5t-4.5 -45.5l-20 -168
q-6 -31 -11 -61q1 -4 1 -13q-1 -15 -1 -23q0 -10 5 -22q-3 -9 -4 -20.5t-1 -29.5q0 -24 1 -44t2 -38q-1 -12 9.5 -22t25.5 -10q12 0 22.5 6t18.5 19l32 56q0 10 22 36q10 12 14 15q-7 5 6 26q35 57 35 62z" />
    <glyph glyph-name="Egrave" unicode="&#x418;" horiz-adv-x="414" 
d="M219 200q0 14 28 61.5t37 52.5q6 0 15.5 29t18.5 33q5 -8 5 -23q0 -25 -12 -61q-7 -21 -23 -58q0 -19 -9.5 -73.5t-17.5 -71.5q0 -28 -8 -79t-8 -77q8 -3 15 -3q6 0 15 3q7 17 12 20.5t25 86.5q3 8 23 121q7 42 24 69q1 14 3 27t2 18q14 37 20 72t6 68q12 62 12 90
q0 31 -14 31q-13 0 -41 -31q-5 -10 -14 -20.5t-15 -20.5q-14 -16 -43.5 -61t-32.5 -51q-11 -5 -74.5 -133t-70.5 -132q-2 8 -2 22q0 3 4 39t4 57q-2 13 3 50q14 101 14 109q0 1 10 51q4 21 10 59q6 15 6 25q0 24 -26 24q-30 0 -50 -22q-1 -4 -3.5 -24.5t-4.5 -45.5l-20 -168
q-6 -31 -11 -61q1 -4 1 -13q-1 -15 -1 -23q0 -10 5 -22q-3 -9 -4 -20.5t-1 -29.5q0 -24 1 -44t2 -38q-1 -12 9.5 -22t25.5 -10q12 0 22.5 6t18.5 19l32 56q0 10 22 36q10 12 14 15q-7 5 6 26q35 57 35 62z" />
    <glyph glyph-name="Eacute" unicode="&#xc9;" horiz-adv-x="418" 
d="M234 200q0 14 28 61.5t37 52.5q6 0 15.5 29t18.5 33q5 -8 5 -23q0 -25 -12 -61q-7 -21 -23 -58q0 -19 -9.5 -73.5t-17.5 -71.5q0 -28 -8 -79t-8 -77q8 -3 15 -3q6 0 15 3q7 17 12 20.5t25 86.5q3 8 23 121q7 42 24 69q1 14 3 27t2 18q14 37 20 72t6 68q12 62 12 90
q0 31 -14 31q-13 0 -41 -31q-5 -10 -14 -20.5t-15 -20.5q-14 -16 -43.5 -61t-32.5 -51q-11 -5 -74.5 -133t-70.5 -132q-2 8 -2 22q0 3 4 39t4 57q-2 13 3 50q14 101 14 109q0 1 10 51q4 21 10 59q6 15 6 25q0 24 -26 24q-30 0 -50 -22q-1 -4 -3.5 -24.5t-4.5 -45.5l-20 -168
q-6 -31 -11 -61q1 -4 1 -13q-1 -15 -1 -23q0 -10 5 -22q-3 -9 -4 -20.5t-1 -29.5q0 -24 1 -44t2 -38q-1 -12 9.5 -22t25.5 -10q12 0 22.5 6t18.5 19l32 56q0 10 22 36q10 12 14 15q-7 5 6 26q35 57 35 62zM240 604q-15 -11 -43 -21.5t-34 -17.5q0 -5 7 -10t11 -5
q28 9 47.5 15.5t30.5 15.5q8 1 32.5 15t31.5 16q7 12 10.5 19t3.5 14q0 6 -2 10q-19 19 -35 12q-12 -21 -26 -35q-8 -9 -34 -28z" />
    <glyph glyph-name="Eacute" unicode="&#x419;" horiz-adv-x="418" 
d="M234 200q0 14 28 61.5t37 52.5q6 0 15.5 29t18.5 33q5 -8 5 -23q0 -25 -12 -61q-7 -21 -23 -58q0 -19 -9.5 -73.5t-17.5 -71.5q0 -28 -8 -79t-8 -77q8 -3 15 -3q6 0 15 3q7 17 12 20.5t25 86.5q3 8 23 121q7 42 24 69q1 14 3 27t2 18q14 37 20 72t6 68q12 62 12 90
q0 31 -14 31q-13 0 -41 -31q-5 -10 -14 -20.5t-15 -20.5q-14 -16 -43.5 -61t-32.5 -51q-11 -5 -74.5 -133t-70.5 -132q-2 8 -2 22q0 3 4 39t4 57q-2 13 3 50q14 101 14 109q0 1 10 51q4 21 10 59q6 15 6 25q0 24 -26 24q-30 0 -50 -22q-1 -4 -3.5 -24.5t-4.5 -45.5l-20 -168
q-6 -31 -11 -61q1 -4 1 -13q-1 -15 -1 -23q0 -10 5 -22q-3 -9 -4 -20.5t-1 -29.5q0 -24 1 -44t2 -38q-1 -12 9.5 -22t25.5 -10q12 0 22.5 6t18.5 19l32 56q0 10 22 36q10 12 14 15q-7 5 6 26q35 57 35 62zM240 604q-15 -11 -43 -21.5t-34 -17.5q0 -5 7 -10t11 -5
q28 9 47.5 15.5t30.5 15.5q8 1 32.5 15t31.5 16q7 12 10.5 19t3.5 14q0 6 -2 10q-19 19 -35 12q-12 -21 -26 -35q-8 -9 -34 -28z" />
    <glyph glyph-name="Ecircumflex" unicode="&#xca;" horiz-adv-x="367" 
d="M186 41q27 -46 61 -46q23 0 52 21q15 19 31 39q14 3 22 14t8 21q0 12 -10 12q-7 0 -20 -11t-23 -18q-20 -14 -34 -14q-20 0 -33 25q-17 22 -32 55q-41 87 -46 95q0 12 11 22q2 2 21 17q3 7 39.5 45.5t38.5 42.5q12 17 31 40q24 30 39 58q9 5 17 28t8 52q-4 10 -10 10
q-1 0 -13 -4q-22 0 -49 -18q-14 -7 -20.5 -13.5t-6.5 -11.5t8 -13q5 -5 5 -7q-4 -17 -31 -60.5t-49 -67.5q-30 -37 -47 -57q-32 -38 -60 -57q0 35 15.5 94.5t17.5 81.5q4 12 8.5 27.5t4.5 27.5q0 13 -4.5 21.5t-16.5 13.5q-29 -7 -45.5 -30.5t-16.5 -53.5q0 -4 -17 -138
q-7 -57 -5 -59q2 -6 -1.5 -14.5t-3.5 -21.5q-7 -50 -10 -78q-7 -55 -7 -81q0 -17 3 -28q4 -1 12 -2t13 -1q16 0 22 11q-3 17 -3 35q0 34 8 74q5 27 18 70q6 -5 33 -53q12 -22 18 -25q4 -7 21 -31q14 -20 28 -39z" />
    <glyph glyph-name="Ecircumflex" unicode="&#x41a;" horiz-adv-x="367" 
d="M186 41q27 -46 61 -46q23 0 52 21q15 19 31 39q14 3 22 14t8 21q0 12 -10 12q-7 0 -20 -11t-23 -18q-20 -14 -34 -14q-20 0 -33 25q-17 22 -32 55q-41 87 -46 95q0 12 11 22q2 2 21 17q3 7 39.5 45.5t38.5 42.5q12 17 31 40q24 30 39 58q9 5 17 28t8 52q-4 10 -10 10
q-1 0 -13 -4q-22 0 -49 -18q-14 -7 -20.5 -13.5t-6.5 -11.5t8 -13q5 -5 5 -7q-4 -17 -31 -60.5t-49 -67.5q-30 -37 -47 -57q-32 -38 -60 -57q0 35 15.5 94.5t17.5 81.5q4 12 8.5 27.5t4.5 27.5q0 13 -4.5 21.5t-16.5 13.5q-29 -7 -45.5 -30.5t-16.5 -53.5q0 -4 -17 -138
q-7 -57 -5 -59q2 -6 -1.5 -14.5t-3.5 -21.5q-7 -50 -10 -78q-7 -55 -7 -81q0 -17 3 -28q4 -1 12 -2t13 -1q16 0 22 11q-3 17 -3 35q0 34 8 74q5 27 18 70q6 -5 33 -53q12 -22 18 -25q4 -7 21 -31q14 -20 28 -39z" />
    <glyph glyph-name="Edieresis" unicode="&#xcb;" horiz-adv-x="344" 
d="M187 516q-1 -5 -17 -18.5t-16 -25.5q0 -7 4 -15q-28 -42 -66 -149q-52 -147 -55 -154q-20 -45 -20 -64q-6 -4 -13.5 -37t-7.5 -44q0 -25 13 -25q5 0 16 6q31 9 41 42q6 20 6 64q13 48 50 140q28 69 56 139q17 43 28 43q6 0 12.5 -29t13.5 -37q-1 -14 -1 -20q0 -14 7 -19
q0 -12 2 -31t2 -28q4 -16 5 -33t1 -40t0.5 -47t3.5 -44q-3 -13 -7 -40t-4 -44q0 -27 7 -35q3 -9 13 -9q8 0 21 6t28 13q8 11 16 34.5t8 48.5q0 19 -6 40v17t1 19q0 21 -1.5 30t-7.5 10q0 41 -3 66t-9 32q0 19 -4 44.5t-9 31.5q0 16 -5.5 36.5t-12.5 24.5q-5 28 -6.5 35.5
t-16.5 42.5q15 15 15 30q0 12 -8 18t-22 6q-11 0 -19 -3q-19 -7 -33 -28z" />
    <glyph glyph-name="Edieresis" unicode="&#x41b;" horiz-adv-x="344" 
d="M187 516q-1 -5 -17 -18.5t-16 -25.5q0 -7 4 -15q-28 -42 -66 -149q-52 -147 -55 -154q-20 -45 -20 -64q-6 -4 -13.5 -37t-7.5 -44q0 -25 13 -25q5 0 16 6q31 9 41 42q6 20 6 64q13 48 50 140q28 69 56 139q17 43 28 43q6 0 12.5 -29t13.5 -37q-1 -14 -1 -20q0 -14 7 -19
q0 -12 2 -31t2 -28q4 -16 5 -33t1 -40t0.5 -47t3.5 -44q-3 -13 -7 -40t-4 -44q0 -27 7 -35q3 -9 13 -9q8 0 21 6t28 13q8 11 16 34.5t8 48.5q0 19 -6 40v17t1 19q0 21 -1.5 30t-7.5 10q0 41 -3 66t-9 32q0 19 -4 44.5t-9 31.5q0 16 -5.5 36.5t-12.5 24.5q-5 28 -6.5 35.5
t-16.5 42.5q15 15 15 30q0 12 -8 18t-22 6q-11 0 -19 -3q-19 -7 -33 -28z" />
    <glyph glyph-name="Igrave" unicode="&#xcc;" horiz-adv-x="464" 
d="M53 2q7 11 8.5 23.5t1.5 31.5q2 5 5 35t5 36t17 108q7 44 14 43q6 -3 9 -9l16 -36q13 -17 27 -27t31 -10q14 0 26 6.5t27 23.5q33 8 77 64q17 23 35 47q5 5 7.5 3t2.5 -8t-2.5 -20t-5.5 -33t-6 -45.5t-6 -29.5q-4 -19 -11 -71q-14 -101 -20 -136q12 -3 24 14.5t26 20.5
q13 62 24 112t24 96.5t26.5 93.5t13.5 63q1 7 3 22.5t2 26.5q0 22 -3.5 34t-13.5 12q-8 0 -21 -14q-12 -2 -25 -16.5t-18 -32.5l-58 -80q-11 -8 -35 -35q-40 -45 -65 -45q-18 0 -35 17q-26 30 -33.5 80.5t-7.5 116.5v26q0 37 -9 37q-2 0 -13 -6t-21 -6q-5 -7 -15.5 -13
t-21.5 -12q-7 -7 -11.5 -61t-4.5 -80q-3 -13 -7.5 -55t-4.5 -58t-4 -43q-10 -68 -10 -75q0 -12 3 -15q-7 -14 -9.5 -48t-2.5 -81q1 -4 7 -4q5 0 19 6t19 6z" />
    <glyph glyph-name="Igrave" unicode="&#x41c;" horiz-adv-x="464" 
d="M53 2q7 11 8.5 23.5t1.5 31.5q2 5 5 35t5 36t17 108q7 44 14 43q6 -3 9 -9l16 -36q13 -17 27 -27t31 -10q14 0 26 6.5t27 23.5q33 8 77 64q17 23 35 47q5 5 7.5 3t2.5 -8t-2.5 -20t-5.5 -33t-6 -45.5t-6 -29.5q-4 -19 -11 -71q-14 -101 -20 -136q12 -3 24 14.5t26 20.5
q13 62 24 112t24 96.5t26.5 93.5t13.5 63q1 7 3 22.5t2 26.5q0 22 -3.5 34t-13.5 12q-8 0 -21 -14q-12 -2 -25 -16.5t-18 -32.5l-58 -80q-11 -8 -35 -35q-40 -45 -65 -45q-18 0 -35 17q-26 30 -33.5 80.5t-7.5 116.5v26q0 37 -9 37q-2 0 -13 -6t-21 -6q-5 -7 -15.5 -13
t-21.5 -12q-7 -7 -11.5 -61t-4.5 -80q-3 -13 -7.5 -55t-4.5 -58t-4 -43q-10 -68 -10 -75q0 -12 3 -15q-7 -14 -9.5 -48t-2.5 -81q1 -4 7 -4q5 0 19 6t19 6z" />
    <glyph glyph-name="Iacute" unicode="&#xcd;" horiz-adv-x="409" 
d="M86 150q0 12 10.5 25t20.5 18q9 0 19.5 2.5t21.5 7.5q22 13 60 16.5t61 5.5q0 -19 -9.5 -73.5t-17.5 -71.5q0 -28 -8 -79t-8 -77q8 -3 15 -3q6 0 15 3q7 17 12 20.5t25 86.5q3 8 23 121q7 42 24 69q1 14 3 27t2 18q14 37 20 72t6 68q12 62 12 90q0 31 -14 31
q-13 0 -41 -31q-5 -10 -14 -20.5t-15 -20.5q2 -7 2 -16v-18q0 -39 -7.5 -86.5t-12.5 -57.5q-9 -4 -24.5 -6t-31.5 -2h-15q-9 2 -13 2q-15 -5 -46.5 -6t-45.5 -5q-17 -5 -17 14q0 9 4 28q9 43 9 53q0 1 10 51q4 21 10 59q6 15 6 25q0 24 -26 24q-30 0 -50 -22
q-1 -4 -3.5 -24.5t-4.5 -45.5l-20 -168q-3 -14 -15 -35.5t-14 -27.5q4 -16 12 -32.5t11 -23.5q-4 -12 -4 -31q0 -16 3 -39q7 -54 7 -57q-1 -12 5 -20t17 -8q21 0 39 28q2 6 18 32q9 14 11 21q0 7 -4 7q-5 0 -13.5 -8t-11.5 -11q-5 3 -7 18t-2 34v26t1 23z" />
    <glyph glyph-name="Iacute" unicode="&#x41d;" horiz-adv-x="409" 
d="M86 150q0 12 10.5 25t20.5 18q9 0 19.5 2.5t21.5 7.5q22 13 60 16.5t61 5.5q0 -19 -9.5 -73.5t-17.5 -71.5q0 -28 -8 -79t-8 -77q8 -3 15 -3q6 0 15 3q7 17 12 20.5t25 86.5q3 8 23 121q7 42 24 69q1 14 3 27t2 18q14 37 20 72t6 68q12 62 12 90q0 31 -14 31
q-13 0 -41 -31q-5 -10 -14 -20.5t-15 -20.5q2 -7 2 -16v-18q0 -39 -7.5 -86.5t-12.5 -57.5q-9 -4 -24.5 -6t-31.5 -2h-15q-9 2 -13 2q-15 -5 -46.5 -6t-45.5 -5q-17 -5 -17 14q0 9 4 28q9 43 9 53q0 1 10 51q4 21 10 59q6 15 6 25q0 24 -26 24q-30 0 -50 -22
q-1 -4 -3.5 -24.5t-4.5 -45.5l-20 -168q-3 -14 -15 -35.5t-14 -27.5q4 -16 12 -32.5t11 -23.5q-4 -12 -4 -31q0 -16 3 -39q7 -54 7 -57q-1 -12 5 -20t17 -8q21 0 39 28q2 6 18 32q9 14 11 21q0 7 -4 7q-5 0 -13.5 -8t-11.5 -11q-5 3 -7 18t-2 34v26t1 23z" />
    <glyph glyph-name="Icircumflex" unicode="&#xce;" horiz-adv-x="404" 
d="M238 33q61 56 99 114q63 96 63 195q-7 59 -43 109q-41 56 -97 65q-29 -8 -44.5 -17.5t-22.5 -19.5l-21 -12q-13 -8 -18 -16q-3 -9 -10 -9q-2 0 -3 5q1 8 1 12q14 22 14 36q0 13 -14 15l-21 -16q-26 -43 -55 -113q-25 -59 -49 -117q-10 -10 -12 -26.5t-3 -30.5q0 -9 5 -9
t15 10q3 3 9 11q2 -8 2 -12q0 -5 -3 -15t-3 -16q-4 -30 -5 -36v-22q0 -60 22 -98t69 -38q20 0 45 9t49 17q6 6 14.5 13.5t16.5 11.5zM242 94q-24 -22 -46 -34.5t-41 -12.5q-21 0 -35.5 15.5t-22.5 47t-8 62.5q0 37 10 86t20 94q26 36 37 45q22 19 70 31q51 0 81 -46
q27 -41 27 -102q0 -36 -9.5 -63.5t-25.5 -55.5q-20 -34 -57 -67z" />
    <glyph glyph-name="Icircumflex" unicode="&#x41e;" horiz-adv-x="404" 
d="M238 33q61 56 99 114q63 96 63 195q-7 59 -43 109q-41 56 -97 65q-29 -8 -44.5 -17.5t-22.5 -19.5l-21 -12q-13 -8 -18 -16q-3 -9 -10 -9q-2 0 -3 5q1 8 1 12q14 22 14 36q0 13 -14 15l-21 -16q-26 -43 -55 -113q-25 -59 -49 -117q-10 -10 -12 -26.5t-3 -30.5q0 -9 5 -9
t15 10q3 3 9 11q2 -8 2 -12q0 -5 -3 -15t-3 -16q-4 -30 -5 -36v-22q0 -60 22 -98t69 -38q20 0 45 9t49 17q6 6 14.5 13.5t16.5 11.5zM242 94q-24 -22 -46 -34.5t-41 -12.5q-21 0 -35.5 15.5t-22.5 47t-8 62.5q0 37 10 86t20 94q26 36 37 45q22 19 70 31q51 0 81 -46
q27 -41 27 -102q0 -36 -9.5 -63.5t-25.5 -55.5q-20 -34 -57 -67z" />
    <glyph glyph-name="Idieresis" unicode="&#xcf;" horiz-adv-x="400" 
d="M86 150q13 58 23.5 125.5t10.5 124.5q-4 13 -11 21q-2 3 -8 7h59q19 11 75.5 16.5t102.5 9.5q1 -10 -16 -22q-10 -7 -10 -13q0 -19 -5 -41t-11 -43q-7 -19 -17 -74.5t-10 -73.5q0 -13 -7 -57t-10 -50q0 -28 -8 -79t-8 -77q8 -3 15 -3q6 0 15 3q7 17 12 20.5t25 86.5
q3 8 23 121q7 42 24 69q1 14 3 27t2 18q14 37 20 72t6 68q2 7 5 24t3 24q15 -3 20 -3q9 0 9 7q0 6 1 19t1 19q0 16 -4 22.5t-17 5.5q-8 2 -26 3t-34 1h-31q-24 0 -36 -4t-57 -7.5t-55 -4.5l-37 2q-17 2 -37.5 -5.5t-30.5 -11.5q-8 -7 -15 -28t-7 -36q0 -22 8 -22l12 2
l-20 -159q-6 -32 -12 -63q1 -5 1 -17q0 -10 0.5 -20t4.5 -19q-4 -12 -4 -31q0 -16 3 -39q7 -54 7 -57q-1 -12 5 -20t17 -8q21 0 39 28l18 30q0 17 -8 17q-4 0 -10 -6q-5 3 -7 18t-2 34v26t1 23z" />
    <glyph glyph-name="Idieresis" unicode="&#x41f;" horiz-adv-x="400" 
d="M86 150q13 58 23.5 125.5t10.5 124.5q-4 13 -11 21q-2 3 -8 7h59q19 11 75.5 16.5t102.5 9.5q1 -10 -16 -22q-10 -7 -10 -13q0 -19 -5 -41t-11 -43q-7 -19 -17 -74.5t-10 -73.5q0 -13 -7 -57t-10 -50q0 -28 -8 -79t-8 -77q8 -3 15 -3q6 0 15 3q7 17 12 20.5t25 86.5
q3 8 23 121q7 42 24 69q1 14 3 27t2 18q14 37 20 72t6 68q2 7 5 24t3 24q15 -3 20 -3q9 0 9 7q0 6 1 19t1 19q0 16 -4 22.5t-17 5.5q-8 2 -26 3t-34 1h-31q-24 0 -36 -4t-57 -7.5t-55 -4.5l-37 2q-17 2 -37.5 -5.5t-30.5 -11.5q-8 -7 -15 -28t-7 -36q0 -22 8 -22l12 2
l-20 -159q-6 -32 -12 -63q1 -5 1 -17q0 -10 0.5 -20t4.5 -19q-4 -12 -4 -31q0 -16 3 -39q7 -54 7 -57q-1 -12 5 -20t17 -8q21 0 39 28l18 30q0 17 -8 17q-4 0 -10 -6q-5 3 -7 18t-2 34v26t1 23z" />
    <glyph glyph-name="Eth" unicode="&#xd0;" horiz-adv-x="342" 
d="M49 -63q14 0 29 17q10 12 22 34q-8 4 -14 14t-6 33q0 12 3 29.5t5 27.5q114 23 178 73q69 54 69 131q0 12 -3 27.5t-4 20.5q-19 82 -102 151q-72 60 -107 56q-9 7 -13 7q-7 0 -24 -17q-18 -9 -27.5 -20.5t-9.5 -32.5q5 -9 18 -27.5t17 -26.5q-25 -160 -49 -319
q-10 -6 -19 -12t-9 -12q0 -9 26 -23q1 -2 1 -11q0 -19 -1 -34.5t-2 -28.5q0 -24 4.5 -39t17.5 -18zM262 246q-11 -38 -63 -69q-43 -26 -90 -36q-1 -1 -6 1.5t-7 2.5q2 3 7 46t12 57q6 3 7 7.5t1 14.5v11q2 6 18 61q10 36 15 45q-1 8 -1 16t-2 11q-23 32 -32 45q-10 9 -10 11
q7 -1 15 -1q14 -5 28 -16q53 -39 80.5 -90.5t27.5 -116.5z" />
    <glyph glyph-name="Eth" unicode="&#x420;" horiz-adv-x="342" 
d="M49 -63q14 0 29 17q10 12 22 34q-8 4 -14 14t-6 33q0 12 3 29.5t5 27.5q114 23 178 73q69 54 69 131q0 12 -3 27.5t-4 20.5q-19 82 -102 151q-72 60 -107 56q-9 7 -13 7q-7 0 -24 -17q-18 -9 -27.5 -20.5t-9.5 -32.5q5 -9 18 -27.5t17 -26.5q-25 -160 -49 -319
q-10 -6 -19 -12t-9 -12q0 -9 26 -23q1 -2 1 -11q0 -19 -1 -34.5t-2 -28.5q0 -24 4.5 -39t17.5 -18zM262 246q-11 -38 -63 -69q-43 -26 -90 -36q-1 -1 -6 1.5t-7 2.5q2 3 7 46t12 57q6 3 7 7.5t1 14.5v11q2 6 18 61q10 36 15 45q-1 8 -1 16t-2 11q-23 32 -32 45q-10 9 -10 11
q7 -1 15 -1q14 -5 28 -16q53 -39 80.5 -90.5t27.5 -116.5z" />
    <glyph glyph-name="Ntilde" unicode="&#xd1;" horiz-adv-x="369" 
d="M90 -18q23 -8 45.5 -14t40.5 -6q8 0 18.5 1t22 4t38.5 16t32 15q2 3 15.5 14.5t19.5 19t6 15.5q0 14 -8 14q-4 0 -4 -10q-35 -18 -53 -25q-34 -14 -58 -14q-14 0 -25 4q-13 0 -31.5 14.5t-37.5 30.5q-6 21 -16 46q-19 47 -19 77q0 9 9 54q5 25 5 39q25 68 53 107
q23 33 54 54q10 7 24.5 11t32.5 4q26 0 42.5 -9t16.5 -29q0 -17 -16 -42q-14 -18 -25.5 -69t-11.5 -101q2 -1 11.5 -2.5t15.5 -1.5q22 0 34 17q8 12 17 46q9 26 21 77q8 34 8 42q2 5 2 12v11q0 34 -10 61q0 24 -20 38t-52 14q-9 -1 -14 -1q-40 0 -92.5 -33t-59.5 -55
q-16 -8 -34 -32q-11 -15 -22 -37q-35 -62 -49 -116q-10 -39 -10 -83q0 -60 23.5 -111.5t60.5 -66.5z" />
    <glyph glyph-name="Ntilde" unicode="&#x421;" horiz-adv-x="369" 
d="M90 -18q23 -8 45.5 -14t40.5 -6q8 0 18.5 1t22 4t38.5 16t32 15q2 3 15.5 14.5t19.5 19t6 15.5q0 14 -8 14q-4 0 -4 -10q-35 -18 -53 -25q-34 -14 -58 -14q-14 0 -25 4q-13 0 -31.5 14.5t-37.5 30.5q-6 21 -16 46q-19 47 -19 77q0 9 9 54q5 25 5 39q25 68 53 107
q23 33 54 54q10 7 24.5 11t32.5 4q26 0 42.5 -9t16.5 -29q0 -17 -16 -42q-14 -18 -25.5 -69t-11.5 -101q2 -1 11.5 -2.5t15.5 -1.5q22 0 34 17q8 12 17 46q9 26 21 77q8 34 8 42q2 5 2 12v11q0 34 -10 61q0 24 -20 38t-52 14q-9 -1 -14 -1q-40 0 -92.5 -33t-59.5 -55
q-16 -8 -34 -32q-11 -15 -22 -37q-35 -62 -49 -116q-10 -39 -10 -83q0 -60 23.5 -111.5t60.5 -66.5z" />
    <glyph glyph-name="Ograve" unicode="&#xd2;" horiz-adv-x="298" 
d="M138 -23q3 5 11.5 9t11.5 10q2 21 3 41.5t1 71.5q6 23 10.5 53.5t9.5 66.5q8 25 19 85.5t16 101.5q-1 14 -5 20.5t-24 26.5q3 9 27 9q11 -1 16 -1q15 -3 32.5 -5.5t19.5 -2.5q3 -2 5 3t2 11q0 8 -1 11q1 18 1 26q0 12 -7 19q-7 0 -23 4t-24 4h-6q-4 -2 -5 -2q-16 2 -24 2
q-13 0 -39 -3t-38 -3q-6 0 -20 2q-26 -3 -46.5 -6t-27.5 -19q-4 -4 -9 -19.5t-5 -27.5q-4 -9 -4 -17q0 -12 15 -12q9 0 26.5 6t38.5 13q3 0 10 2q18 5 26 5q13 0 13 -9q0 -13 -4 -44t-4 -54q-6 -12 -13 -98q-3 -37 -5.5 -64t-2.5 -33q0 -7 1 -22t1 -25q-2 -6 -3 -13t-1 -13
q0 -13 4 -21v-23t2 -27q0 -23 3 -32.5t16 -6.5z" />
    <glyph glyph-name="Ograve" unicode="&#x422;" horiz-adv-x="298" 
d="M138 -23q3 5 11.5 9t11.5 10q2 21 3 41.5t1 71.5q6 23 10.5 53.5t9.5 66.5q8 25 19 85.5t16 101.5q-1 14 -5 20.5t-24 26.5q3 9 27 9q11 -1 16 -1q15 -3 32.5 -5.5t19.5 -2.5q3 -2 5 3t2 11q0 8 -1 11q1 18 1 26q0 12 -7 19q-7 0 -23 4t-24 4h-6q-4 -2 -5 -2q-16 2 -24 2
q-13 0 -39 -3t-38 -3q-6 0 -20 2q-26 -3 -46.5 -6t-27.5 -19q-4 -4 -9 -19.5t-5 -27.5q-4 -9 -4 -17q0 -12 15 -12q9 0 26.5 6t38.5 13q3 0 10 2q18 5 26 5q13 0 13 -9q0 -13 -4 -44t-4 -54q-6 -12 -13 -98q-3 -37 -5.5 -64t-2.5 -33q0 -7 1 -22t1 -25q-2 -6 -3 -13t-1 -13
q0 -13 4 -21v-23t2 -27q0 -23 3 -32.5t16 -6.5z" />
    <glyph glyph-name="Oacute" unicode="&#xd3;" horiz-adv-x="343" 
d="M85 57q-8 -11 -13 -34q-1 -4 -15.5 -12t-14.5 -18q1 -10 16 -17q11 -4 22 -9q23 4 31 12q28 6 28 25l7 17q4 13 10.5 43.5t6.5 40.5q15 21 27 53.5t18 48.5q13 19 26 39q7 13 27 45t20 35q3 2 9 17t6 20q14 23 24 57.5t17 97.5q-7 14 -16 14q-13 0 -33.5 -34.5
t-40.5 -69.5q-8 -19 -24.5 -52.5t-18.5 -45.5q-22 -48 -37 -78.5t-23 -32.5q-10 12 -16.5 43t-13 64t-9.5 52t-3 37v12t5 34q2 25 -9 37t-29 12q-14 0 -28.5 -8.5t-21.5 -21.5q0 -25 2.5 -43.5t7.5 -20.5q-1 -5 -1 -17q0 -36 13 -89q0 -1 19 -68q7 -12 18 -37q20 -45 37 -53
q0 -18 -14 -49.5t-16 -45.5z" />
    <glyph glyph-name="Oacute" unicode="&#x423;" horiz-adv-x="343" 
d="M85 57q-8 -11 -13 -34q-1 -4 -15.5 -12t-14.5 -18q1 -10 16 -17q11 -4 22 -9q23 4 31 12q28 6 28 25l7 17q4 13 10.5 43.5t6.5 40.5q15 21 27 53.5t18 48.5q13 19 26 39q7 13 27 45t20 35q3 2 9 17t6 20q14 23 24 57.5t17 97.5q-7 14 -16 14q-13 0 -33.5 -34.5
t-40.5 -69.5q-8 -19 -24.5 -52.5t-18.5 -45.5q-22 -48 -37 -78.5t-23 -32.5q-10 12 -16.5 43t-13 64t-9.5 52t-3 37v12t5 34q2 25 -9 37t-29 12q-14 0 -28.5 -8.5t-21.5 -21.5q0 -25 2.5 -43.5t7.5 -20.5q-1 -5 -1 -17q0 -36 13 -89q0 -1 19 -68q7 -12 18 -37q20 -45 37 -53
q0 -18 -14 -49.5t-16 -45.5z" />
    <glyph glyph-name="Ocircumflex" unicode="&#xd4;" horiz-adv-x="385" 
d="M219 119l-19 -8q-4 -31 -6 -42.5t-11 -31.5q-20 -84 -25 -87.5t-12 -19.5q-9 -3 -15 -3q-11 3 -15 3q0 26 8 77t8 79l3 7q-18 -3 -23 -3.5t-18 -0.5q-47 0 -69 23t-22 59q0 16 5 34q0 4 3 12t1 14q-6 16 17 63q27 56 73 102l21 10q14 -2 14 -10q0 -9 -14 -21q1 -5 3 -10
q6 0 10 5.5t15.5 9t22.5 7.5l16 9v21.5t1 21.5q0 8 -2 22q14 20 29 41q28 31 41 31q14 0 14 -32q0 -29 -12 -89v-6q47 -10 80.5 -40t39.5 -61q1 -4 1 -13q0 -55 -64 -109q-31 -27 -99 -64zM223 156q39 21 57 39q12 17 25 35q10 17 10 38q0 26 -15.5 48.5t-43.5 32.5
q-5 -28 -7.5 -39t-13.5 -38q0 -6 -2 -22t-3 -23q-10 -16 -16 -38t-9 -43zM171 283q6 11 14 70q-27 -5 -40.5 -11t-44.5 -31q-13 -35 -19 -53q-11 -32 -11 -56q0 -18 8 -37.5t25 -28t41 -8.5q15 71 15 103z" />
    <glyph glyph-name="Ocircumflex" unicode="&#x424;" horiz-adv-x="385" 
d="M219 119l-19 -8q-4 -31 -6 -42.5t-11 -31.5q-20 -84 -25 -87.5t-12 -19.5q-9 -3 -15 -3q-11 3 -15 3q0 26 8 77t8 79l3 7q-18 -3 -23 -3.5t-18 -0.5q-47 0 -69 23t-22 59q0 16 5 34q0 4 3 12t1 14q-6 16 17 63q27 56 73 102l21 10q14 -2 14 -10q0 -9 -14 -21q1 -5 3 -10
q6 0 10 5.5t15.5 9t22.5 7.5l16 9v21.5t1 21.5q0 8 -2 22q14 20 29 41q28 31 41 31q14 0 14 -32q0 -29 -12 -89v-6q47 -10 80.5 -40t39.5 -61q1 -4 1 -13q0 -55 -64 -109q-31 -27 -99 -64zM223 156q39 21 57 39q12 17 25 35q10 17 10 38q0 26 -15.5 48.5t-43.5 32.5
q-5 -28 -7.5 -39t-13.5 -38q0 -6 -2 -22t-3 -23q-10 -16 -16 -38t-9 -43zM171 283q6 11 14 70q-27 -5 -40.5 -11t-44.5 -31q-13 -35 -19 -53q-11 -32 -11 -56q0 -18 8 -37.5t25 -28t41 -8.5q15 71 15 103z" />
    <glyph glyph-name="Otilde" unicode="&#xd5;" horiz-adv-x="375" 
d="M32 10q-6 -4 -10 -17.5t-4 -25.5q0 -22 8 -22q7 -3 35 46q16 29 27 36q3 8 21.5 39t25.5 49q2 2 13 18.5t16 18.5q5 0 9 -7q8 -16 17 -32q17 -30 23 -38.5t16 -17.5q5 -12 19 -27q20 -21 39 -24q10 0 19 2t9 13q0 5 -4.5 12t-13.5 16q-13 22 -28 48q-18 33 -28 55
q-9 10 -18 30.5t-9 34.5q0 8 3 13q8 12 78 99q90 112 90 191q-11 27 -23 27q-8 0 -20 -12q-28 -20 -40 -29q-28 -22 -36 -33q-11 -8 -11 -21q0 -19 21 -13q6 6 11 6q0 -5 -12 -25q-25 -41 -33 -55q-2 -7 -22.5 -34t-29.5 -46q-6 -1 -10 21t-6 26q-7 5 -17 55t-10 68
q7 8 7 25q0 15 -5.5 28t-15.5 21q-3 14 -15 14q-6 0 -15 -4.5t-19 -15.5q-12 -23 -18.5 -40t-6.5 -32q0 -12 2.5 -20t9.5 -19q0 -13 5 -28t10 -29q0 -28 18 -71q6 -15 33 -67q3 -12 -9 -31q-15 -23 -30 -45q-12 -26 -46 -81q-22 -36 -20 -50z" />
    <glyph glyph-name="Otilde" unicode="&#x425;" horiz-adv-x="375" 
d="M32 10q-6 -4 -10 -17.5t-4 -25.5q0 -22 8 -22q7 -3 35 46q16 29 27 36q3 8 21.5 39t25.5 49q2 2 13 18.5t16 18.5q5 0 9 -7q8 -16 17 -32q17 -30 23 -38.5t16 -17.5q5 -12 19 -27q20 -21 39 -24q10 0 19 2t9 13q0 5 -4.5 12t-13.5 16q-13 22 -28 48q-18 33 -28 55
q-9 10 -18 30.5t-9 34.5q0 8 3 13q8 12 78 99q90 112 90 191q-11 27 -23 27q-8 0 -20 -12q-28 -20 -40 -29q-28 -22 -36 -33q-11 -8 -11 -21q0 -19 21 -13q6 6 11 6q0 -5 -12 -25q-25 -41 -33 -55q-2 -7 -22.5 -34t-29.5 -46q-6 -1 -10 21t-6 26q-7 5 -17 55t-10 68
q7 8 7 25q0 15 -5.5 28t-15.5 21q-3 14 -15 14q-6 0 -15 -4.5t-19 -15.5q-12 -23 -18.5 -40t-6.5 -32q0 -12 2.5 -20t9.5 -19q0 -13 5 -28t10 -29q0 -28 18 -71q6 -15 33 -67q3 -12 -9 -31q-15 -23 -30 -45q-12 -26 -46 -81q-22 -36 -20 -50z" />
    <glyph glyph-name="Odieresis" unicode="&#xd6;" horiz-adv-x="409" 
d="M308 462q14 20 29 41q28 31 41 31q14 0 14 -32q0 -29 -12 -89q0 -38 -5.5 -68.5t-20.5 -71.5q0 -6 -2 -22t-3 -23q-17 -26 -23.5 -68.5t-11.5 -81.5q9 2 40.5 6t42.5 3q3 -3 3 -21q0 -22 -4 -51t-8 -37q-8 -21 -8 -24q0 -7 -1 -10l-15 -26q-10 -1 -18 1t-16 7q-5 4 7 55
q7 31 7 39q-6 4 -10 3q-6 -4 -32 -6t-36 -9q-6 -2 -43 -11q-17 -4 -29 -9q-20 0 -54 -3q-90 -8 -109 -8q-15 0 -21 1q-5 3 -5 16q0 10 1 22l2 24q0 26 4 52.5t10 46.5q-1 4 -1 13t1 20l2 22q2 13 5 30.5t8.5 38t10 67t9.5 99.5q2 11 4 38t4 32q19 21 50 21q26 0 26 -24
q0 -9 -6 -24q-5 -34 -12 -68t-8 -42q-6 -28 -11.5 -61t-5.5 -57q0 -34 -4 -67q-8 -53 -15 -106v-26l95 5q19 0 44 8t34 11l45 244q6 31 9.5 60t3.5 58v13q0 6 -2 18z" />
    <glyph glyph-name="Odieresis" unicode="&#x426;" horiz-adv-x="409" 
d="M308 462q14 20 29 41q28 31 41 31q14 0 14 -32q0 -29 -12 -89q0 -38 -5.5 -68.5t-20.5 -71.5q0 -6 -2 -22t-3 -23q-17 -26 -23.5 -68.5t-11.5 -81.5q9 2 40.5 6t42.5 3q3 -3 3 -21q0 -22 -4 -51t-8 -37q-8 -21 -8 -24q0 -7 -1 -10l-15 -26q-10 -1 -18 1t-16 7q-5 4 7 55
q7 31 7 39q-6 4 -10 3q-6 -4 -32 -6t-36 -9q-6 -2 -43 -11q-17 -4 -29 -9q-20 0 -54 -3q-90 -8 -109 -8q-15 0 -21 1q-5 3 -5 16q0 10 1 22l2 24q0 26 4 52.5t10 46.5q-1 4 -1 13t1 20l2 22q2 13 5 30.5t8.5 38t10 67t9.5 99.5q2 11 4 38t4 32q19 21 50 21q26 0 26 -24
q0 -9 -6 -24q-5 -34 -12 -68t-8 -42q-6 -28 -11.5 -61t-5.5 -57q0 -34 -4 -67q-8 -53 -15 -106v-26l95 5q19 0 44 8t34 11l45 244q6 31 9.5 60t3.5 58v13q0 6 -2 18z" />
    <glyph glyph-name="multiply" unicode="&#xd7;" horiz-adv-x="400" 
d="M76 180q11 3 21.5 6t19.5 7q9 0 19.5 2.5t21.5 7.5q22 13 60 16.5t61 5.5q0 -19 -9.5 -73.5t-17.5 -71.5q0 -28 -8 -79t-8 -77q8 -3 15 -3q6 0 15 3q7 17 12 20.5t25 86.5q3 8 23 121q7 42 24 69q1 14 3 27t2 18q14 37 20 72t6 68q12 62 12 90q0 31 -14 31q-13 0 -41 -31
q-5 -10 -14 -20.5t-15 -20.5q2 -7 2 -16v-18q0 -39 -7.5 -86.5t-12.5 -57.5q-9 -4 -24.5 -6t-31.5 -2h-15q-9 2 -13 2q-15 -5 -46.5 -6t-45.5 -5q-17 -5 -17 14q0 9 4 28q9 43 9 53q0 1 10 51q4 21 10 59q6 15 6 25q0 24 -26 24q-30 0 -50 -22q-1 -4 -3.5 -24.5t-4.5 -45.5
l-20 -168q-5 -21 -6 -27t-1 -15q0 -6 2 -17t8 -13t22 -2h18z" />
    <glyph glyph-name="multiply" unicode="&#x427;" horiz-adv-x="400" 
d="M76 180q11 3 21.5 6t19.5 7q9 0 19.5 2.5t21.5 7.5q22 13 60 16.5t61 5.5q0 -19 -9.5 -73.5t-17.5 -71.5q0 -28 -8 -79t-8 -77q8 -3 15 -3q6 0 15 3q7 17 12 20.5t25 86.5q3 8 23 121q7 42 24 69q1 14 3 27t2 18q14 37 20 72t6 68q12 62 12 90q0 31 -14 31q-13 0 -41 -31
q-5 -10 -14 -20.5t-15 -20.5q2 -7 2 -16v-18q0 -39 -7.5 -86.5t-12.5 -57.5q-9 -4 -24.5 -6t-31.5 -2h-15q-9 2 -13 2q-15 -5 -46.5 -6t-45.5 -5q-17 -5 -17 14q0 9 4 28q9 43 9 53q0 1 10 51q4 21 10 59q6 15 6 25q0 24 -26 24q-30 0 -50 -22q-1 -4 -3.5 -24.5t-4.5 -45.5
l-20 -168q-5 -21 -6 -27t-1 -15q0 -6 2 -17t8 -13t22 -2h18z" />
    <glyph glyph-name="Oslash" unicode="&#xd8;" horiz-adv-x="639" 
d="M27 -16q-25 0 -25 34q0 4 1 10t1 9q10 78 16 119q13 78 19 117q-14 15 -14 38q0 16 5 35q8 24 11 35q12 46 25 93q20 54 63 63q10 -3 15 -9t5 -18q-4 -15 -7 -38t-5 -44q-8 -24 -11.5 -56.5t-6 -35t-4.5 -18.5t-7 -23q0 -10 -19.5 -99t-19.5 -120q0 -20 5 -25
q23 -15 49 -15q3 1 11 1q9 0 25.5 -2.5t20.5 -2.5q10 0 17 4l52 4q0 26 4 52.5t10 46.5q-1 4 -1 13t1 20l2 22q2 13 5 30.5t8.5 38t10 67t9.5 99.5q2 11 4 38t4 32q19 21 50 21q26 0 26 -24q0 -9 -6 -24q-5 -34 -12 -68t-8 -42q-6 -28 -11.5 -61t-5.5 -57q0 -34 -4 -67
q-8 -53 -15 -106v-26l84 5q19 0 44 8t34 11l45 244q6 31 9.5 60t3.5 58v13q0 6 -2 18q14 20 29 41q28 31 41 31q14 0 14 -32q0 -29 -12 -89q0 -38 -5.5 -68.5t-20.5 -71.5q0 -6 -2 -22t-3 -23q-17 -28 -25 -81q-11 -74 -14 -86l1 -31q-5 -3 -19.5 -8.5t-25.5 -13.5
q-6 -2 -43 -11q-17 -4 -29 -9q-4 0 -128 -8q-62 -4 -85 -4q-17 0 -28 1t-26.5 1.5t-36.5 0.5h-48q-41 0 -45 5z" />
    <glyph glyph-name="Oslash" unicode="&#x428;" horiz-adv-x="639" 
d="M27 -16q-25 0 -25 34q0 4 1 10t1 9q10 78 16 119q13 78 19 117q-14 15 -14 38q0 16 5 35q8 24 11 35q12 46 25 93q20 54 63 63q10 -3 15 -9t5 -18q-4 -15 -7 -38t-5 -44q-8 -24 -11.5 -56.5t-6 -35t-4.5 -18.5t-7 -23q0 -10 -19.5 -99t-19.5 -120q0 -20 5 -25
q23 -15 49 -15q3 1 11 1q9 0 25.5 -2.5t20.5 -2.5q10 0 17 4l52 4q0 26 4 52.5t10 46.5q-1 4 -1 13t1 20l2 22q2 13 5 30.5t8.5 38t10 67t9.5 99.5q2 11 4 38t4 32q19 21 50 21q26 0 26 -24q0 -9 -6 -24q-5 -34 -12 -68t-8 -42q-6 -28 -11.5 -61t-5.5 -57q0 -34 -4 -67
q-8 -53 -15 -106v-26l84 5q19 0 44 8t34 11l45 244q6 31 9.5 60t3.5 58v13q0 6 -2 18q14 20 29 41q28 31 41 31q14 0 14 -32q0 -29 -12 -89q0 -38 -5.5 -68.5t-20.5 -71.5q0 -6 -2 -22t-3 -23q-17 -28 -25 -81q-11 -74 -14 -86l1 -31q-5 -3 -19.5 -8.5t-25.5 -13.5
q-6 -2 -43 -11q-17 -4 -29 -9q-4 0 -128 -8q-62 -4 -85 -4q-17 0 -28 1t-26.5 1.5t-36.5 0.5h-48q-41 0 -45 5z" />
    <glyph glyph-name="Ugrave" unicode="&#xd9;" horiz-adv-x="639" 
d="M27 -16q-25 0 -25 34q0 4 1 10t1 9q10 78 16 119q13 78 19 117q-14 15 -14 38q0 16 5 35q8 24 11 35q12 46 25 93q20 54 63 63q10 -3 15 -9t5 -18q-4 -15 -7 -38t-5 -44q-8 -24 -11.5 -56.5t-6 -35t-4.5 -18.5t-7 -23q0 -10 -19.5 -99t-19.5 -120q0 -20 5 -25
q23 -15 49 -15q3 1 11 1q9 0 25.5 -2.5t20.5 -2.5q10 0 17 4l52 4q0 26 4 52.5t10 46.5q-1 4 -1 13t1 20l2 22q2 13 5 30.5t8.5 38t10 67t9.5 99.5q2 11 4 38t4 32q19 21 50 21q26 0 26 -24q0 -9 -6 -24q-5 -34 -12 -68t-8 -42q-6 -28 -11.5 -61t-5.5 -57q0 -34 -4 -67
q-8 -53 -15 -106v-26l84 5q19 0 44 8t34 11l45 244q6 31 9.5 60t3.5 58v13q0 6 -2 18q14 20 29 41q28 31 41 31q14 0 14 -32q0 -29 -12 -89q0 -38 -5.5 -68.5t-20.5 -71.5q0 -6 -2 -22t-3 -23q-17 -26 -23.5 -68.5t-11.5 -81.5q9 2 40.5 6t42.5 3q3 -3 3 -21q0 -22 -4 -51
t-8 -37q-8 -21 -8 -24q0 -7 -1 -10l-15 -26q-10 -1 -18 1t-16 7q-5 4 7 55q7 31 7 39q-6 4 -10 3q-6 -4 -32 -6t-36 -9q-6 -2 -43 -11q-17 -4 -29 -9q-4 0 -128 -8q-62 -4 -85 -4q-17 0 -28 1t-26.5 1.5t-36.5 0.5h-48q-41 0 -45 5z" />
    <glyph glyph-name="Ugrave" unicode="&#x429;" horiz-adv-x="639" 
d="M27 -16q-25 0 -25 34q0 4 1 10t1 9q10 78 16 119q13 78 19 117q-14 15 -14 38q0 16 5 35q8 24 11 35q12 46 25 93q20 54 63 63q10 -3 15 -9t5 -18q-4 -15 -7 -38t-5 -44q-8 -24 -11.5 -56.5t-6 -35t-4.5 -18.5t-7 -23q0 -10 -19.5 -99t-19.5 -120q0 -20 5 -25
q23 -15 49 -15q3 1 11 1q9 0 25.5 -2.5t20.5 -2.5q10 0 17 4l52 4q0 26 4 52.5t10 46.5q-1 4 -1 13t1 20l2 22q2 13 5 30.5t8.5 38t10 67t9.5 99.5q2 11 4 38t4 32q19 21 50 21q26 0 26 -24q0 -9 -6 -24q-5 -34 -12 -68t-8 -42q-6 -28 -11.5 -61t-5.5 -57q0 -34 -4 -67
q-8 -53 -15 -106v-26l84 5q19 0 44 8t34 11l45 244q6 31 9.5 60t3.5 58v13q0 6 -2 18q14 20 29 41q28 31 41 31q14 0 14 -32q0 -29 -12 -89q0 -38 -5.5 -68.5t-20.5 -71.5q0 -6 -2 -22t-3 -23q-17 -26 -23.5 -68.5t-11.5 -81.5q9 2 40.5 6t42.5 3q3 -3 3 -21q0 -22 -4 -51
t-8 -37q-8 -21 -8 -24q0 -7 -1 -10l-15 -26q-10 -1 -18 1t-16 7q-5 4 7 55q7 31 7 39q-6 4 -10 3q-6 -4 -32 -6t-36 -9q-6 -2 -43 -11q-17 -4 -29 -9q-4 0 -128 -8q-62 -4 -85 -4q-17 0 -28 1t-26.5 1.5t-36.5 0.5h-48q-41 0 -45 5z" />
    <glyph glyph-name="Uacute" unicode="&#xda;" horiz-adv-x="391" 
d="M137 476q-19 -74 -32 -153t-25 -191q-5 -45 -5 -67q0 -35 11.5 -50.5t39.5 -18.5q17 -3 31 -3q16 0 22 1q29 7 49.5 11.5t47.5 18.5t43.5 30.5t28.5 36.5q18 30 18 53q0 41 -29 78q-19 25 -47.5 44.5t-61.5 35t-62 26.5q12 53 25 106q14 42 41 77q3 6 3 10q0 14 -21 21.5
t-52 7.5q-15 0 -31 -3.5t-39.5 -8t-35 -8.5t-45.5 -22q-14 -1 -14 -20q0 -26 16 -34q27 10 76 18zM148 204l10 78q6 -3 11 -8t8 -12t17 -15q35 -12 70 -44q42 -38 42 -72q-11 -29 -21.5 -40.5t-43 -31t-69.5 -19.5q-20 0 -26.5 10.5t-6.5 58.5q0 45 9 95z" />
    <glyph glyph-name="Uacute" unicode="&#x42a;" horiz-adv-x="391" 
d="M137 476q-19 -74 -32 -153t-25 -191q-5 -45 -5 -67q0 -35 11.5 -50.5t39.5 -18.5q17 -3 31 -3q16 0 22 1q29 7 49.5 11.5t47.5 18.5t43.5 30.5t28.5 36.5q18 30 18 53q0 41 -29 78q-19 25 -47.5 44.5t-61.5 35t-62 26.5q12 53 25 106q14 42 41 77q3 6 3 10q0 14 -21 21.5
t-52 7.5q-15 0 -31 -3.5t-39.5 -8t-35 -8.5t-45.5 -22q-14 -1 -14 -20q0 -26 16 -34q27 10 76 18zM148 204l10 78q6 -3 11 -8t8 -12t17 -15q35 -12 70 -44q42 -38 42 -72q-11 -29 -21.5 -40.5t-43 -31t-69.5 -19.5q-20 0 -26.5 10.5t-6.5 58.5q0 45 9 95z" />
    <glyph glyph-name="Ucircumflex" unicode="&#xdb;" horiz-adv-x="486" 
d="M355 11q3 -25 21 -25q6 0 14 3q6 10 15 15.5t10 14.5q-7 36 -7 79q0 58 15 145q12 58 16 86q-4 7 4 39t17 69q0 3 7.5 33t7.5 44q0 23 -15 23q-12 0 -29 -12q-41 0 -61 -75q-11 -47 -15 -62q2 -3 2.5 -6t1.5 -4q-1 -2 -3.5 -12t-2.5 -22q0 -9 2 -15q4 2 7.5 -7t3.5 -22
q0 -15 -5 -25q0 -36 -3 -73q-9 -110 -9 -121q0 -34 6 -70zM111 387q-4 -21 -7 -36t-6 -26q36 -13 62.5 -25.5t59.5 -35.5q29 -20 48 -44q30 -38 30 -79q0 -25 -17 -53q-11 -18 -28.5 -35.5t-44.5 -31.5t-49 -19q-47 -12 -72 -12q-12 0 -29 3q-29 3 -40 18t-11 52q0 21 5 66
q16 156 39 271q3 15 8 33.5t9.5 36.5t9 36.5t17.5 30.5t35 12q19 0 35.5 -9t16.5 -19t-20 -14q-19 -25 -31.5 -56t-19.5 -64zM80 201q-9 -51 -9 -96q0 -47 6.5 -57.5t26.5 -10.5q17 0 35.5 5t34.5 15q48 28 64 71q0 33 -41 71q-36 33 -71 45q-14 8 -16.5 13.5t-7.5 12
t-12 9.5z" />
    <glyph glyph-name="Ucircumflex" unicode="&#x42b;" horiz-adv-x="486" 
d="M355 11q3 -25 21 -25q6 0 14 3q6 10 15 15.5t10 14.5q-7 36 -7 79q0 58 15 145q12 58 16 86q-4 7 4 39t17 69q0 3 7.5 33t7.5 44q0 23 -15 23q-12 0 -29 -12q-41 0 -61 -75q-11 -47 -15 -62q2 -3 2.5 -6t1.5 -4q-1 -2 -3.5 -12t-2.5 -22q0 -9 2 -15q4 2 7.5 -7t3.5 -22
q0 -15 -5 -25q0 -36 -3 -73q-9 -110 -9 -121q0 -34 6 -70zM111 387q-4 -21 -7 -36t-6 -26q36 -13 62.5 -25.5t59.5 -35.5q29 -20 48 -44q30 -38 30 -79q0 -25 -17 -53q-11 -18 -28.5 -35.5t-44.5 -31.5t-49 -19q-47 -12 -72 -12q-12 0 -29 3q-29 3 -40 18t-11 52q0 21 5 66
q16 156 39 271q3 15 8 33.5t9.5 36.5t9 36.5t17.5 30.5t35 12q19 0 35.5 -9t16.5 -19t-20 -14q-19 -25 -31.5 -56t-19.5 -64zM80 201q-9 -51 -9 -96q0 -47 6.5 -57.5t26.5 -10.5q17 0 35.5 5t34.5 15q48 28 64 71q0 33 -41 71q-36 33 -71 45q-14 8 -16.5 13.5t-7.5 12
t-12 9.5z" />
    <glyph glyph-name="Udieresis" unicode="&#xdc;" horiz-adv-x="334" 
d="M122 390q-4 -21 -7 -36t-6 -26q36 -13 62.5 -25.5t59.5 -35.5q29 -20 48 -44q30 -38 30 -79q0 -25 -17 -53q-11 -18 -28.5 -35.5t-44.5 -31.5t-49 -19q-47 -12 -72 -12q-12 0 -29 3q-29 3 -40 18t-11 52q0 21 5 66q16 156 39 271q3 15 8 33.5t9.5 36.5t9 36.5t17.5 30.5
t35 12q19 0 35.5 -9t16.5 -19t-20 -14q-19 -25 -31.5 -56t-19.5 -64zM91 204q-9 -51 -9 -96q0 -47 6.5 -57.5t26.5 -10.5q17 0 35.5 5t34.5 15q48 28 64 71q0 33 -41 71q-36 33 -71 45q-14 8 -16.5 13.5t-7.5 12t-12 9.5z" />
    <glyph glyph-name="Udieresis" unicode="&#x42c;" horiz-adv-x="334" 
d="M122 390q-4 -21 -7 -36t-6 -26q36 -13 62.5 -25.5t59.5 -35.5q29 -20 48 -44q30 -38 30 -79q0 -25 -17 -53q-11 -18 -28.5 -35.5t-44.5 -31.5t-49 -19q-47 -12 -72 -12q-12 0 -29 3q-29 3 -40 18t-11 52q0 21 5 66q16 156 39 271q3 15 8 33.5t9.5 36.5t9 36.5t17.5 30.5
t35 12q19 0 35.5 -9t16.5 -19t-20 -14q-19 -25 -31.5 -56t-19.5 -64zM91 204q-9 -51 -9 -96q0 -47 6.5 -57.5t26.5 -10.5q17 0 35.5 5t34.5 15q48 28 64 71q0 33 -41 71q-36 33 -71 45q-14 8 -16.5 13.5t-7.5 12t-12 9.5z" />
    <glyph glyph-name="Yacute" unicode="&#xdd;" horiz-adv-x="428" 
d="M357 190q9 15 18 31q4 9 10 34q11 35 17 55q12 39 12 69q0 23 -5.5 43.5t-19.5 44.5q-37 64 -107 64q-69 0 -132 -61l4 -64q35 50 93 50q35 0 62.5 -23.5t34.5 -67.5q2 -14 2 -35q0 -20 -2 -39t-7.5 -41.5t-8.5 -29.5t-12 -20q-3 1 -27 6t-45 19q-7 4 -34 12.5t-36 23.5
q-17 5 -28 -29l-7 -23q19 -23 74 -40q47 -14 81 -14q-32 -45 -58 -76q-16 -16 -43 -25t-52 -9h-12q-8 2 -11 2q-27 5 -47 42q-24 45 -24 118q4 5 4 10q0 9 -9 9t-15 -13q-12 -25 -15.5 -50.5t-3.5 -58.5q0 -59 30 -91t77 -32q9 0 31 4q56 13 89 36q24 17 46 47l58 80
q9 -3 23.5 -6.5t27.5 -6.5q6 7 12.5 15t9 17.5t-2.5 12.5q-8 5 -15 5q-9 -1 -16 -1q-5 1 -6 1q-6 3 -15 5z" />
    <glyph glyph-name="Yacute" unicode="&#x42d;" horiz-adv-x="428" 
d="M357 190q9 15 18 31q4 9 10 34q11 35 17 55q12 39 12 69q0 23 -5.5 43.5t-19.5 44.5q-37 64 -107 64q-69 0 -132 -61l4 -64q35 50 93 50q35 0 62.5 -23.5t34.5 -67.5q2 -14 2 -35q0 -20 -2 -39t-7.5 -41.5t-8.5 -29.5t-12 -20q-3 1 -27 6t-45 19q-7 4 -34 12.5t-36 23.5
q-17 5 -28 -29l-7 -23q19 -23 74 -40q47 -14 81 -14q-32 -45 -58 -76q-16 -16 -43 -25t-52 -9h-12q-8 2 -11 2q-27 5 -47 42q-24 45 -24 118q4 5 4 10q0 9 -9 9t-15 -13q-12 -25 -15.5 -50.5t-3.5 -58.5q0 -59 30 -91t77 -32q9 0 31 4q56 13 89 36q24 17 46 47l58 80
q9 -3 23.5 -6.5t27.5 -6.5q6 7 12.5 15t9 17.5t-2.5 12.5q-8 5 -15 5q-9 -1 -16 -1q-5 1 -6 1q-6 3 -15 5z" />
    <glyph glyph-name="Thorn" unicode="&#xde;" horiz-adv-x="590" 
d="M89 160q0 -11 -0.5 -23.5t-0.5 -26.5q0 -34 1.5 -40.5t7.5 -10.5q6 6 13.5 12.5t11.5 6.5t4 -7q-3 -8 -18 -33q-9 -15 -11 -20q-18 -28 -39 -28q-8 0 -13 4q-11 8 -9 24q0 8 -5 42t-5 54q0 19 4 31q-10 21 -13 28q-7 17 -10 28q2 6 18 37q9 16 11 26l20 168q2 11 4 38
t4 32q19 21 50 21q26 0 26 -24q0 -9 -6 -24q-5 -34 -12 -68t-8 -42q0 -14 -6.5 -44t-6.5 -37q0 -19 17 -14q27 7 49 10.5t43 3.5l16 2q38 98 77 197q9 6 16 7t8 2q14 -2 14 -7q0 -6 -13 -26q-1 -3 -1 -6v-4q0 -7 3 -7q9 6 10 9q5 9 16.5 15.5t22.5 12.5q8 13 26.5 22
t40.5 15q55 -8 96 -64q37 -51 44 -110q0 -100 -62 -195q-36 -55 -100 -114q-7 -4 -12 -7.5t-19 -17.5q-32 -11 -47 -16q-30 -10 -47 -10q-47 0 -69 38t-22 99q0 25 5 57l6 50q-15 -2 -30 -3.5t-27.5 -8.5t-22 -9t-19.5 -2q-10 -5 -20.5 -17.5t-10.5 -25.5zM428 94
q39 35 57 65q12 29 25 58q10 29 10 64q0 60 -27 101q-30 46 -81 46q-47 -12 -69 -30q-11 -9 -38 -46q-2 -9 -14 -66q-16 -74 -16 -115q0 -31 7 -58q17 -66 60 -66q37 0 86 47z" />
    <glyph glyph-name="Thorn" unicode="&#x42e;" horiz-adv-x="590" 
d="M89 160q0 -11 -0.5 -23.5t-0.5 -26.5q0 -34 1.5 -40.5t7.5 -10.5q6 6 13.5 12.5t11.5 6.5t4 -7q-3 -8 -18 -33q-9 -15 -11 -20q-18 -28 -39 -28q-8 0 -13 4q-11 8 -9 24q0 8 -5 42t-5 54q0 19 4 31q-10 21 -13 28q-7 17 -10 28q2 6 18 37q9 16 11 26l20 168q2 11 4 38
t4 32q19 21 50 21q26 0 26 -24q0 -9 -6 -24q-5 -34 -12 -68t-8 -42q0 -14 -6.5 -44t-6.5 -37q0 -19 17 -14q27 7 49 10.5t43 3.5l16 2q38 98 77 197q9 6 16 7t8 2q14 -2 14 -7q0 -6 -13 -26q-1 -3 -1 -6v-4q0 -7 3 -7q9 6 10 9q5 9 16.5 15.5t22.5 12.5q8 13 26.5 22
t40.5 15q55 -8 96 -64q37 -51 44 -110q0 -100 -62 -195q-36 -55 -100 -114q-7 -4 -12 -7.5t-19 -17.5q-32 -11 -47 -16q-30 -10 -47 -10q-47 0 -69 38t-22 99q0 25 5 57l6 50q-15 -2 -30 -3.5t-27.5 -8.5t-22 -9t-19.5 -2q-10 -5 -20.5 -17.5t-10.5 -25.5zM428 94
q39 35 57 65q12 29 25 58q10 29 10 64q0 60 -27 101q-30 46 -81 46q-47 -12 -69 -30q-11 -9 -38 -46q-2 -9 -14 -66q-16 -74 -16 -115q0 -31 7 -58q17 -66 60 -66q37 0 86 47z" />
    <glyph glyph-name="germandbls" unicode="&#xdf;" horiz-adv-x="428" 
d="M314 230q-7 -22 -20.5 -47.5t-26.5 -49.5l-19 -22q-11 -14 -41 -46q-25 -26 -28 -32q-3 -11 -13 -18q-23 -17 -51.5 -26.5t-65.5 -9.5q-9 -6 -18 3q-12 13 -14 13q-7 10 -11 20.5t-1 19.5q15 16 30 33q11 10 19 7q15 -6 22 -12q15 -12 21 -9l34 10l67 55l62 77
q12 21 15 25q8 12 19 23q-28 -17 -56 -33q-18 -10 -41 -18q-16 -5 -43 -11q-60 0 -87 26.5t-27 68.5q0 29 10.5 57.5t26.5 50.5t30 37q19 20 30 26q18 25 70 47.5t99 22.5q14 0 28 -3l41 -10q4 -4 19 -14q21 -14 20 -26q5 -1 9.5 -10t6.5 -11v-12q-9 -9 -35 -23
q-11 -4 -18 -4q-16 0 -19.5 20.5t-7.5 24.5q-3 6 -7 9q-8 6 -13 9q-3 7 -16 11t-29 4t-33 -7t-33 -14q-21 -14 -30 -21q-14 -11 -27 -27q-7 -9 -14 -22q-15 -29 -21 -35q-8 -27 -8 -54q0 -9 2.5 -28.5t17 -30t36.5 -10.5q18 0 41 6.5t38 15t45.5 31t40.5 29.5q4 3 17 3
q4 0 6.5 -4.5t6 -5.5t15 -11t12.5 -12.5t1 -21.5q0 -38 -4 -97t-8 -70q-3 -3 -13 -26l-26 -58q-1 -13 -9 -22t-28 -12q0 -15 -24 -15q-3 2 -3 10q0 9 3 19t4 13q-1 10 11.5 100.5t12.5 123.5z" />
    <glyph glyph-name="germandbls" unicode="&#x42f;" horiz-adv-x="428" 
d="M314 230q-7 -22 -20.5 -47.5t-26.5 -49.5l-19 -22q-11 -14 -41 -46q-25 -26 -28 -32q-3 -11 -13 -18q-23 -17 -51.5 -26.5t-65.5 -9.5q-9 -6 -18 3q-12 13 -14 13q-7 10 -11 20.5t-1 19.5q15 16 30 33q11 10 19 7q15 -6 22 -12q15 -12 21 -9l34 10l67 55l62 77
q12 21 15 25q8 12 19 23q-28 -17 -56 -33q-18 -10 -41 -18q-16 -5 -43 -11q-60 0 -87 26.5t-27 68.5q0 29 10.5 57.5t26.5 50.5t30 37q19 20 30 26q18 25 70 47.5t99 22.5q14 0 28 -3l41 -10q4 -4 19 -14q21 -14 20 -26q5 -1 9.5 -10t6.5 -11v-12q-9 -9 -35 -23
q-11 -4 -18 -4q-16 0 -19.5 20.5t-7.5 24.5q-3 6 -7 9q-8 6 -13 9q-3 7 -16 11t-29 4t-33 -7t-33 -14q-21 -14 -30 -21q-14 -11 -27 -27q-7 -9 -14 -22q-15 -29 -21 -35q-8 -27 -8 -54q0 -9 2.5 -28.5t17 -30t36.5 -10.5q18 0 41 6.5t38 15t45.5 31t40.5 29.5q4 3 17 3
q4 0 6.5 -4.5t6 -5.5t15 -11t12.5 -12.5t1 -21.5q0 -38 -4 -97t-8 -70q-3 -3 -13 -26l-26 -58q-1 -13 -9 -22t-28 -12q0 -15 -24 -15q-3 2 -3 10q0 9 3 19t4 13q-1 10 11.5 100.5t12.5 123.5z" />
    <glyph glyph-name="agrave" unicode="&#xe0;" horiz-adv-x="318" 
d="M2 76q11 -6 11 -13q0 -4 -5 -16v-23q2 -8 12 -12q4 -11 20 -11q15 0 26 11q9 0 18 7q4 3 25 26q12 6 45 38q18 18 32 26q0 -24 11 -45q15 -29 41 -29q4 0 14 2q12 -4 31 9q14 9 18 11q1 3 8.5 9.5t8.5 9.5q-2 8 -2 11q0 1 2 11q-1 16 -1.5 20t-2.5 3q-12 -14 -19 -16
q-9 -8 -20 -8q-26 0 -26 33q0 9 5 24q-4 17 -6 25q-5 15 -19 10q-11 1 -32.5 -15t-26.5 -26q-33 -20 -41 -37q-3 -1 -19 -13t-24 -12q6 14 9.5 20.5t21.5 26.5q11 13 19 19t16 15t12 17q13 3 35.5 25.5t30.5 38.5q16 8 24 17t12 20q-10 17 -27 17q-12 0 -22.5 -5t-50.5 -33
q-6 -7 -60 -47q-38 -29 -51 -55q-25 -21 -33 -27q-13 -11 -14 -18z" />
    <glyph glyph-name="agrave" unicode="&#x430;" horiz-adv-x="318" 
d="M2 76q11 -6 11 -13q0 -4 -5 -16v-23q2 -8 12 -12q4 -11 20 -11q15 0 26 11q9 0 18 7q4 3 25 26q12 6 45 38q18 18 32 26q0 -24 11 -45q15 -29 41 -29q4 0 14 2q12 -4 31 9q14 9 18 11q1 3 8.5 9.5t8.5 9.5q-2 8 -2 11q0 1 2 11q-1 16 -1.5 20t-2.5 3q-12 -14 -19 -16
q-9 -8 -20 -8q-26 0 -26 33q0 9 5 24q-4 17 -6 25q-5 15 -19 10q-11 1 -32.5 -15t-26.5 -26q-33 -20 -41 -37q-3 -1 -19 -13t-24 -12q6 14 9.5 20.5t21.5 26.5q11 13 19 19t16 15t12 17q13 3 35.5 25.5t30.5 38.5q16 8 24 17t12 20q-10 17 -27 17q-12 0 -22.5 -5t-50.5 -33
q-6 -7 -60 -47q-38 -29 -51 -55q-25 -21 -33 -27q-13 -11 -14 -18z" />
    <glyph glyph-name="aacute" unicode="&#xe1;" horiz-adv-x="254" 
d="M0 63q11 8 16 13q9 8 15 18q0 -23 0.5 -50t7.5 -34q18 -18 31 -18q12 0 24 12q2 1 18 7t25 14q12 7 18 10q22 12 29 26q5 5 19 27q4 7 14 23q10 11 19 86q3 25 7 74q0 28 -7.5 70.5t-15.5 85.5q38 14 58.5 20.5t28.5 6.5q16 3 61.5 4t51.5 2q5 26 10 53q0 11 -4 15
q-11 1 -18 1q-46 0 -119 -9q-13 -1 -35 -5q-31 -11 -45 -15q-27 -9 -35 -9l-9 -12q11 -27 22.5 -77.5t11.5 -120.5q0 -55 -15 -106.5t-47 -86.5q-11 -11 -33 -11q-8 0 -11.5 4t-3.5 14q0 7 3 12q-3 13 5 62q3 16 5 25t20 36q10 15 14 24q8 8 13 14q12 13 9 23q-6 1 -17 7
t-19 3q-6 -2 -23 -19q-13 -12 -25 -24q-3 -4 -20 -28q-8 -11 -8 -17q-15 -15 -22.5 -51t-21.5 -51q2 -6 -0.5 -25t-1.5 -23z" />
    <glyph glyph-name="aacute" unicode="&#x431;" horiz-adv-x="254" 
d="M0 63q11 8 16 13q9 8 15 18q0 -23 0.5 -50t7.5 -34q18 -18 31 -18q12 0 24 12q2 1 18 7t25 14q12 7 18 10q22 12 29 26q5 5 19 27q4 7 14 23q10 11 19 86q3 25 7 74q0 28 -7.5 70.5t-15.5 85.5q38 14 58.5 20.5t28.5 6.5q16 3 61.5 4t51.5 2q5 26 10 53q0 11 -4 15
q-11 1 -18 1q-46 0 -119 -9q-13 -1 -35 -5q-31 -11 -45 -15q-27 -9 -35 -9l-9 -12q11 -27 22.5 -77.5t11.5 -120.5q0 -55 -15 -106.5t-47 -86.5q-11 -11 -33 -11q-8 0 -11.5 4t-3.5 14q0 7 3 12q-3 13 5 62q3 16 5 25t20 36q10 15 14 24q8 8 13 14q12 13 9 23q-6 1 -17 7
t-19 3q-6 -2 -23 -19q-13 -12 -25 -24q-3 -4 -20 -28q-8 -11 -8 -17q-15 -15 -22.5 -51t-21.5 -51q2 -6 -0.5 -25t-1.5 -23z" />
    <glyph glyph-name="acircumflex" unicode="&#xe2;" horiz-adv-x="276" 
d="M180 33q5 12 12 24q14 22 15 25q6 14 12 29q11 20 15 31.5t4 20.5t-5.5 12.5t-14.5 3.5q-12 -1 -19 -1t-10 2q-8 -4 -26.5 -24t-22.5 -29q-8 -9 -12.5 -23.5t-4.5 -31.5q1 -2 10.5 -6.5t9.5 -10.5q0 -7 -8 -16q-31 -15 -39 -12q-11 17 -15 34t-4 37q0 26 7.5 49t18.5 35
q40 63 75 143q29 67 58 152q1 11 1 19q0 21 -5 34.5t-19 8.5q-10 5 -34 -8.5t-27 -14.5q-2 -6 -12.5 -17.5t-10.5 -16.5q-17 -26 -31.5 -62t-27.5 -70q-13 -50 -21.5 -83t-7.5 -44q-5 -20 -8.5 -34.5t-7.5 -47.5q0 -5 -7.5 -12.5l-15.5 -15.5q-3 -24 -3.5 -36t1.5 -13
t9.5 7.5t9.5 8.5q1 -29 4 -49q11 -73 53 -73q6 0 10 1q19 4 51 31.5t43 42.5zM201 49q-4 -7 -7 -12t-3 -8q0 -5 4 -8q10 0 16 4q15 11 21 14q4 4 33 24q20 13 20 33q-5 12 -7 19t-7 6q-10 -18 -32 -39q-2 -2 -38 -33zM119 281q-3 -12 -12 -25t-11 -18q8 47 28 97q9 23 44 91
q3 3 6 -0.5t-6 -17.5q-14 -19 -25.5 -64.5t-23.5 -62.5z" />
    <glyph glyph-name="acircumflex" unicode="&#x432;" horiz-adv-x="276" 
d="M180 33q5 12 12 24q14 22 15 25q6 14 12 29q11 20 15 31.5t4 20.5t-5.5 12.5t-14.5 3.5q-12 -1 -19 -1t-10 2q-8 -4 -26.5 -24t-22.5 -29q-8 -9 -12.5 -23.5t-4.5 -31.5q1 -2 10.5 -6.5t9.5 -10.5q0 -7 -8 -16q-31 -15 -39 -12q-11 17 -15 34t-4 37q0 26 7.5 49t18.5 35
q40 63 75 143q29 67 58 152q1 11 1 19q0 21 -5 34.5t-19 8.5q-10 5 -34 -8.5t-27 -14.5q-2 -6 -12.5 -17.5t-10.5 -16.5q-17 -26 -31.5 -62t-27.5 -70q-13 -50 -21.5 -83t-7.5 -44q-5 -20 -8.5 -34.5t-7.5 -47.5q0 -5 -7.5 -12.5l-15.5 -15.5q-3 -24 -3.5 -36t1.5 -13
t9.5 7.5t9.5 8.5q1 -29 4 -49q11 -73 53 -73q6 0 10 1q19 4 51 31.5t43 42.5zM201 49q-4 -7 -7 -12t-3 -8q0 -5 4 -8q10 0 16 4q15 11 21 14q4 4 33 24q20 13 20 33q-5 12 -7 19t-7 6q-10 -18 -32 -39q-2 -2 -38 -33zM119 281q-3 -12 -12 -25t-11 -18q8 47 28 97q9 23 44 91
q3 3 6 -0.5t-6 -17.5q-14 -19 -25.5 -64.5t-23.5 -62.5z" />
    <glyph glyph-name="atilde" unicode="&#xe3;" horiz-adv-x="243" 
d="M77 37q6 -7 13 -26l3 -9q7 -7 21 -7q31 0 76.5 28.5t56.5 52.5q-1 22 -1.5 33.5t-2.5 13.5q-23 -25 -40 -41q-33 -32 -47 -32q-9 0 -10 13q9 34 18 76.5t9 70.5q0 23 -5.5 38.5t-13 22t-14.5 6.5q-6 0 -14 -4q-3 -1 -19.5 -1t-35.5 -17l-73 -80q-1 -4 -1 -16
q0 -16 2.5 -25t10.5 -8q3 2 35 39t43 41q14 7 17 -10q1 -17 3 -34q2 -8 -15.5 -52.5t-17.5 -61.5q0 -8 2 -11z" />
    <glyph glyph-name="atilde" unicode="&#x433;" horiz-adv-x="243" 
d="M77 37q6 -7 13 -26l3 -9q7 -7 21 -7q31 0 76.5 28.5t56.5 52.5q-1 22 -1.5 33.5t-2.5 13.5q-23 -25 -40 -41q-33 -32 -47 -32q-9 0 -10 13q9 34 18 76.5t9 70.5q0 23 -5.5 38.5t-13 22t-14.5 6.5q-6 0 -14 -4q-3 -1 -19.5 -1t-35.5 -17l-73 -80q-1 -4 -1 -16
q0 -16 2.5 -25t10.5 -8q3 2 35 39t43 41q14 7 17 -10q1 -17 3 -34q2 -8 -15.5 -52.5t-17.5 -61.5q0 -8 2 -11z" />
    <glyph glyph-name="adieresis" unicode="&#xe4;" horiz-adv-x="332" 
d="M-2 61q16 13 22 13q-5 -14 -8.5 -25.5t-3.5 -21.5q0 -5 2 -9q11 -24 38 -24q16 0 31.5 9t25.5 24q6 3 12 6.5t28 23.5q10 6 24 16t22 19q4 -1 4 -9q-4 -23 -6 -37t-1 -21q-9 -11 -21 -40q-5 -13 -13 -36q-9 -7 -27 -27t-31 -39q-9 -8 -24 -28.5t-19 -30.5q-4 0 -11 -12
t-13 -13q-15 -20 -21.5 -32.5t-3.5 -22.5q6 -8 21 -8t30.5 7.5t26.5 22.5q21 25 43 50q2 3 21 33q9 13 12 20q5 5 14 19.5t16 23.5q18 39 67 79q65 53 71 60q1 3 0 11.5t-1 18.5q0 8 1 13q-5 6 -26.5 -14.5t-26.5 -22.5q-8 -6 -17 -17t-10 -11l10 46q22 59 23 68
q8 21 11.5 32t3.5 17q0 7 -5 11q-9 2 -17 2t-16.5 -3.5t-21 -17.5t-15.5 -14q-35 -25 -53 -38q-32 -24 -45 -46q-8 -3 -18 -8.5t-19 -9.5q-5 11 10 26q0 8 18 27q23 23 46 47q3 3 22 15.5t29 23.5q15 8 24 14t9 13q-1 1 -13 15q-6 7 -16 7q-9 0 -32 -11.5t-27.5 -14
t-30.5 -19.5q-11 -7 -14 -14q-16 -8 -35 -22.5t-33 -28.5q-15 -11 -29 -21t-14 -18q3 -12 3 -24q0 -13 -3 -22z" />
    <glyph glyph-name="adieresis" unicode="&#x434;" horiz-adv-x="332" 
d="M-2 61q16 13 22 13q-5 -14 -8.5 -25.5t-3.5 -21.5q0 -5 2 -9q11 -24 38 -24q16 0 31.5 9t25.5 24q6 3 12 6.5t28 23.5q10 6 24 16t22 19q4 -1 4 -9q-4 -23 -6 -37t-1 -21q-9 -11 -21 -40q-5 -13 -13 -36q-9 -7 -27 -27t-31 -39q-9 -8 -24 -28.5t-19 -30.5q-4 0 -11 -12
t-13 -13q-15 -20 -21.5 -32.5t-3.5 -22.5q6 -8 21 -8t30.5 7.5t26.5 22.5q21 25 43 50q2 3 21 33q9 13 12 20q5 5 14 19.5t16 23.5q18 39 67 79q65 53 71 60q1 3 0 11.5t-1 18.5q0 8 1 13q-5 6 -26.5 -14.5t-26.5 -22.5q-8 -6 -17 -17t-10 -11l10 46q22 59 23 68
q8 21 11.5 32t3.5 17q0 7 -5 11q-9 2 -17 2t-16.5 -3.5t-21 -17.5t-15.5 -14q-35 -25 -53 -38q-32 -24 -45 -46q-8 -3 -18 -8.5t-19 -9.5q-5 11 10 26q0 8 18 27q23 23 46 47q3 3 22 15.5t29 23.5q15 8 24 14t9 13q-1 1 -13 15q-6 7 -16 7q-9 0 -32 -11.5t-27.5 -14
t-30.5 -19.5q-11 -7 -14 -14q-16 -8 -35 -22.5t-33 -28.5q-15 -11 -29 -21t-14 -18q3 -12 3 -24q0 -13 -3 -22z" />
    <glyph glyph-name="aring" unicode="&#xe5;" horiz-adv-x="230" 
d="M26 29q16 -13 29.5 -18t29.5 -5q29 0 71 24q60 34 70 38q5 8 5 37q2 4 2 9q-8 -2 -15 -3q-19 -13 -20 -13q-13 -8 -21 -14q-26 -16 -66 -16q-19 0 -30 6.5t-11 22.5q0 7 3 16q9 6 13 9q8 6 13 13q25 12 51.5 43.5t24.5 40.5q10 4 10 25q0 24 -10 29q-7 9 -15.5 12
t-19.5 3q-10 0 -20 -4t-12 -9q-11 -6 -25 -18t-23 -23q-7 -3 -16 -17.5t-17 -29.5t-17 -37.5t-9 -30.5q0 -45 12 -67q6 -12 13 -23zM118 217q9 -5 -2 -20.5t-17 -18.5q-5 -14 -22 -14q-6 -1 -5.5 3t7.5 17q9 12 20.5 22.5t18.5 10.5z" />
    <glyph glyph-name="aring" unicode="&#x435;" horiz-adv-x="230" 
d="M26 29q16 -13 29.5 -18t29.5 -5q29 0 71 24q60 34 70 38q5 8 5 37q2 4 2 9q-8 -2 -15 -3q-19 -13 -20 -13q-13 -8 -21 -14q-26 -16 -66 -16q-19 0 -30 6.5t-11 22.5q0 7 3 16q9 6 13 9q8 6 13 13q25 12 51.5 43.5t24.5 40.5q10 4 10 25q0 24 -10 29q-7 9 -15.5 12
t-19.5 3q-10 0 -20 -4t-12 -9q-11 -6 -25 -18t-23 -23q-7 -3 -16 -17.5t-17 -29.5t-17 -37.5t-9 -30.5q0 -45 12 -67q6 -12 13 -23zM118 217q9 -5 -2 -20.5t-17 -18.5q-5 -14 -22 -14q-6 -1 -5.5 3t7.5 17q9 12 20.5 22.5t18.5 10.5z" />
    <glyph glyph-name="ae" unicode="&#xe6;" horiz-adv-x="480" 
d="M209 10q10 -9 19 -9q7 1 13 1q16 3 20 13q0 1 1 6q13 9 31 32q6 8 16 23l14 12q-3 -17 -3 -28q0 -31 18 -45q15 -11 39 -11q36 0 66 20t44 48q7 1 7 11t-7 25q-1 2 -4 7l-9 -9q-15 -34 -36 -40q-22 -15 -33 -15q-8 0 -16 6q-16 5 -16 40q0 14 1.5 20.5t6.5 17.5
q10 14 34 19t33 22q10 15 10 24q0 11 -12 14q-13 5 -23 5q-27 0 -53 -25q-17 -16 -38 -49q-3 -8 -31 -33l-27 -24q0 6 6.5 20t7.5 22q5 18 24 60q15 34 12 42q-2 6 -23.5 12t-26.5 3q-1 -1 -10 -23t-20 -29q-1 0 -18.5 -22.5t-28.5 -30.5q8 28 11.5 43t0.5 20q0 26 -19 42
q-13 20 -34 20q-23 0 -51 -24q-23 -20 -36 -42q6 -39 18 -42q2 0 5 1q13 6 16.5 16t7.5 21q2 1 8.5 7.5t11.5 6.5q4 0 9 -6t7 -11.5t2 -12.5q0 -14 -8.5 -39t-14.5 -43.5t-19.5 -38t-25.5 -19.5q-5 0 -9 4q-14 0 -17.5 21t-9.5 24q-23 0 -39 -16q-6 -5 -6 -11q0 -7 4 -17
q8 -20 8 -21q0 -10 7 -17q4 -4 17.5 -8.5t32.5 -4.5q34 0 60.5 22t38.5 57q21 16 34 25.5t20 19.5q1 -9 -10.5 -47t-11.5 -49q0 -10 4 -13z" />
    <glyph glyph-name="ae" unicode="&#x436;" horiz-adv-x="480" 
d="M209 10q10 -9 19 -9q7 1 13 1q16 3 20 13q0 1 1 6q13 9 31 32q6 8 16 23l14 12q-3 -17 -3 -28q0 -31 18 -45q15 -11 39 -11q36 0 66 20t44 48q7 1 7 11t-7 25q-1 2 -4 7l-9 -9q-15 -34 -36 -40q-22 -15 -33 -15q-8 0 -16 6q-16 5 -16 40q0 14 1.5 20.5t6.5 17.5
q10 14 34 19t33 22q10 15 10 24q0 11 -12 14q-13 5 -23 5q-27 0 -53 -25q-17 -16 -38 -49q-3 -8 -31 -33l-27 -24q0 6 6.5 20t7.5 22q5 18 24 60q15 34 12 42q-2 6 -23.5 12t-26.5 3q-1 -1 -10 -23t-20 -29q-1 0 -18.5 -22.5t-28.5 -30.5q8 28 11.5 43t0.5 20q0 26 -19 42
q-13 20 -34 20q-23 0 -51 -24q-23 -20 -36 -42q6 -39 18 -42q2 0 5 1q13 6 16.5 16t7.5 21q2 1 8.5 7.5t11.5 6.5q4 0 9 -6t7 -11.5t2 -12.5q0 -14 -8.5 -39t-14.5 -43.5t-19.5 -38t-25.5 -19.5q-5 0 -9 4q-14 0 -17.5 21t-9.5 24q-23 0 -39 -16q-6 -5 -6 -11q0 -7 4 -17
q8 -20 8 -21q0 -10 7 -17q4 -4 17.5 -8.5t32.5 -4.5q34 0 60.5 22t38.5 57q21 16 34 25.5t20 19.5q1 -9 -10.5 -47t-11.5 -49q0 -10 4 -13z" />
    <glyph glyph-name="ccedilla" unicode="&#xe7;" horiz-adv-x="271" 
d="M4 111q-2 -3 -3 -19.5t-1 -19.5q-1 -1 0 -2.5t2 -1.5q6 -1 14 6.5t13 19.5q9 6 10 7q5 5 18 20l41 41q6 6 12 6q10 0 20 -15.5t13 -29.5q0 -10 -12 -30t-12 -27q-17 -14 -17 -49q0 -28 11 -52q-8 -8 -25.5 -32.5t-22.5 -26.5q-1 -2 -31 -46q-13 -19 -14 -22
q-7 -11 -10 -23.5t-3 -22.5q1 -18 1 -28q2 -5 14.5 -11t28.5 -6q11 0 25 3q56 30 87 65q38 43 38 94q0 19 -6 40q-3 3 -5 7q-6 12 -12 23q0 10 20 27q14 12 21 21q17 15 35 31q10 9 14 18v41l-4 6q-7 -4 -32 -37l-37 -35q-5 -12 -19.5 -24.5t-21.5 -5.5q-2 6 -2 17
q0 14 12 32t14 24q22 32 22 64q0 15 -6 30.5t-14 26.5q-7 15 -20.5 24.5t-28.5 9.5q-24 0 -35 -28q-9 -8 -43 -48.5t-49 -61.5zM141 -137q-17 -27 -33 -44q-27 -28 -47 -28q-4 0 -10 2q-6 5 -0.5 19.5t10.5 27.5q6 8 12 17t11 14q10 19 24 37t23 18q7 -4 8.5 -22t1.5 -41z
" />
    <glyph glyph-name="ccedilla" unicode="&#x437;" horiz-adv-x="271" 
d="M4 111q-2 -3 -3 -19.5t-1 -19.5q-1 -1 0 -2.5t2 -1.5q6 -1 14 6.5t13 19.5q9 6 10 7q5 5 18 20l41 41q6 6 12 6q10 0 20 -15.5t13 -29.5q0 -10 -12 -30t-12 -27q-17 -14 -17 -49q0 -28 11 -52q-8 -8 -25.5 -32.5t-22.5 -26.5q-1 -2 -31 -46q-13 -19 -14 -22
q-7 -11 -10 -23.5t-3 -22.5q1 -18 1 -28q2 -5 14.5 -11t28.5 -6q11 0 25 3q56 30 87 65q38 43 38 94q0 19 -6 40q-3 3 -5 7q-6 12 -12 23q0 10 20 27q14 12 21 21q17 15 35 31q10 9 14 18v41l-4 6q-7 -4 -32 -37l-37 -35q-5 -12 -19.5 -24.5t-21.5 -5.5q-2 6 -2 17
q0 14 12 32t14 24q22 32 22 64q0 15 -6 30.5t-14 26.5q-7 15 -20.5 24.5t-28.5 9.5q-24 0 -35 -28q-9 -8 -43 -48.5t-49 -61.5zM141 -137q-17 -27 -33 -44q-27 -28 -47 -28q-4 0 -10 2q-6 5 -0.5 19.5t10.5 27.5q6 8 12 17t11 14q10 19 24 37t23 18q7 -4 8.5 -22t1.5 -41z
" />
    <glyph glyph-name="egrave" unicode="&#xe8;" horiz-adv-x="341" 
d="M68 4q14 -6 27 -6q32 0 66 35q18 19 46 61q5 -5 11 -10q16 -45 53 -45q19 0 33.5 8t29.5 17q13 3 13 34q0 12 -1.5 18.5t-3.5 6.5q-2 -1 -17.5 -13t-24.5 -12t-14.5 8.5t-8.5 30.5q1 9 1 15q0 15 -6 26t-22 11q-17 0 -33.5 -24t-31.5 -46q-21 -25 -41 -49
q-4 -1 -13.5 -8.5t-11.5 -4.5q-6 9 -6 32q0 39 12 75q0 9 10.5 38.5t10.5 39.5q0 8 -3.5 11.5t-9.5 3.5q-7 0 -17 -5t-19 -12q-21 -34 -42 -62q-29 -38 -51 -57q-7 -5 -10 -15.5t-3 -21.5q0 -20 5 -20t21 16l20 22q4 -9 9 -18q4 -67 22 -80z" />
    <glyph glyph-name="egrave" unicode="&#x438;" horiz-adv-x="341" 
d="M68 4q14 -6 27 -6q32 0 66 35q18 19 46 61q5 -5 11 -10q16 -45 53 -45q19 0 33.5 8t29.5 17q13 3 13 34q0 12 -1.5 18.5t-3.5 6.5q-2 -1 -17.5 -13t-24.5 -12t-14.5 8.5t-8.5 30.5q1 9 1 15q0 15 -6 26t-22 11q-17 0 -33.5 -24t-31.5 -46q-21 -25 -41 -49
q-4 -1 -13.5 -8.5t-11.5 -4.5q-6 9 -6 32q0 39 12 75q0 9 10.5 38.5t10.5 39.5q0 8 -3.5 11.5t-9.5 3.5q-7 0 -17 -5t-19 -12q-21 -34 -42 -62q-29 -38 -51 -57q-7 -5 -10 -15.5t-3 -21.5q0 -20 5 -20t21 16l20 22q4 -9 9 -18q4 -67 22 -80z" />
    <glyph glyph-name="eacute" unicode="&#xe9;" horiz-adv-x="344" 
d="M71 4q14 -6 27 -6q32 0 66 35q18 19 46 61q5 -5 11 -10q16 -45 53 -45q19 0 33.5 8t29.5 17q13 3 13 34q0 12 -1.5 18.5t-3.5 6.5q-2 -1 -17.5 -13t-24.5 -12t-14.5 8.5t-8.5 30.5q1 9 1 15q0 15 -6 26t-22 11q-17 0 -33.5 -24t-31.5 -46q-21 -25 -41 -49
q-4 -1 -13.5 -8.5t-11.5 -4.5q-6 9 -6 32q0 39 12 75q0 9 10.5 38.5t10.5 39.5q0 8 -3.5 11.5t-9.5 3.5q-7 0 -17 -5t-19 -12q-21 -34 -42 -62q-29 -38 -51 -57q-7 -5 -10 -15.5t-3 -21.5q0 -20 5 -20t21 16l20 22q4 -9 9 -18q4 -67 22 -80zM245 383q-14 -12 -42.5 -22.5
t-33.5 -16.5q1 -5 9 -11q2 -2 8 -5q29 8 47 15t33 18q8 0 30 13q31 18 33 19q7 11 10.5 17.5t3.5 13.5q0 6 -2 10q-20 18 -35 11q-11 -21 -25 -34q-7 -7 -36 -28z" />
    <glyph glyph-name="eacute" unicode="&#x439;" horiz-adv-x="344" 
d="M71 4q14 -6 27 -6q32 0 66 35q18 19 46 61q5 -5 11 -10q16 -45 53 -45q19 0 33.5 8t29.5 17q13 3 13 34q0 12 -1.5 18.5t-3.5 6.5q-2 -1 -17.5 -13t-24.5 -12t-14.5 8.5t-8.5 30.5q1 9 1 15q0 15 -6 26t-22 11q-17 0 -33.5 -24t-31.5 -46q-21 -25 -41 -49
q-4 -1 -13.5 -8.5t-11.5 -4.5q-6 9 -6 32q0 39 12 75q0 9 10.5 38.5t10.5 39.5q0 8 -3.5 11.5t-9.5 3.5q-7 0 -17 -5t-19 -12q-21 -34 -42 -62q-29 -38 -51 -57q-7 -5 -10 -15.5t-3 -21.5q0 -20 5 -20t21 16l20 22q4 -9 9 -18q4 -67 22 -80zM245 383q-14 -12 -42.5 -22.5
t-33.5 -16.5q1 -5 9 -11q2 -2 8 -5q29 8 47 15t33 18q8 0 30 13q31 18 33 19q7 11 10.5 17.5t3.5 13.5q0 6 -2 10q-20 18 -35 11q-11 -21 -25 -34q-7 -7 -36 -28z" />
    <glyph glyph-name="ecircumflex" unicode="&#xea;" horiz-adv-x="314" 
d="M74 -31q13 0 25 16q19 24 20 25q14 16 22 28t17 25q5 9 11 9q9 0 32.5 -21t36.5 -24q21 0 44 20q27 23 27 53q0 5 -2 15q-3 6 -8 4q-21 -24 -37 -24q-17 0 -30 24q-6 4 -11.5 11t-5.5 15q0 11 10 25q2 4 29 49q22 36 22 57q0 14 -7 21.5t-13 7.5q-10 0 -16.5 -16
t-10.5 -29q-4 -8 -30 -52q-11 -19 -17 -32q-34 -4 -37 -28.5t-4 -36.5l-34 -62q-4 -4 -7 -2.5t-3 9.5q0 15 10 42q0 7 14 60t14 65q5 12 12 36.5t11.5 38.5t4.5 20q0 10 -11.5 14.5t-20.5 4.5q-17 0 -24 -13l-68 -160q-19 -26 -26 -36q-11 -17 -11 -40q1 -2 -4 -20
q15 0 31.5 27.5t27.5 27.5q0 -12 -4.5 -33.5t-1.5 -26.5q-4 -9 -7 -22.5t-3 -28.5q0 -21 7.5 -34t25.5 -9z" />
    <glyph glyph-name="ecircumflex" unicode="&#x43a;" horiz-adv-x="314" 
d="M74 -31q13 0 25 16q19 24 20 25q14 16 22 28t17 25q5 9 11 9q9 0 32.5 -21t36.5 -24q21 0 44 20q27 23 27 53q0 5 -2 15q-3 6 -8 4q-21 -24 -37 -24q-17 0 -30 24q-6 4 -11.5 11t-5.5 15q0 11 10 25q2 4 29 49q22 36 22 57q0 14 -7 21.5t-13 7.5q-10 0 -16.5 -16
t-10.5 -29q-4 -8 -30 -52q-11 -19 -17 -32q-34 -4 -37 -28.5t-4 -36.5l-34 -62q-4 -4 -7 -2.5t-3 9.5q0 15 10 42q0 7 14 60t14 65q5 12 12 36.5t11.5 38.5t4.5 20q0 10 -11.5 14.5t-20.5 4.5q-17 0 -24 -13l-68 -160q-19 -26 -26 -36q-11 -17 -11 -40q1 -2 -4 -20
q15 0 31.5 27.5t27.5 27.5q0 -12 -4.5 -33.5t-1.5 -26.5q-4 -9 -7 -22.5t-3 -28.5q0 -21 7.5 -34t25.5 -9z" />
    <glyph glyph-name="edieresis" unicode="&#xeb;" horiz-adv-x="295" 
d="M55 52q-12 10 -18 18q-11 16 -11 33q-2 5 -10 8.5t-13 1.5q-8 -4 -12.5 -18.5t-8.5 -25.5q0 -6 8.5 -20t8.5 -20q3 -10 16 -19q0 -18 25 -18q16 0 28 12q23 26 51 67l30 44q4 2 5 -5t-3 -15q0 -12 6.5 -31t14.5 -41q10 -11 26 -11q12 0 26 7q6 3 18 12q4 4 29 24
q21 16 23 25.5t2 15.5q0 12 -2.5 20t-5.5 7q-17 -22 -36 -31t-30 -4q-4 5 -4 18q0 9 4 30.5t4 29.5q8 30 13 47t9 24q-1 4 -1 9q-17 19 -40 16q-28 -12 -46 -44q-45 -79 -60 -89q-10 -26 -17 -42q-14 -30 -29 -35z" />
    <glyph glyph-name="edieresis" unicode="&#x43b;" horiz-adv-x="295" 
d="M55 52q-12 10 -18 18q-11 16 -11 33q-2 5 -10 8.5t-13 1.5q-8 -4 -12.5 -18.5t-8.5 -25.5q0 -6 8.5 -20t8.5 -20q3 -10 16 -19q0 -18 25 -18q16 0 28 12q23 26 51 67l30 44q4 2 5 -5t-3 -15q0 -12 6.5 -31t14.5 -41q10 -11 26 -11q12 0 26 7q6 3 18 12q4 4 29 24
q21 16 23 25.5t2 15.5q0 12 -2.5 20t-5.5 7q-17 -22 -36 -31t-30 -4q-4 5 -4 18q0 9 4 30.5t4 29.5q8 30 13 47t9 24q-1 4 -1 9q-17 19 -40 16q-28 -12 -46 -44q-45 -79 -60 -89q-10 -26 -17 -42q-14 -30 -29 -35z" />
    <glyph glyph-name="igrave" unicode="&#xec;" horiz-adv-x="407" 
d="M40 58q-6 2 -9.5 8t-11.5 37q-10 6 -17 4q-6 -2 -13 -13q-12 -24 -13 -27q0 -5 6 -22t6 -25q2 -7 9 -14t9 -11q0 -9 11 -9q22 0 39 30q21 22 38 46q8 12 33 50q4 0 4.5 -7t0.5 -12q-3 -11 -3 -20q0 -16 8 -39q4 -12 9 -24q12 -6 24 -6q30 0 64 37q26 28 44 63q1 -4 3 -7
q-1 -10 -2 -12q-1 -3 -1 -6.5v-4.5q0 -8 5 -20t5 -21q14 -15 34 -15q8 0 16 2.5t16 8.5q31 21 46 34t13 26q-2 12 -3.5 24t-6.5 11q-32 -47 -54 -38q-7 8 -7 29v14q2 11 3.5 22.5t4 20.5t7.5 16q6 3 -2 13q-17 22 -35 22q-14 -6 -18.5 -12t-16.5 -33q-4 -14 -26 -28
q-11 -7 -16 -19q-7 -10 -20 -32q-16 -27 -27 -23q-3 3 -3 13q0 13 7 50t7 47q2 7 14.5 31t12.5 28q0 9 -18 20.5t-30 8.5q-28 -21 -45 -61q-37 -86 -59 -100l-18 -30q-13 -18 -24 -25z" />
    <glyph glyph-name="igrave" unicode="&#x43c;" horiz-adv-x="407" 
d="M40 58q-6 2 -9.5 8t-11.5 37q-10 6 -17 4q-6 -2 -13 -13q-12 -24 -13 -27q0 -5 6 -22t6 -25q2 -7 9 -14t9 -11q0 -9 11 -9q22 0 39 30q21 22 38 46q8 12 33 50q4 0 4.5 -7t0.5 -12q-3 -11 -3 -20q0 -16 8 -39q4 -12 9 -24q12 -6 24 -6q30 0 64 37q26 28 44 63q1 -4 3 -7
q-1 -10 -2 -12q-1 -3 -1 -6.5v-4.5q0 -8 5 -20t5 -21q14 -15 34 -15q8 0 16 2.5t16 8.5q31 21 46 34t13 26q-2 12 -3.5 24t-6.5 11q-32 -47 -54 -38q-7 8 -7 29v14q2 11 3.5 22.5t4 20.5t7.5 16q6 3 -2 13q-17 22 -35 22q-14 -6 -18.5 -12t-16.5 -33q-4 -14 -26 -28
q-11 -7 -16 -19q-7 -10 -20 -32q-16 -27 -27 -23q-3 3 -3 13q0 13 7 50t7 47q2 7 14.5 31t12.5 28q0 9 -18 20.5t-30 8.5q-28 -21 -45 -61q-37 -86 -59 -100l-18 -30q-13 -18 -24 -25z" />
    <glyph glyph-name="iacute" unicode="&#xed;" horiz-adv-x="356" 
d="M119 147q3 17 27 74q11 26 11 35q0 5 -5.5 12.5t-13.5 8.5q-6 1 -15 -5q-2 -1 -16 -11l-17 -18q-1 -2 -5.5 -7t-8 -12t-28.5 -37q-14 -16 -16 -23q-3 -4 -21 -22q-25 -25 -25 -43q0 -10 5 -19l4 -6q18 15 25 21q12 11 18 20l14 20l-9 -36t-7 -25q-2 -14 -7.5 -41
t-5.5 -33q0 -12 11.5 -13.5t18.5 -1.5q6 2 18 2q10 0 16 13t6 33q0 14 4 34t9 29q1 1 6 -0.5t9 -4.5q9 -11 13 -16q8 -10 17 -14q6 -7 11.5 -11.5t14.5 -4.5q3 0 13 2q11 13 21 21q4 3 8 8q-1 -5 -1 -14q0 -15 5.5 -29t8.5 -21q11 -12 23 -12q9 0 13.5 2.5t31.5 24.5
q22 17 36 29q28 24 24 38q0 25 -1 30q-3 3 -6 7q-21 -27 -35 -39q-19 -16 -30 -12q-6 8 -6 31q0 20 5 47q6 17 9.5 29t3.5 17q-1 16 -17 19q-15 2 -28 -4t-24.5 -34t-11.5 -46q-6 -8 -12 -15.5t-11 -7.5t-12 7q-8 11 -11 17q-7 11 -14 14q-2 1 -9 3t-10 -3z" />
    <glyph glyph-name="iacute" unicode="&#x43d;" horiz-adv-x="356" 
d="M119 147q3 17 27 74q11 26 11 35q0 5 -5.5 12.5t-13.5 8.5q-6 1 -15 -5q-2 -1 -16 -11l-17 -18q-1 -2 -5.5 -7t-8 -12t-28.5 -37q-14 -16 -16 -23q-3 -4 -21 -22q-25 -25 -25 -43q0 -10 5 -19l4 -6q18 15 25 21q12 11 18 20l14 20l-9 -36t-7 -25q-2 -14 -7.5 -41
t-5.5 -33q0 -12 11.5 -13.5t18.5 -1.5q6 2 18 2q10 0 16 13t6 33q0 14 4 34t9 29q1 1 6 -0.5t9 -4.5q9 -11 13 -16q8 -10 17 -14q6 -7 11.5 -11.5t14.5 -4.5q3 0 13 2q11 13 21 21q4 3 8 8q-1 -5 -1 -14q0 -15 5.5 -29t8.5 -21q11 -12 23 -12q9 0 13.5 2.5t31.5 24.5
q22 17 36 29q28 24 24 38q0 25 -1 30q-3 3 -6 7q-21 -27 -35 -39q-19 -16 -30 -12q-6 8 -6 31q0 20 5 47q6 17 9.5 29t3.5 17q-1 16 -17 19q-15 2 -28 -4t-24.5 -34t-11.5 -46q-6 -8 -12 -15.5t-11 -7.5t-12 7q-8 11 -11 17q-7 11 -14 14q-2 1 -9 3t-10 -3z" />
    <glyph glyph-name="icircumflex" unicode="&#xee;" horiz-adv-x="312" 
d="M68 10q4 -8 16 -11q12 -1 25 -3q38 0 66 21q29 28 42 40q4 7 12 15.5t11 11.5q1 5 6 13q18 28 20 32q9 19 9 45q0 23 -7 45q-17 24 -45 24q-20 0 -43 -13q-4 3 1.5 12t5.5 12q0 5 -5 6q-13 2 -21 2h-6q-4 -2 -5 -2q-32 -33 -64 -65q-7 -3 -42 -37q-22 -21 -46 -45v-13
q4 -2 2 -15t0 -17q3 0 28 24q12 12 21 12q0 -4 -3.5 -25.5t-3.5 -32.5q0 -14 5.5 -23.5t20.5 -12.5zM207 102q-8 -11 -12 -15q-11 -13 -27 -23q-22 -19 -40 -19q-23 0 -19 31q0 26 24 57q10 0 19 11l18 22q12 8 23 8t18.5 -11.5t7.5 -26.5q0 -22 -12 -34zM238 21q3 0 13 6
q29 20 30 20q17 11 26 18q17 13 17 29q-8 23 -12 23q-3 0 -10 -7t-13 -12q-7 -14 -19 -23.5t-16 -15.5q-7 -5 -14 -15.5t-7 -16.5q0 -5 5 -6z" />
    <glyph glyph-name="icircumflex" unicode="&#x43e;" horiz-adv-x="312" 
d="M68 10q4 -8 16 -11q12 -1 25 -3q38 0 66 21q29 28 42 40q4 7 12 15.5t11 11.5q1 5 6 13q18 28 20 32q9 19 9 45q0 23 -7 45q-17 24 -45 24q-20 0 -43 -13q-4 3 1.5 12t5.5 12q0 5 -5 6q-13 2 -21 2h-6q-4 -2 -5 -2q-32 -33 -64 -65q-7 -3 -42 -37q-22 -21 -46 -45v-13
q4 -2 2 -15t0 -17q3 0 28 24q12 12 21 12q0 -4 -3.5 -25.5t-3.5 -32.5q0 -14 5.5 -23.5t20.5 -12.5zM207 102q-8 -11 -12 -15q-11 -13 -27 -23q-22 -19 -40 -19q-23 0 -19 31q0 26 24 57q10 0 19 11l18 22q12 8 23 8t18.5 -11.5t7.5 -26.5q0 -22 -12 -34zM238 21q3 0 13 6
q29 20 30 20q17 11 26 18q17 13 17 29q-8 23 -12 23q-3 0 -10 -7t-13 -12q-7 -14 -19 -23.5t-16 -15.5q-7 -5 -14 -15.5t-7 -16.5q0 -5 5 -6z" />
    <glyph glyph-name="idieresis" unicode="&#xef;" horiz-adv-x="385" 
d="M106 -16l72 84q17 12 36 30q15 14 20 14q8 0 18 -18q10 -7 22 -28q17 -29 19 -31q10 -7 21 -7q18 0 38 17l31 31q-2 5 -3 18t-1 27q-5 -1 -14.5 -12.5t-16.5 -11.5q-5 0 -10 3q-13 8 -24.5 34.5t-20.5 49.5q-12 6 -25 6q-31 0 -71 -43q-18 -20 -35 -40q-7 -7 -13 -16.5
t-8 -8.5q-4 6 4 30.5t15 45.5q5 8 9.5 23t4.5 29q0 12 -4 20q-8 21 -24 21q-8 0 -19 -5.5l-19 -9.5q-12 -14 -36 -38q-42 -42 -56 -69q-9 -6 -9 -24q1 -16 1 -23q-2 -8 -2 -10q0 -6 4.5 -4.5t11.5 12.5q5 5 17 19q18 20 24.5 28.5t16.5 8.5q8 0 8 -9q0 -6 -6 -18
q-2 -11 -8.5 -33.5t-4.5 -26.5q-1 -2 -7.5 -18t-6.5 -25q0 -2 2 -10q-3 -16 0 -19q6 -3 22 -3q23 0 27 10z" />
    <glyph glyph-name="idieresis" unicode="&#x43f;" horiz-adv-x="385" 
d="M106 -16l72 84q17 12 36 30q15 14 20 14q8 0 18 -18q10 -7 22 -28q17 -29 19 -31q10 -7 21 -7q18 0 38 17l31 31q-2 5 -3 18t-1 27q-5 -1 -14.5 -12.5t-16.5 -11.5q-5 0 -10 3q-13 8 -24.5 34.5t-20.5 49.5q-12 6 -25 6q-31 0 -71 -43q-18 -20 -35 -40q-7 -7 -13 -16.5
t-8 -8.5q-4 6 4 30.5t15 45.5q5 8 9.5 23t4.5 29q0 12 -4 20q-8 21 -24 21q-8 0 -19 -5.5l-19 -9.5q-12 -14 -36 -38q-42 -42 -56 -69q-9 -6 -9 -24q1 -16 1 -23q-2 -8 -2 -10q0 -6 4.5 -4.5t11.5 12.5q5 5 17 19q18 20 24.5 28.5t16.5 8.5q8 0 8 -9q0 -6 -6 -18
q-2 -11 -8.5 -33.5t-4.5 -26.5q-1 -2 -7.5 -18t-6.5 -25q0 -2 2 -10q-3 -16 0 -19q6 -3 22 -3q23 0 27 10z" />
    <glyph glyph-name="eth" unicode="&#xf0;" horiz-adv-x="307" 
d="M51 -201q7 10 8 13q6 13 6 28q14 27 23 70q8 20 16.5 41.5t12.5 42.5q5 9 13 27t18 44.5t20 26.5q5 0 13 -8l16 -16q24 -25 46 -25q16 0 36 12q5 3 26 17q2 10 2 33q0 12 -2 12q-4 2 -10 -3q-18 -15 -27 -15q-8 0 -14.5 3.5t-15.5 14.5q-7 20 -23 39q-20 23 -37 23
q-19 0 -30 -25q-20 -32 -40 -87q-13 -35 -30 -90q-5 -10 -10 -31q-9 -38 -15 -40q6 36 19 86q35 129 36.5 136t15.5 55q10 35 23 47q2 15 4 23t10 25.5t8 32.5q0 30 -13 33q-5 0 -11 -7.5t-12 -14.5q-28 -64 -55 -110q-34 -57 -74 -97q0 -19 -4 -23q2 -3 2 -10q0 -12 2 -14
q7 -1 15 12.5t18 15.5q0 -39 -21 -177q-10 -66 -10 -108q-1 -4 -1 -10q0 -27 21 -27q19 0 25 25z" />
    <glyph glyph-name="eth" unicode="&#x440;" horiz-adv-x="307" 
d="M51 -201q7 10 8 13q6 13 6 28q14 27 23 70q8 20 16.5 41.5t12.5 42.5q5 9 13 27t18 44.5t20 26.5q5 0 13 -8l16 -16q24 -25 46 -25q16 0 36 12q5 3 26 17q2 10 2 33q0 12 -2 12q-4 2 -10 -3q-18 -15 -27 -15q-8 0 -14.5 3.5t-15.5 14.5q-7 20 -23 39q-20 23 -37 23
q-19 0 -30 -25q-20 -32 -40 -87q-13 -35 -30 -90q-5 -10 -10 -31q-9 -38 -15 -40q6 36 19 86q35 129 36.5 136t15.5 55q10 35 23 47q2 15 4 23t10 25.5t8 32.5q0 30 -13 33q-5 0 -11 -7.5t-12 -14.5q-28 -64 -55 -110q-34 -57 -74 -97q0 -19 -4 -23q2 -3 2 -10q0 -12 2 -14
q7 -1 15 12.5t18 15.5q0 -39 -21 -177q-10 -66 -10 -108q-1 -4 -1 -10q0 -27 21 -27q19 0 25 25z" />
    <glyph glyph-name="ntilde" unicode="&#xf1;" horiz-adv-x="267" 
d="M14 125q-13 -7 -13 -19t1 -22q-1 -6 -1 -13q4 0 9 1.5t11 3.5q3 -17 5.5 -30t8.5 -25l22 -17q20 -15 48 -15t61 16q22 11 55 34q13 7 26 18q18 16 22 27q0 3 -1.5 13t1.5 14q-9 11 -11 11.5t-4 -5.5q0 -13 -52 -45q-18 -11 -38 -21q-9 -4 -26 -4q-18 0 -30 6t-12 19
q-2 6 -2 18q0 31 39 58q47 33 49 36q28 14 40 26q16 16 16 35q0 11 -6 25q-19 3 -43 -10q-16 -9 -27 -20q-25 -12 -68 -45.5t-43 -42.5q-13 -4 -30 -20z" />
    <glyph glyph-name="ntilde" unicode="&#x441;" horiz-adv-x="267" 
d="M14 125q-13 -7 -13 -19t1 -22q-1 -6 -1 -13q4 0 9 1.5t11 3.5q3 -17 5.5 -30t8.5 -25l22 -17q20 -15 48 -15t61 16q22 11 55 34q13 7 26 18q18 16 22 27q0 3 -1.5 13t1.5 14q-9 11 -11 11.5t-4 -5.5q0 -13 -52 -45q-18 -11 -38 -21q-9 -4 -26 -4q-18 0 -30 6t-12 19
q-2 6 -2 18q0 31 39 58q47 33 49 36q28 14 40 26q16 16 16 35q0 11 -6 25q-19 3 -43 -10q-16 -9 -27 -20q-25 -12 -68 -45.5t-43 -42.5q-13 -4 -30 -20z" />
    <glyph glyph-name="ograve" unicode="&#xf2;" horiz-adv-x="505" 
d="M69 2q3 0 9 8q16 20 22 23q12 19 39 47q35 35 36 37q39 34 49 34q6 0 6 -10q0 -13 -7 -37q-7 -33 -17 -63t-10 -37q6 -15 17 -15t24 13q9 9 45 49q20 23 23 25q7 5 21 19q10 10 18 12q18 0 38 -24q26 -30 33 -34q18 -11 35 -11q19 0 35 13q8 7 22 23q0 7 -0.5 14.5
t-0.5 14.5q0 11 1 20q-5 0 -18 -13t-22 -13q-8 0 -15 8.5t-13 18.5t-11 17q-11 41 -38 41q-22 0 -54 -26q-15 -12 -46 -43q0 19 5 42q12 56 12 70q0 32 -21 32q-24 0 -61 -42q-16 -14 -32 -32.5t-34 -30.5q-11 -11 -16 -11q0 11 1 22q8 31 9 44q2 11 -1 23t-18 12
q-10 0 -30 -12q-7 -3 -21 -18q-17 -19 -24 -26q-33 -37 -66 -73l2 -45q9 3 35.5 36t36.5 29q7 -3 -3 -35l-26 -84q0 -8 6 -12t13 -4q8 0 12 4z" />
    <glyph glyph-name="ograve" unicode="&#x442;" horiz-adv-x="505" 
d="M69 2q3 0 9 8q16 20 22 23q12 19 39 47q35 35 36 37q39 34 49 34q6 0 6 -10q0 -13 -7 -37q-7 -33 -17 -63t-10 -37q6 -15 17 -15t24 13q9 9 45 49q20 23 23 25q7 5 21 19q10 10 18 12q18 0 38 -24q26 -30 33 -34q18 -11 35 -11q19 0 35 13q8 7 22 23q0 7 -0.5 14.5
t-0.5 14.5q0 11 1 20q-5 0 -18 -13t-22 -13q-8 0 -15 8.5t-13 18.5t-11 17q-11 41 -38 41q-22 0 -54 -26q-15 -12 -46 -43q0 19 5 42q12 56 12 70q0 32 -21 32q-24 0 -61 -42q-16 -14 -32 -32.5t-34 -30.5q-11 -11 -16 -11q0 11 1 22q8 31 9 44q2 11 -1 23t-18 12
q-10 0 -30 -12q-7 -3 -21 -18q-17 -19 -24 -26q-33 -37 -66 -73l2 -45q9 3 35.5 36t36.5 29q7 -3 -3 -35l-26 -84q0 -8 6 -12t13 -4q8 0 12 4z" />
    <glyph glyph-name="oacute" unicode="&#xf3;" horiz-adv-x="355" 
d="M178 86q1 8 15 18q12 7 24 15q6 -1 0.5 -29.5t-4.5 -36.5q-8 -11 -19.5 -40.5t-13.5 -35.5q-10 -7 -27 -26.5t-32 -40.5q-9 -6 -24 -27t-19 -29q-4 0 -10.5 -13t-12.5 -15q-11 -16 -17 -25q-13 -18 -9 -30q4 -7 19 -7q14 0 30.5 7.5t27 20.5t19.5 24q5 2 12.5 13.5
t12.5 14.5q14 29 37 61q18 24 26 34q18 39 67 80q66 55 71 61q2 3 0 17t0 24q-5 7 -26.5 -13.5t-25.5 -21.5q-5 -5 -15.5 -17t-12.5 -12l4 28q15 42 30 85q5 14 9.5 28t4.5 22q0 7 -5 10q-35 0 -65 -29t-58 -56q-11 -6 -29 -28q-31 -20 -37 -29q-12 -4 -12 12q14 45 28 91
q2 16 -7.5 22t-20.5 4q-10 -2 -27 -20t-33 -35q-5 -6 -36 -35q-15 -14 -17 -18q1 -13 1 -20q0 -10 -3 -21l2 -5q6 3 24 20t21 17q4 0 5 -19t3 -22q-2 -16 -2 -22q0 -13 9 -17.5t19 -4.5q28 0 52 36q13 1 26 13q15 16 21 22z" />
    <glyph glyph-name="oacute" unicode="&#x443;" horiz-adv-x="355" 
d="M178 86q1 8 15 18q12 7 24 15q6 -1 0.5 -29.5t-4.5 -36.5q-8 -11 -19.5 -40.5t-13.5 -35.5q-10 -7 -27 -26.5t-32 -40.5q-9 -6 -24 -27t-19 -29q-4 0 -10.5 -13t-12.5 -15q-11 -16 -17 -25q-13 -18 -9 -30q4 -7 19 -7q14 0 30.5 7.5t27 20.5t19.5 24q5 2 12.5 13.5
t12.5 14.5q14 29 37 61q18 24 26 34q18 39 67 80q66 55 71 61q2 3 0 17t0 24q-5 7 -26.5 -13.5t-25.5 -21.5q-5 -5 -15.5 -17t-12.5 -12l4 28q15 42 30 85q5 14 9.5 28t4.5 22q0 7 -5 10q-35 0 -65 -29t-58 -56q-11 -6 -29 -28q-31 -20 -37 -29q-12 -4 -12 12q14 45 28 91
q2 16 -7.5 22t-20.5 4q-10 -2 -27 -20t-33 -35q-5 -6 -36 -35q-15 -14 -17 -18q1 -13 1 -20q0 -10 -3 -21l2 -5q6 3 24 20t21 17q4 0 5 -19t3 -22q-2 -16 -2 -22q0 -13 9 -17.5t19 -4.5q28 0 52 36q13 1 26 13q15 16 21 22z" />
    <glyph glyph-name="ocircumflex" unicode="&#xf4;" horiz-adv-x="385" 
d="M15 60q16 13 22 13q-5 -15 -5 -29q0 -16 7 -26q12 -16 28 -22.5t36 -6.5q8 0 18 2t19 5t13 4.5t17 13.5l17 17q3 2 7 0q2 -2 -1.5 -23t-3.5 -25q-5 -30 -11.5 -78.5t-6.5 -57.5l-17 -80q-1 -4 -1 -10q0 -15 13 -15q14 0 25 11q5 10 9 24.5t6 26.5q5 9 10 35t10 41
q15 56 26 154q5 40 10 93q3 15 15.5 28.5t25.5 13.5q12 0 21 -10.5t8 -22.5q-4 -26 -11 -44q-13 -31 -36 -46q-5 -4 -16 -13q-3 -2 -8 -7q0 -14 8.5 -26t22.5 -8q16 5 65.5 38t56.5 42q2 2 3 9t1 17q0 20 -9 19q-9 -2 -20 -10q-16 -12 -16 -13q5 12 5.5 17t-0.5 8q4 6 4 24
q0 16 -4.5 31t-13.5 26q-13 14 -37 21.5t-37 4.5q-18 -2 -27 -6t-16 -12t-12 -13q-11 -12 -15 -22q-10 -36 -21.5 -64t-33 -47.5t-39.5 -19.5q-16 0 -26 13q-4 5 0 18t11 20q0 8 18 27q23 23 46 47q3 3 22 15.5t29 23.5q7 5 10 8q7 6 7 16q-10 11 -14 14q-7 6 -17 6t-35 -13
q-10 -6 -20 -11q-19 -14 -23.5 -18.5t-7.5 -11.5q-16 -8 -35 -22.5t-33 -28.5q-15 -11 -29 -21t-14 -18q3 -12 3 -24q0 -13 -3 -22z" />
    <glyph glyph-name="ocircumflex" unicode="&#x444;" horiz-adv-x="385" 
d="M15 60q16 13 22 13q-5 -15 -5 -29q0 -16 7 -26q12 -16 28 -22.5t36 -6.5q8 0 18 2t19 5t13 4.5t17 13.5l17 17q3 2 7 0q2 -2 -1.5 -23t-3.5 -25q-5 -30 -11.5 -78.5t-6.5 -57.5l-17 -80q-1 -4 -1 -10q0 -15 13 -15q14 0 25 11q5 10 9 24.5t6 26.5q5 9 10 35t10 41
q15 56 26 154q5 40 10 93q3 15 15.5 28.5t25.5 13.5q12 0 21 -10.5t8 -22.5q-4 -26 -11 -44q-13 -31 -36 -46q-5 -4 -16 -13q-3 -2 -8 -7q0 -14 8.5 -26t22.5 -8q16 5 65.5 38t56.5 42q2 2 3 9t1 17q0 20 -9 19q-9 -2 -20 -10q-16 -12 -16 -13q5 12 5.5 17t-0.5 8q4 6 4 24
q0 16 -4.5 31t-13.5 26q-13 14 -37 21.5t-37 4.5q-18 -2 -27 -6t-16 -12t-12 -13q-11 -12 -15 -22q-10 -36 -21.5 -64t-33 -47.5t-39.5 -19.5q-16 0 -26 13q-4 5 0 18t11 20q0 8 18 27q23 23 46 47q3 3 22 15.5t29 23.5q7 5 10 8q7 6 7 16q-10 11 -14 14q-7 6 -17 6t-35 -13
q-10 -6 -20 -11q-19 -14 -23.5 -18.5t-7.5 -11.5q-16 -8 -35 -22.5t-33 -28.5q-15 -11 -29 -21t-14 -18q3 -12 3 -24q0 -13 -3 -22z" />
    <glyph glyph-name="otilde" unicode="&#xf5;" horiz-adv-x="295" 
d="M189 191q-14 -20 -26 -34q-17 -20 -27 -24q-5 0 -11.5 14.5t-3.5 26.5q3 7 14 15q16 12 27 24q11 4 19.5 12t11.5 11q13 0 13 -11q0 -8 -4 -15.5t-13 -18.5zM54 4q30 16 51 45q4 -1 18 -15q3 -3 20 -18t36 -15q18 0 41 13q20 13 30 19q9 2 18.5 9.5t33.5 31.5v31v16
q-2 3 -5 0q-9 -11 -12 -12q-14 -23 -37 -35q-12 0 -18 -6q-21 -7 -32 -7q-23 0 -40 27q-3 7 33 40q20 18 24 26q11 12 21 23.5t22 29.5q14 17 14 39q0 20 -11 35.5t-26 15.5q-7 0 -17 -7t-17 -14q-32 -29 -43 -38q-30 -24 -40 -31h-13q-1 3 -9 30q-4 13 -7.5 18t-9.5 5
q-10 0 -21.5 -10.5t-14.5 -26.5q-2 -5 -2 -13q0 -9 4 -20q9 -26 9 -28q0 -5 -3 -10q-11 -11 -34 -23q-18 -9 -21 -18q-3 -24 -3 -35t4 -11q5 0 16 15q6 3 26 23t29 26q4 -1 14 -23t11 -28q-6 -10 -37 -38t-35 -34q-4 -7 3 -9.5t13 -2.5q3 0 10 5q2 1 7 5z" />
    <glyph glyph-name="otilde" unicode="&#x445;" horiz-adv-x="295" 
d="M189 191q-14 -20 -26 -34q-17 -20 -27 -24q-5 0 -11.5 14.5t-3.5 26.5q3 7 14 15q16 12 27 24q11 4 19.5 12t11.5 11q13 0 13 -11q0 -8 -4 -15.5t-13 -18.5zM54 4q30 16 51 45q4 -1 18 -15q3 -3 20 -18t36 -15q18 0 41 13q20 13 30 19q9 2 18.5 9.5t33.5 31.5v31v16
q-2 3 -5 0q-9 -11 -12 -12q-14 -23 -37 -35q-12 0 -18 -6q-21 -7 -32 -7q-23 0 -40 27q-3 7 33 40q20 18 24 26q11 12 21 23.5t22 29.5q14 17 14 39q0 20 -11 35.5t-26 15.5q-7 0 -17 -7t-17 -14q-32 -29 -43 -38q-30 -24 -40 -31h-13q-1 3 -9 30q-4 13 -7.5 18t-9.5 5
q-10 0 -21.5 -10.5t-14.5 -26.5q-2 -5 -2 -13q0 -9 4 -20q9 -26 9 -28q0 -5 -3 -10q-11 -11 -34 -23q-18 -9 -21 -18q-3 -24 -3 -35t4 -11q5 0 16 15q6 3 26 23t29 26q4 -1 14 -23t11 -28q-6 -10 -37 -38t-35 -34q-4 -7 3 -9.5t13 -2.5q3 0 10 5q2 1 7 5z" />
    <glyph glyph-name="odieresis" unicode="&#xf6;" horiz-adv-x="407" 
d="M300 8q-10 -12 -13 -16q-9 -11 -17 -17q-19 -34 -23 -42q-9 -20 -9 -30q0 -13 9 -18q4 -2 11 -2h14q10 3 16 4q66 37 66 104q0 7 -2 21q14 14 29 29.5t26 32.5v17.5t1 19.5q0 8 -1 12q-8 -2 -16 -13q-24 -35 -25 -36q-4 -7 -7 -10t-11 -9q0 16 -6.5 33t-17.5 14
q-2 0 -23 -13q-10 -6 -16 -6q-10 0 -15.5 10.5t-7.5 25.5q6 2 15 24q6 14 6 23q0 21 -26 21q-16 0 -35.5 -23t-39 -46.5t-39.5 -47.5q-4 -1 -13.5 -8.5t-11.5 -4.5q-6 9 -6 32q0 39 12 75q0 9 10.5 38.5t10.5 39.5q0 8 -3.5 11.5t-9.5 3.5q-7 0 -17 -5t-19 -12
q-21 -34 -42 -62q-29 -38 -51 -57q-5 -15 -7 -32q1 -10 1 -19q7 0 20.5 12.5t18.5 19.5q4 -9 9 -18q4 -67 22 -80q14 -6 27 -6q28 0 58 26q22 19 42 50q5 -5 11 -9q15 -44 52 -44q5 0 20 10q7 5 11 6zM305 -55q-3 -5 -10 -12l-11 -11q-5 1 -5 7q0 9 11.5 24.5t20.5 21.5
q3 -6 3 -10q0 -7 -9 -20z" />
    <glyph glyph-name="odieresis" unicode="&#x446;" horiz-adv-x="407" 
d="M300 8q-10 -12 -13 -16q-9 -11 -17 -17q-19 -34 -23 -42q-9 -20 -9 -30q0 -13 9 -18q4 -2 11 -2h14q10 3 16 4q66 37 66 104q0 7 -2 21q14 14 29 29.5t26 32.5v17.5t1 19.5q0 8 -1 12q-8 -2 -16 -13q-24 -35 -25 -36q-4 -7 -7 -10t-11 -9q0 16 -6.5 33t-17.5 14
q-2 0 -23 -13q-10 -6 -16 -6q-10 0 -15.5 10.5t-7.5 25.5q6 2 15 24q6 14 6 23q0 21 -26 21q-16 0 -35.5 -23t-39 -46.5t-39.5 -47.5q-4 -1 -13.5 -8.5t-11.5 -4.5q-6 9 -6 32q0 39 12 75q0 9 10.5 38.5t10.5 39.5q0 8 -3.5 11.5t-9.5 3.5q-7 0 -17 -5t-19 -12
q-21 -34 -42 -62q-29 -38 -51 -57q-5 -15 -7 -32q1 -10 1 -19q7 0 20.5 12.5t18.5 19.5q4 -9 9 -18q4 -67 22 -80q14 -6 27 -6q28 0 58 26q22 19 42 50q5 -5 11 -9q15 -44 52 -44q5 0 20 10q7 5 11 6zM305 -55q-3 -5 -10 -12l-11 -11q-5 1 -5 7q0 9 11.5 24.5t20.5 21.5
q3 -6 3 -10q0 -7 -9 -20z" />
    <glyph glyph-name="divide" unicode="&#xf7;" horiz-adv-x="267" 
d="M0 74v-6q11 6 25 30q14 13 23 23t9 14q6 6 19 22t18 19q20 -18 43 -18q10 0 17 4q-16 -30 -35 -117q-8 -13 -8 -28q0 -14 9 -22t30 -8q8 -1 24 9q22 14 27 15q8 6 37 30q20 17 24 17q-1 5 5.5 17.5t6.5 19.5t-2 10q2 13 -4 13q-3 0 -6 -6q-6 -8 -35 -28.5t-33 -20.5
q-7 -4 -9 -3t-2 5t13 48q7 24 7 35q8 19 28 48q15 21 11 27q-1 1 -3 6q-5 12 -16 12q-8 0 -28 -9q-13 -4 -30 -4q-15 0 -28 2.5t-24 5.5q-2 3 -14 25q-5 10 -13 7q-16 -5 -32 -17t-15 -21q-3 -2 0 -10q10 -25 10 -31q0 -10 -10 -17q-5 -10 -17.5 -28t-23.5 -33
q-1 -3 -1 -6.5v-4.5q0 -9 1 -15t2 -11z" />
    <glyph glyph-name="divide" unicode="&#x447;" horiz-adv-x="267" 
d="M0 74v-6q11 6 25 30q14 13 23 23t9 14q6 6 19 22t18 19q20 -18 43 -18q10 0 17 4q-16 -30 -35 -117q-8 -13 -8 -28q0 -14 9 -22t30 -8q8 -1 24 9q22 14 27 15q8 6 37 30q20 17 24 17q-1 5 5.5 17.5t6.5 19.5t-2 10q2 13 -4 13q-3 0 -6 -6q-6 -8 -35 -28.5t-33 -20.5
q-7 -4 -9 -3t-2 5t13 48q7 24 7 35q8 19 28 48q15 21 11 27q-1 1 -3 6q-5 12 -16 12q-8 0 -28 -9q-13 -4 -30 -4q-15 0 -28 2.5t-24 5.5q-2 3 -14 25q-5 10 -13 7q-16 -5 -32 -17t-15 -21q-3 -2 0 -10q10 -25 10 -31q0 -10 -10 -17q-5 -10 -17.5 -28t-23.5 -33
q-1 -3 -1 -6.5v-4.5q0 -9 1 -15t2 -11z" />
    <glyph glyph-name="oslash" unicode="&#xf8;" horiz-adv-x="458" 
d="M388 117q5 4 9.5 28t4.5 35q0 7 -13.5 15.5t-26.5 8.5q-16 -2 -29 -34q-18 -45 -23.5 -51.5t-20 -20t-22.5 -24.5q-12 -6 -18 -6q-12 0 -12 18q0 16 8 42q11 30 14 39q0 8 7.5 27t7.5 25t-5 11t-16 5q-15 0 -29 -11q-6 -12 -31 -56q-31 -55 -51 -90q-5 -2 -14.5 -9
t-11.5 -4q-6 9 -6 32q0 39 12 75q0 7 4 23q9 35 9 44q0 10 -3.5 14t-9.5 4q-8 0 -18.5 -5t-19.5 -12q-19 -29 -37 -58q-23 -34 -46 -53q-5 -7 -5 -23q0 -13 1.5 -19.5t3.5 -6.5q6 0 16.5 10.5t16.5 19.5l10 -18q4 -68 21 -80q21 -9 36 -9q23 0 41 19q7 7 31 44q5 -1 10 -1
q2 -35 19 -47q11 -7 25 -7q23 0 47.5 18t42.5 45q6 4 16 -16q14 -27 49 -27q17 0 37.5 13.5t38.5 25.5q4 12 4 32q0 17 -4 17q-19 -14 -32.5 -22t-21.5 -8q-16 0 -16 28z" />
    <glyph glyph-name="oslash" unicode="&#x448;" horiz-adv-x="458" 
d="M388 117q5 4 9.5 28t4.5 35q0 7 -13.5 15.5t-26.5 8.5q-16 -2 -29 -34q-18 -45 -23.5 -51.5t-20 -20t-22.5 -24.5q-12 -6 -18 -6q-12 0 -12 18q0 16 8 42q11 30 14 39q0 8 7.5 27t7.5 25t-5 11t-16 5q-15 0 -29 -11q-6 -12 -31 -56q-31 -55 -51 -90q-5 -2 -14.5 -9
t-11.5 -4q-6 9 -6 32q0 39 12 75q0 7 4 23q9 35 9 44q0 10 -3.5 14t-9.5 4q-8 0 -18.5 -5t-19.5 -12q-19 -29 -37 -58q-23 -34 -46 -53q-5 -7 -5 -23q0 -13 1.5 -19.5t3.5 -6.5q6 0 16.5 10.5t16.5 19.5l10 -18q4 -68 21 -80q21 -9 36 -9q23 0 41 19q7 7 31 44q5 -1 10 -1
q2 -35 19 -47q11 -7 25 -7q23 0 47.5 18t42.5 45q6 4 16 -16q14 -27 49 -27q17 0 37.5 13.5t38.5 25.5q4 12 4 32q0 17 -4 17q-19 -14 -32.5 -22t-21.5 -8q-16 0 -16 28z" />
    <glyph glyph-name="ugrave" unicode="&#xf9;" horiz-adv-x="500" 
d="M379 120q0 -33 14 -33q7 0 17.5 7.5t19.5 14.5q7 3 17 -18q4 -8 13 -34q12 14 19 29l24 21q5 12 9 16l2 -4q2 -11 2 -21v-20q-6 -13 -19.5 -29t-27.5 -29q1 -4 1 -13q0 -32 -18.5 -63t-46.5 -49q-14 0 -27.5 -3t-17.5 -1q-12 7 -12 22t14 38q10 17 21 33q5 4 14.5 15.5
t17.5 18.5q-4 10 -7 18q-14 -8 -29 -8q-19 0 -30 9q-7 5 -18 32q-2 6 -6 2.5t-7 -5.5q-16 -24 -42 -41.5t-50 -17.5q-16 0 -27 8q-16 11 -18 31.5t-4 20.5q-5 -2 -7 -4q-22 -33 -31 -43q-19 -20 -41 -20q-15 0 -36 9q-18 12 -21 79q-5 9 -10 19q-4 -6 -16 -18t-17 -12
q-1 0 -3 9t-2 18q0 15 5 22q26 22 55 66q19 32 28 45q10 8 19.5 12.5t18.5 4.5q6 0 9.5 -4t3.5 -14q0 -9 -4 -25q-9 -37 -9 -42q-4 -14 -8 -36t-4 -40q0 -22 6 -31q3 -4 10 2q13 10 16 11q16 27 32 55q22 38 50 91q14 11 30 11q10 0 15 -5t5 -11q0 -7 -7.5 -26t-7.5 -26
q-6 -17 -9 -27q-13 -39 -13 -54q0 -18 12 -18q6 0 18 6q7 10 26 28q13 12 15 15q8 9 25 52q13 33 29 35q13 0 26.5 -9.5t13.5 -18.5q0 -16 -7.5 -32.5t-12.5 -20.5zM421 -51q3 12 4.5 19t0.5 12q-10 -6 -21 -19q-15 -17 -15 -28q0 -7 9 -9q6 2 13.5 13t8.5 12z" />
    <glyph glyph-name="ugrave" unicode="&#x449;" horiz-adv-x="500" 
d="M379 120q0 -33 14 -33q7 0 17.5 7.5t19.5 14.5q7 3 17 -18q4 -8 13 -34q12 14 19 29l24 21q5 12 9 16l2 -4q2 -11 2 -21v-20q-6 -13 -19.5 -29t-27.5 -29q1 -4 1 -13q0 -32 -18.5 -63t-46.5 -49q-14 0 -27.5 -3t-17.5 -1q-12 7 -12 22t14 38q10 17 21 33q5 4 14.5 15.5
t17.5 18.5q-4 10 -7 18q-14 -8 -29 -8q-19 0 -30 9q-7 5 -18 32q-2 6 -6 2.5t-7 -5.5q-16 -24 -42 -41.5t-50 -17.5q-16 0 -27 8q-16 11 -18 31.5t-4 20.5q-5 -2 -7 -4q-22 -33 -31 -43q-19 -20 -41 -20q-15 0 -36 9q-18 12 -21 79q-5 9 -10 19q-4 -6 -16 -18t-17 -12
q-1 0 -3 9t-2 18q0 15 5 22q26 22 55 66q19 32 28 45q10 8 19.5 12.5t18.5 4.5q6 0 9.5 -4t3.5 -14q0 -9 -4 -25q-9 -37 -9 -42q-4 -14 -8 -36t-4 -40q0 -22 6 -31q3 -4 10 2q13 10 16 11q16 27 32 55q22 38 50 91q14 11 30 11q10 0 15 -5t5 -11q0 -7 -7.5 -26t-7.5 -26
q-6 -17 -9 -27q-13 -39 -13 -54q0 -18 12 -18q6 0 18 6q7 10 26 28q13 12 15 15q8 9 25 52q13 33 29 35q13 0 26.5 -9.5t13.5 -18.5q0 -16 -7.5 -32.5t-12.5 -20.5zM421 -51q3 12 4.5 19t0.5 12q-10 -6 -21 -19q-15 -17 -15 -28q0 -7 9 -9q6 2 13.5 13t8.5 12z" />
    <glyph glyph-name="uacute" unicode="&#xfa;" horiz-adv-x="305" 
d="M123 2q18 -7 33 -7q42 0 75 31q37 35 37 90v22q-3 11 -4 15q0 3 -6 12.5t-8 16.5q-9 13 -14.5 15t-11.5 4q-5 -2 -14.5 -2t-14.5 -3q-5 -7 -5 -13q0 -14 8 -19q-1 -3 4 -10t7 -9q10 -11 10 -26q0 -13 -8 -30q-10 -17 -12 -21q-4 -1 -13.5 -8.5t-11.5 -4.5q-6 9 -6 32
q0 39 12 75q-1 10 5 31q16 56 16 65q0 8 -3 13q-5 5 -27.5 -2.5t-23.5 -7.5q-15 -3 -39.5 7.5t-29.5 10.5q-6 0 -9 -3q-17 -16 -31 -36q-18 -26 -16 -36q4 -3 10 -10t18 -22q15 10 25.5 24t13.5 27q5 -5 20 -8.5t27 -1.5q-9 -21 -22.5 -63t-13.5 -54q0 -33 6 -59.5t17 -34.5
z" />
    <glyph glyph-name="uacute" unicode="&#x44a;" horiz-adv-x="305" 
d="M123 2q18 -7 33 -7q42 0 75 31q37 35 37 90v22q-3 11 -4 15q0 3 -6 12.5t-8 16.5q-9 13 -14.5 15t-11.5 4q-5 -2 -14.5 -2t-14.5 -3q-5 -7 -5 -13q0 -14 8 -19q-1 -3 4 -10t7 -9q10 -11 10 -26q0 -13 -8 -30q-10 -17 -12 -21q-4 -1 -13.5 -8.5t-11.5 -4.5q-6 9 -6 32
q0 39 12 75q-1 10 5 31q16 56 16 65q0 8 -3 13q-5 5 -27.5 -2.5t-23.5 -7.5q-15 -3 -39.5 7.5t-29.5 10.5q-6 0 -9 -3q-17 -16 -31 -36q-18 -26 -16 -36q4 -3 10 -10t18 -22q15 10 25.5 24t13.5 27q5 -5 20 -8.5t27 -1.5q-9 -21 -22.5 -63t-13.5 -54q0 -33 6 -59.5t17 -34.5
z" />
    <glyph glyph-name="ucircumflex" unicode="&#xfb;" horiz-adv-x="367" 
d="M73 3q18 -7 33 -7q42 0 75 31q37 35 37 90v22q-3 11 -4 15q12 2 20.5 4.5t10.5 4.5q2 -9 -1.5 -41.5t-3.5 -37.5q0 -16 12 -29q16 -17 42 -17q19 0 33.5 8t29.5 17q13 3 13 34q0 12 -1.5 18.5t-3.5 6.5q-2 -1 -17.5 -13t-24.5 -12t-14.5 8.5t-8.5 30.5q3 12 5.5 26.5
t2.5 30.5q0 21 -8 25q-6 -2 -19.5 -3t-19.5 -4q-27 -14 -54 -27q-36 -17 -52 -17q1 -1 2 -10.5t2 -10.5q10 -11 10 -26q0 -13 -8 -30q-10 -17 -12 -21q-4 -1 -13.5 -8.5t-11.5 -4.5q-6 9 -6 32q0 39 12 75q0 8 11 44t11 51q0 10 -4 14q-8 7 -26 -2q-8 -4 -20 -13
q-26 -45 -42 -71q-30 -48 -51 -66q-7 -5 -10 -15.5t-3 -21.5q0 -20 5 -20t21 16l20 22q4 -9 9 -18q4 -67 22 -80z" />
    <glyph glyph-name="ucircumflex" unicode="&#x44b;" horiz-adv-x="367" 
d="M73 3q18 -7 33 -7q42 0 75 31q37 35 37 90v22q-3 11 -4 15q12 2 20.5 4.5t10.5 4.5q2 -9 -1.5 -41.5t-3.5 -37.5q0 -16 12 -29q16 -17 42 -17q19 0 33.5 8t29.5 17q13 3 13 34q0 12 -1.5 18.5t-3.5 6.5q-2 -1 -17.5 -13t-24.5 -12t-14.5 8.5t-8.5 30.5q3 12 5.5 26.5
t2.5 30.5q0 21 -8 25q-6 -2 -19.5 -3t-19.5 -4q-27 -14 -54 -27q-36 -17 -52 -17q1 -1 2 -10.5t2 -10.5q10 -11 10 -26q0 -13 -8 -30q-10 -17 -12 -21q-4 -1 -13.5 -8.5t-11.5 -4.5q-6 9 -6 32q0 39 12 75q0 8 11 44t11 51q0 10 -4 14q-8 7 -26 -2q-8 -4 -20 -13
q-26 -45 -42 -71q-30 -48 -51 -66q-7 -5 -10 -15.5t-3 -21.5q0 -20 5 -20t21 16l20 22q4 -9 9 -18q4 -67 22 -80z" />
    <glyph glyph-name="udieresis" unicode="&#xfc;" horiz-adv-x="229" 
d="M73 2q18 -7 33 -7q42 0 75 31q37 35 37 90v22q-3 11 -4 15q0 3 -6 12.5t-8 16.5q-9 13 -14.5 15t-11.5 4q-5 -2 -14.5 -2t-14.5 -3q-5 -7 -5 -13q0 -14 8 -19q-1 -3 4 -10t7 -9q10 -11 10 -26q0 -13 -8 -30q-10 -17 -12 -21q-4 -1 -13.5 -8.5t-11.5 -4.5q-6 9 -6 32
q0 39 12 75q-1 10 5 31q16 56 16 65q0 8 -3 13q-8 7 -26 -2q-8 -4 -20 -13q-26 -45 -42 -71q-30 -48 -51 -66q-7 -5 -10 -15.5t-3 -21.5q0 -20 5 -20t21 16l20 22q4 -9 9 -18q4 -67 22 -80z" />
    <glyph glyph-name="udieresis" unicode="&#x44c;" horiz-adv-x="229" 
d="M73 2q18 -7 33 -7q42 0 75 31q37 35 37 90v22q-3 11 -4 15q0 3 -6 12.5t-8 16.5q-9 13 -14.5 15t-11.5 4q-5 -2 -14.5 -2t-14.5 -3q-5 -7 -5 -13q0 -14 8 -19q-1 -3 4 -10t7 -9q10 -11 10 -26q0 -13 -8 -30q-10 -17 -12 -21q-4 -1 -13.5 -8.5t-11.5 -4.5q-6 9 -6 32
q0 39 12 75q-1 10 5 31q16 56 16 65q0 8 -3 13q-8 7 -26 -2q-8 -4 -20 -13q-26 -45 -42 -71q-30 -48 -51 -66q-7 -5 -10 -15.5t-3 -21.5q0 -20 5 -20t21 16l20 22q4 -9 9 -18q4 -67 22 -80z" />
    <glyph glyph-name="yacute" unicode="&#xfd;" horiz-adv-x="254" 
d="M226 64q7 0 14.5 0.5t8.5 10.5q4 18 -8 21t-15 5q4 10 7 34t3 39q0 23 -3 28q-3 35 -19 53q-5 6 -11.5 9.5t-23.5 3.5q-12 0 -25.5 -2.5t-23.5 -4.5q-13 7 -44.5 -21t-45.5 -57q5 -21 20 -28q5 -2 15 -3q11 2 18 16q8 20 12 28q11 12 20 19q18 15 30 15q6 0 10 -4
q18 -23 18 -52q0 -14 -5 -30.5t-13 -31.5q-11 0 -26.5 7.5t-32.5 16.5q-7 -4 -16.5 -18t-8.5 -23q0 -8 25.5 -16t40.5 -8q0 -4 -4 -11t-7 -10q-7 -21 -25.5 -35t-46.5 -14q-15 2 -17 28t-7 29q-8 0 -14.5 -4.5t-14.5 -13.5q-13 -5 -13 -15q0 -5 6 -18t8 -22t18.5 -16.5
t39.5 -7.5q22 0 42.5 5t31.5 12q5 6 25 23q12 10 16 22l21 43q8 -2 20 -2z" />
    <glyph glyph-name="yacute" unicode="&#x44d;" horiz-adv-x="254" 
d="M226 64q7 0 14.5 0.5t8.5 10.5q4 18 -8 21t-15 5q4 10 7 34t3 39q0 23 -3 28q-3 35 -19 53q-5 6 -11.5 9.5t-23.5 3.5q-12 0 -25.5 -2.5t-23.5 -4.5q-13 7 -44.5 -21t-45.5 -57q5 -21 20 -28q5 -2 15 -3q11 2 18 16q8 20 12 28q11 12 20 19q18 15 30 15q6 0 10 -4
q18 -23 18 -52q0 -14 -5 -30.5t-13 -31.5q-11 0 -26.5 7.5t-32.5 16.5q-7 -4 -16.5 -18t-8.5 -23q0 -8 25.5 -16t40.5 -8q0 -4 -4 -11t-7 -10q-7 -21 -25.5 -35t-46.5 -14q-15 2 -17 28t-7 29q-8 0 -14.5 -4.5t-14.5 -13.5q-13 -5 -13 -15q0 -5 6 -18t8 -22t18.5 -16.5
t39.5 -7.5q22 0 42.5 5t31.5 12q5 6 25 23q12 10 16 22l21 43q8 -2 20 -2z" />
    <glyph glyph-name="thorn" unicode="&#xfe;" 
d="M125 281q-5 0 -6.5 -8.5t-2.5 -14.5q2 -10 -4 -22q-2 -7 -33 -45q-15 -19 -18 -27q-3 -4 -21 -22q-25 -25 -25 -43q0 -10 5 -19l4 -6q18 15 25 21q12 11 18 20l14 20q0 -21 -5 -36q-8 -17 -11 -25q-2 -14 -8.5 -41.5t-6.5 -33.5q0 -9 7 -9q11 -6 19 -6q7 0 13.5 4.5
t10.5 7.5q2 0 17 53.5t20 57.5q7 -2 18.5 -2h24.5q-4 -14 -6.5 -26.5t-2.5 -25.5q0 -18 6 -28.5t23 -14.5q4 -8 10.5 -10t28.5 -4q32 0 54 12q13 7 53 49q4 7 11 14l13 13l28 62q7 19 7 38q0 15 -6 35q-18 24 -47 24q-20 0 -41 -13q-4 2 1 11.5t5 11.5q0 5 -6 7q-12 2 -19 2
q-4 0 -10 -2q-14 -15 -36 -36q-3 -2 -7 -7q-8 0 -23 -27l-20 -36q-12 -3 -19 -3q-11 0 -20 15q4 22 13.5 48.5t19.5 51.5q0 8 -20 13.5t-32 5.5q-10 0 -13 -4zM338 102q-14 -18 -16 -20q-7 -7 -23 -18q-24 -19 -41 -19q-21 0 -17 31q0 27 23 57q11 0 20 11t17 22
q14 10 25 10q10 0 15 -10t5 -24q0 -24 -8 -40z" />
    <glyph glyph-name="thorn" unicode="&#x44e;" 
d="M125 281q-5 0 -6.5 -8.5t-2.5 -14.5q2 -10 -4 -22q-2 -7 -33 -45q-15 -19 -18 -27q-3 -4 -21 -22q-25 -25 -25 -43q0 -10 5 -19l4 -6q18 15 25 21q12 11 18 20l14 20q0 -21 -5 -36q-8 -17 -11 -25q-2 -14 -8.5 -41.5t-6.5 -33.5q0 -9 7 -9q11 -6 19 -6q7 0 13.5 4.5
t10.5 7.5q2 0 17 53.5t20 57.5q7 -2 18.5 -2h24.5q-4 -14 -6.5 -26.5t-2.5 -25.5q0 -18 6 -28.5t23 -14.5q4 -8 10.5 -10t28.5 -4q32 0 54 12q13 7 53 49q4 7 11 14l13 13l28 62q7 19 7 38q0 15 -6 35q-18 24 -47 24q-20 0 -41 -13q-4 2 1 11.5t5 11.5q0 5 -6 7q-12 2 -19 2
q-4 0 -10 -2q-14 -15 -36 -36q-3 -2 -7 -7q-8 0 -23 -27l-20 -36q-12 -3 -19 -3q-11 0 -20 15q4 22 13.5 48.5t19.5 51.5q0 8 -20 13.5t-32 5.5q-10 0 -13 -4zM338 102q-14 -18 -16 -20q-7 -7 -23 -18q-24 -19 -41 -19q-21 0 -17 31q0 27 23 57q11 0 20 11t17 22
q14 10 25 10q10 0 15 -10t5 -24q0 -24 -8 -40z" />
    <glyph glyph-name="ydieresis" unicode="&#xff;" horiz-adv-x="322" 
d="M267 165q0 6 -15 6l-16 -1q21 34 21 68q0 26 -12.5 44t-40.5 24q-56 0 -103 -41.5t-47 -95.5q0 -26 13 -51q8 -12 32 -12q22 0 55 10q-7 -11 -24.5 -31.5t-34.5 -33.5q-7 -7 -17 -7h-11q-4 0 -26 33t-30 33t-11.5 -24.5t-5.5 -28.5q11 -32 15 -38q10 -17 32 -23
q9 -1 13 -1q36 0 66.5 20t53.5 55q1 4 4.5 9.5t8.5 14.5q6 4 11 12.5t7 16.5q-3 -18 -5.5 -37t-2.5 -25q0 -24 9.5 -35.5t25.5 -11.5q20 0 48 17.5t44 36.5q0 9 1 17.5t2 17.5q0 9 -5 12q-16 -10 -35.5 -28.5t-25.5 -18.5q-2 0 -6 4q-1 4 -1 14q0 17 4.5 38.5t8.5 40.5z
M207 212q-6 -6 -14 -26.5t-12 -25.5q-5 -1 -20.5 -3t-21.5 -2q-22 0 -22 23q0 15 9 33q16 28 32 38.5t34 10.5q21 -6 21 -24q0 -10 -6 -24z" />
    <glyph glyph-name="ydieresis" unicode="&#x44f;" horiz-adv-x="322" 
d="M267 165q0 6 -15 6l-16 -1q21 34 21 68q0 26 -12.5 44t-40.5 24q-56 0 -103 -41.5t-47 -95.5q0 -26 13 -51q8 -12 32 -12q22 0 55 10q-7 -11 -24.5 -31.5t-34.5 -33.5q-7 -7 -17 -7h-11q-4 0 -26 33t-30 33t-11.5 -24.5t-5.5 -28.5q11 -32 15 -38q10 -17 32 -23
q9 -1 13 -1q36 0 66.5 20t53.5 55q1 4 4.5 9.5t8.5 14.5q6 4 11 12.5t7 16.5q-3 -18 -5.5 -37t-2.5 -25q0 -24 9.5 -35.5t25.5 -11.5q20 0 48 17.5t44 36.5q0 9 1 17.5t2 17.5q0 9 -5 12q-16 -10 -35.5 -28.5t-25.5 -18.5q-2 0 -6 4q-1 4 -1 14q0 17 4.5 38.5t8.5 40.5z
M207 212q-6 -6 -14 -26.5t-12 -25.5q-5 -1 -20.5 -3t-21.5 -2q-22 0 -22 23q0 15 9 33q16 28 32 38.5t34 10.5q21 -6 21 -24q0 -10 -6 -24z" />
    </font>
</defs>
</svg>
